<svg width="64" height="64" xmlns="http://www.w3.org/2000/svg" xmlns:xlink="http://www.w3.org/1999/xlink">
  <defs/>
  <g>
    <path stroke="none" fill="#FFFFFF" d="M16 14 L48 14 Q50 14 50 16 L50 48 Q50 49.9 48.2 50 L31.55 50 Q24.4 49.85 19.35 44.8 14.3 39.75 14 32.95 L14 16 Q14 14 16 14 M8 16 Q8 8 16 8 L48 8 Q56 8 56 16 L56 48 Q56 55.85 48.3 56 L31.35 56 Q21.85 55.8 15.05 49 8.35 42.3 8 33.05 L8 16 M16 11 Q11 11 11 16 L11 33.05 Q11.35 41.05 17.2 46.9 23.1 52.8 31.45 53 L48.3 53 Q53 52.85 53 48 L53 16 Q53 11 48 11 L16 11"/>
  </g>
</svg>