<svg width="64" height="64" xmlns="http://www.w3.org/2000/svg" xmlns:xlink="http://www.w3.org/1999/xlink">
  <defs/>
  <g>
    <path stroke="none" fill="#FFFFFF" d="M35.65 34.3 Q38.75 34.85 41.15 36.35 L41.1 36.3 Q46.3 39.4 46 44 46.3 48.6 41.1 51.7 L41.15 51.7 Q37.4 54 32 54 26.65 54 22.85 51.7 17.7 48.6 18 44 17.7 39.4 22.85 36.35 L22.85 36.3 22.95 36.25 24.1 38.3 Q22 39.85 22 42 22 44.5 24.9 46.25 27.85 48 32 48 36.15 48 39.05 46.25 42 44.5 42 42 42 39.5 39.05 37.75 38.1 37.2 37.1 36.8 L35.65 34.3 M21.6 33.95 Q17.55 33.5 14.55 30.5 11 26.95 11 22 11 17.05 14.55 13.55 18.05 10 23 10 27.95 10 31.5 13.55 35 17.05 35 22 35 26.05 32.65 29.2 L31.5 30.5 30.65 31.25 34.9 38.6 Q35.5 39.7 35.15 40.9 34.85 42.05 33.8 42.7 32.7 43.3 31.45 43 30.3 42.7 29.7 41.6 L25.2 33.85 23 34 21.6 33.95"/>
    <path stroke="none" fill="#FFFFFF" fill-opacity="0" d="M21.6 33.95 L23 34 25.2 33.85 29.7 41.6 Q30.3 42.7 31.45 43 32.7 43.3 33.8 42.7 34.85 42.05 35.15 40.9 35.5 39.7 34.9 38.6 L30.65 31.25 31.5 30.5 32.65 29.2 35.65 34.3 37.1 36.8 37.15 36.95 Q38.35 39.05 37.75 41.4 L37.7 41.6 Q37.1 43.95 35 45.15 32.8 46.4 30.4 45.75 28.05 45.1 26.8 42.95 L24.1 38.3 22.95 36.25 21.6 33.95"/>
  </g>
</svg>