<svg width="64" height="64" xmlns="http://www.w3.org/2000/svg" xmlns:xlink="http://www.w3.org/1999/xlink">
  <defs/>
  <g>
    <path stroke="none" fill="#FFFFFF" d="M44 34 Q44 37.35 40.45 39.65 37 42 32 42 27 42 23.5 39.65 20 37.35 20 34 20 30.65 23.5 28.35 27 26 32 26 37 26 40.45 28.35 44 30.65 44 34 M32 24 Q25.7 24 21.3 27.05 L21.3 27 Q15.8 30.6 16 36 15.8 41.4 21.3 45 25.7 48 32 48 38.3 48 42.65 45 L42.7 44.95 Q48.2 41.35 48 36 48.2 30.65 42.7 27.05 L42.65 27 Q38.3 24 32 24 M32 22 Q39.65 22 44.95 25.7 L45.1 25.85 Q52.3 30.65 52 37.85 L52 37.95 52 38.15 52 39 52 39.85 52 39.95 52 40.15 Q52.3 47.35 45.1 52.2 L44.95 52.3 Q39.65 56 32 56 24.35 56 19.05 52.3 L19.1 52.35 Q11.7 47.5 12 40.15 L12 39.85 12 39 12 38.15 12 37.85 Q11.7 30.5 19.1 25.65 L19.7 25.35 Q24.8 22 32 22"/>
  </g>
</svg>