<svg width="64" height="64" xmlns="http://www.w3.org/2000/svg" xmlns:xlink="http://www.w3.org/1999/xlink">
  <defs/>
  <g>
    <path stroke="none" fill="#FFFFFF" fill-opacity="0" d="M27.2 22.45 L24.2 19.7 Q22 17.7 21.5 15.45 L21.4 15.3 Q21.2 13.7 21.6 12.1 21.9 11 22.55 9.85 L25.4 4.9 25.45 4.75 Q27.45 1.55 30.75 -0.05 L30.7 0 33.2 -1 Q38.45 -2.35 43.05 0.35 47.7 3 49.15 8.25 L49.15 8.35 49.45 10.05 49.5 10.2 Q49.6 12.3 50.7 14.2 L50.65 14.15 52 15.8 52.05 15.85 Q54.2 17.7 54.25 20.65 54.35 23.65 52.4 25.8 50.55 27.85 47.9 28.1 L47.6 28.1 47.55 28.15 Q44.85 28.35 42.85 26.65 L42.65 27 41.45 29.1 38.8 33.7 Q37.35 36.15 34.7 36.9 L34.55 36.95 33.35 37.15 33.25 37.15 Q31.3 37.3 29.45 36.35 L29.35 36.35 29.15 36.15 29 36.1 Q27.3 35 26.45 33.15 L26.3 33 26 32 Q25.2 29.25 26.65 26.85 L26.7 26.7 28.1 24.35 28.5 23.6 27.2 22.45 M32.3 23 L29.3 28.2 Q28.45 29.65 28.9 31.3 L29.15 31.85 Q29.65 32.95 30.65 33.55 L30.8 33.7 33.1 34.1 33.8 34.1 Q35.35 33.65 36.2 32.2 L42.35 21.55 Q43.25 22.95 44.6 24.2 45.75 25.25 47.35 25.15 49.05 25.05 50.2 23.8 51.35 22.55 51.2 20.8 51.2 19.1 50.05 18.05 48.7 16.8 48.1 15.7 46.75 13.15 46.5 10.4 L46.25 9.05 Q45.1 5 41.55 2.95 38 0.9 34 2 L32.1 2.7 Q29.5 3.9 28.05 6.35 L25.15 11.35 24.5 12.9 Q24.25 13.85 24.45 14.75 24.75 16.15 26.2 17.5 L32.3 23"/>
    <path stroke="none" fill="#FFFFFF" d="M32.3 23 L26.2 17.5 Q24.75 16.15 24.45 14.75 24.25 13.85 24.5 12.9 L25.15 11.35 28.05 6.35 Q29.5 3.9 32.1 2.7 L34 2 Q38 0.9 41.55 2.95 45.1 5 46.25 9.05 L46.5 10.4 Q46.75 13.15 48.1 15.7 48.7 16.8 50.05 18.05 51.2 19.1 51.2 20.8 51.35 22.55 50.2 23.8 49.05 25.05 47.35 25.15 45.75 25.25 44.6 24.2 43.25 22.95 42.35 21.55 L36.2 32.2 Q35.35 33.65 33.8 34.1 L33.1 34.1 30.8 33.7 30.65 33.55 Q29.65 32.95 29.15 31.85 L28.9 31.3 Q28.45 29.65 29.3 28.2 L32.3 23 M47.9 28.1 Q52.25 32.25 52 37.85 L52 37.95 52 38.15 52 39 52 39.85 52 39.95 52 40.15 Q52.3 47.35 45.1 52.2 L44.95 52.3 Q39.65 56 32 56 24.35 56 19.05 52.3 L19.1 52.35 Q11.7 47.5 12 40.15 L12 39.85 12 39 12 38.15 12 37.85 Q11.7 30.5 19.1 25.65 L19.7 25.35 Q23 23.2 27.2 22.45 L28.5 23.6 28.1 24.35 Q24.25 25 21.3 27.05 L21.3 27 Q15.8 30.6 16 36 15.8 41.4 21.3 45 25.7 48 32 48 38.3 48 42.65 45 L42.7 44.95 Q48.2 41.35 48 36 48.2 30.65 42.7 27.05 L42.65 27 42.85 26.65 Q44.85 28.35 47.55 28.15 L47.6 28.1 47.9 28.1 M26.65 26.85 Q25.2 29.25 26 32 L26.3 33 26.45 33.15 Q27.3 35 29 36.1 L29.15 36.15 29.35 36.35 29.45 36.35 Q31.3 37.3 33.25 37.15 L33.35 37.15 34.55 36.95 34.7 36.9 Q37.35 36.15 38.8 33.7 L41.45 29.1 Q44 31.15 44 34 44 37.35 40.45 39.65 37 42 32 42 27 42 23.5 39.65 20 37.35 20 34 20 30.65 23.5 28.35 24.95 27.4 26.65 26.85"/>
  </g>
</svg>