<svg width="64" height="64" xmlns="http://www.w3.org/2000/svg" xmlns:xlink="http://www.w3.org/1999/xlink">
  <defs/>
  <g>
    <path stroke="none" fill="#FFFFFF" d="M56 20 L56 48 Q56 56 48 56 L16 56 Q8 56 8 48 L8 20 Q8 15.05 15.05 11.5 22.05 8 32 8 41.95 8 49 11.5 56 15.05 56 20 M53 20 Q52.7 16.75 47.65 14.2 L47.7 14.2 Q41.15 11 32 11 22.85 11 16.4 14.2 11.35 16.75 11 20 L11 48 Q11 53 16 53 L48 53 Q53 53 53 48 L53 20 M32 14 Q40.2 14 46.15 16.8 L46.3 16.9 Q49.45 18.45 50 20.2 L50 48 Q50 50 48 50 L16 50 Q14 50 14 48 L14 20.25 Q14.55 18.5 17.75 16.9 23.65 14 32 14"/>
  </g>
</svg>