<svg width="64" height="64" xmlns="http://www.w3.org/2000/svg" xmlns:xlink="http://www.w3.org/1999/xlink">
  <defs/>
  <g>
    <path stroke="none" fill="#FFFFFF" d="M16 30 L16 16 Q16 12.7 18.35 10.35 20.7 8 24 8 L48 8 Q51.3 8 53.65 10.35 55.75 12.45 56 15.25 L56 16 56 40 Q56 46.6 51.3 51.3 46.6 56 40 56 L12.8 56 Q10.75 56 9.45 54.75 8 53.45 8 51.6 8 50.15 12 43.6 15.75 37.4 16 30 M48 11 L24 11 Q21.95 11 20.5 12.5 19 13.95 19 16 L19 30 19 30.1 Q18.7 38.3 14.6 45.15 L14.55 45.2 Q11.25 50.55 11 51.6 11 52.15 11.45 52.55 L11.55 52.6 Q12.05 53 12.8 53 L40 53 Q45.35 53 49.2 49.2 53 45.35 53 40 L53 16 53 15.55 Q52.85 13.8 51.55 12.5 50.05 11 48 11"/>
  </g>
</svg>