<svg width="64" height="64" xmlns="http://www.w3.org/2000/svg" xmlns:xlink="http://www.w3.org/1999/xlink">
  <defs/>
  <g>
    <path stroke="none" fill="#E73246" d="M31.95 29.85 Q29 26.5 29 22 29 17.05 32.55 13.55 36.05 10 41 10 45.95 10 49.5 13.55 53 17.05 53 22 53 26.95 49.5 30.5 46.85 33.1 43.45 33.8 L41 34 39.7 33.95 Q36.5 33.6 34 31.75 L32.55 30.5 31.95 29.85"/>
    <path stroke="none" fill="#FFFFFF" fill-opacity="0" d="M31.95 29.85 L32.55 30.5 34 31.75 30.05 38.6 Q29.45 39.7 29.8 40.9 30.1 42.05 31.15 42.7 32.25 43.3 33.5 43 34.65 42.7 35.25 41.6 L39.7 33.95 41 34 43.45 33.8 41.75 36.7 40.55 38.85 38.15 42.95 Q36.9 45.1 34.55 45.75 32.15 46.4 29.95 45.15 27.85 43.95 27.25 41.6 L27.2 41.4 Q26.6 39.05 27.8 36.95 L28.1 36.45 29.45 34.15 31.95 29.85"/>
    <path stroke="none" fill="#FFFFFF" d="M41.75 36.7 Q46.3 39.7 46 44 46.3 48.6 41.1 51.7 L41.15 51.7 Q37.4 54 32 54 26.65 54 22.85 51.7 17.7 48.6 18 44 17.7 39.4 22.85 36.35 L22.85 36.3 Q25.7 34.55 29.45 34.15 L28.1 36.45 Q26.35 36.9 24.9 37.75 22 39.5 22 42 22 44.5 24.9 46.25 27.85 48 32 48 36.15 48 39.05 46.25 42 44.5 42 42 42 40.25 40.55 38.85 L41.75 36.7 M34 31.75 Q36.5 33.6 39.7 33.95 L35.25 41.6 Q34.65 42.7 33.5 43 32.25 43.3 31.15 42.7 30.1 42.05 29.8 40.9 29.45 39.7 30.05 38.6 L34 31.75"/>
  </g>
</svg>