<svg width="64" height="64" xmlns="http://www.w3.org/2000/svg" xmlns:xlink="http://www.w3.org/1999/xlink">
  <defs/>
  <g>
    <path stroke="none" fill="#FFFFFF" d="M38 34.9 Q39.7 35.45 41.15 36.35 L41.1 36.3 Q46.3 39.4 46 44 46.3 48.6 41.1 51.7 L41.15 51.7 Q37.4 54 32 54 26.65 54 22.85 51.7 17.7 48.6 18 44 17.7 39.4 22.85 36.35 L22.85 36.3 Q24.3 35.4 26 34.9 L26 37.2 24.9 37.75 Q22 39.5 22 42 22 44.5 24.9 46.25 27.85 48 32 48 36.15 48 39.05 46.25 42 44.5 42 42 42 39.5 39.05 37.75 L38 37.2 38 34.9 M29 33.65 L32 34 35 33.65 35 41 Q35 42.25 34.1 43.1 33.25 44 32 44 30.75 44 29.85 43.1 29 42.25 29 41 L29 33.65"/>
    <path stroke="none" fill="#E73246" d="M29 33.65 Q27.4 33.25 26 32.45 24.7 31.65 23.55 30.5 20 26.95 20 22 20 17.05 23.55 13.55 27.05 10 32 10 36.95 10 40.5 13.55 44 17.05 44 22 44 26.95 40.5 30.5 39.35 31.65 38 32.45 36.6 33.25 35 33.65 L32 34 29 33.65"/>
    <path stroke="none" fill="#FFFFFF" fill-opacity="0" d="M29 33.65 L29 41 Q29 42.25 29.85 43.1 30.75 44 32 44 33.25 44 34.1 43.1 35 42.25 35 41 L35 33.65 Q36.6 33.25 38 32.45 L38 34.9 38 37.2 38 41 Q38 43.45 36.3 45.15 L36.15 45.3 Q34.45 47 32 47 29.5 47 27.75 45.25 26 43.5 26 41 L26 37.2 26 34.9 26 32.45 Q27.4 33.25 29 33.65"/>
  </g>
</svg>