<svg width="64" height="64" xmlns="http://www.w3.org/2000/svg" xmlns:xlink="http://www.w3.org/1999/xlink">
  <defs/>
  <g>
    <path stroke="none" fill="#FFFFFF" fill-opacity="0" d="M23.8 23.35 Q21.95 21.5 21.5 19.45 L21.4 19.3 Q21.2 17.7 21.6 16.1 21.9 15 22.55 13.85 L25.4 8.9 25.45 8.75 Q27.45 5.55 30.75 3.95 L30.7 4 Q31.85 3.45 33.2 3 38.45 1.65 43.05 4.35 47.7 7 49.15 12.25 L49.15 12.35 49.45 14.05 49.5 14.2 Q49.6 16.3 50.7 18.2 L50.65 18.15 52 19.8 52.05 19.85 Q54.2 21.7 54.25 24.65 54.35 27.65 52.4 29.8 51.55 30.75 50.5 31.35 49.15 32 47.6 32.1 L47.55 32.15 47.35 32.2 Q44.75 32.3 42.85 30.65 L41.45 33.1 38.8 37.7 Q37.35 40.15 34.7 40.9 L34.55 40.95 33.35 41.15 33.25 41.15 Q31.3 41.3 29.45 40.35 L29.35 40.35 29.15 40.15 29 40.1 Q27.3 39 26.45 37.15 L26.3 37 26 36 Q25.2 33.25 26.65 30.85 L26.7 30.7 28.5 27.6 25.6 24.95 24.2 23.7 23.8 23.35 M32.3 27 L29.3 32.2 Q28.45 33.65 28.9 35.3 L29.15 35.85 Q29.65 36.95 30.65 37.55 L30.8 37.7 33.1 38.1 33.8 38.1 Q35.35 37.65 36.2 36.2 L42.35 25.55 Q43.25 26.95 44.6 28.2 45.75 29.25 47.35 29.15 L48.7 28.9 50.2 27.8 Q51.35 26.55 51.2 24.8 51.2 23.1 50.05 22.05 48.7 20.8 48.1 19.7 46.75 17.15 46.5 14.4 L46.25 13.05 Q45.1 9 41.55 6.95 38 4.9 34 6 L32.1 6.7 Q29.5 7.9 28.05 10.35 L25.15 15.35 24.5 16.9 Q24.25 17.85 24.45 18.75 24.75 20.15 26.2 21.5 L32.3 27"/>
    <path stroke="none" fill="#FFFFFF" d="M32.3 27 L26.2 21.5 Q24.75 20.15 24.45 18.75 24.25 17.85 24.5 16.9 L25.15 15.35 28.05 10.35 Q29.5 7.9 32.1 6.7 L34 6 Q38 4.9 41.55 6.95 45.1 9 46.25 13.05 L46.5 14.4 Q46.75 17.15 48.1 19.7 48.7 20.8 50.05 22.05 51.2 23.1 51.2 24.8 51.35 26.55 50.2 27.8 L48.7 28.9 47.35 29.15 Q45.75 29.25 44.6 28.2 43.25 26.95 42.35 25.55 L36.2 36.2 Q35.35 37.65 33.8 38.1 L33.1 38.1 30.8 37.7 30.65 37.55 Q29.65 36.95 29.15 35.85 L28.9 35.3 Q28.45 33.65 29.3 32.2 L32.3 27 M50.5 31.35 Q52.15 34.3 52 37.85 L52 37.95 52 38.15 52 39 52 39.85 52 39.95 52 40.15 Q52.3 47.35 45.1 52.2 L44.95 52.3 Q39.65 56 32 56 24.35 56 19.05 52.3 L19.1 52.35 Q11.7 47.5 12 40.15 L12 39.85 12 39 12 38.15 12 37.85 Q11.7 30.5 19.1 25.65 L19.7 25.35 Q21.6 24.1 23.8 23.35 L24.2 23.7 25.6 24.95 Q23.25 25.7 21.3 27.05 L21.3 27 Q15.8 30.6 16 36 15.8 41.4 21.3 45 25.7 48 32 48 38.3 48 42.65 45 L42.7 44.95 Q48.2 41.35 48 36 48.1 33.95 47.35 32.2 L47.55 32.15 47.6 32.1 Q49.15 32 50.5 31.35 M26.65 30.85 Q25.2 33.25 26 36 L26.3 37 26.45 37.15 Q27.3 39 29 40.1 L29.15 40.15 29.35 40.35 29.45 40.35 Q31.3 41.3 33.25 41.15 L33.35 41.15 34.55 40.95 34.7 40.9 Q37.35 40.15 38.8 37.7 L41.45 33.1 Q44 35.15 44 38 44 41.35 40.45 43.65 37 46 32 46 27 46 23.5 43.65 20 41.35 20 38 20 34.65 23.5 32.35 24.95 31.4 26.65 30.85"/>
  </g>
</svg>