<svg width="64" height="64" xmlns="http://www.w3.org/2000/svg" xmlns:xlink="http://www.w3.org/1999/xlink">
  <defs/>
  <g>
    <path stroke="none" fill="#FCFCFC" d="M30.45 38 L23 38 15.35 45.65 Q14.7 46.4 13.75 46.75 L11.85 46.95 Q10.15 46.85 9 45.45 7.85 44.05 8 42.4 L11.15 22.7 Q11.5 20.6 12.7 18.8 13.85 17 15.65 15.8 16.95 14.9 18.5 14.45 20.05 13.95 21.65 14 L42.75 14 Q45.95 14.05 48.7 16 51.4 18 52.4 21 L53.1 24.25 55.1 36.9 Q53.5 34 49 34 L37 34 Q34.9 34 33.45 34.65 31.2 35.6 30.45 38 M44 31 Q44 30.15 43.4 29.55 42.85 29 42 29 41.15 29 40.55 29.55 40 30.15 40 31 40 31.85 40.55 32.4 41.15 33 42 33 42.85 33 43.4 32.4 44 31.85 44 31 M48 27 Q48 26.15 47.4 25.55 46.85 25 46 25 45.15 25 44.55 25.55 44 26.15 44 27 44 27.85 44.55 28.4 45.15 29 46 29 46.85 29 47.4 28.4 48 27.85 48 27 M44 23 Q44 22.15 43.4 21.55 42.85 21 42 21 41.15 21 40.55 21.55 40 22.15 40 23 40 23.85 40.55 24.4 41.15 25 42 25 42.85 25 43.4 24.4 44 23.85 44 23 M40 27 Q40 26.15 39.4 25.55 38.85 25 38 25 37.15 25 36.55 25.55 36 26.15 36 27 36 27.85 36.55 28.4 37.15 29 38 29 38.85 29 39.4 28.4 40 27.85 40 27 M20 21 L20 25 16 25 16 29 20 29 20 33 24 33 24 29 28 29 28 25 24 25 24 21 20 21"/>
    <path stroke="none" fill="#FFFFFF" fill-opacity="0" d="M55.1 36.9 Q56 38.5 56 41 L56 49 Q56 53.35 53.3 55 51.65 56 49 56 L37 56 Q31 56 30.15 50.9 L28.9 50.15 Q28 49.25 28 48 L28 42 Q28 40.75 28.9 39.9 29.45 39.3 30.15 39.15 L30.45 38 Q31.2 35.6 33.45 34.65 34.9 34 37 34 L49 34 Q53.5 34 55.1 36.9 M37 37 Q35 37 34.05 38 L33.45 38.8 Q33 39.65 33 41 L33 42 31 42 31 48 33 48 33 49.15 Q33.05 50.4 33.45 51.25 34.35 53 37 53 L49 53 Q53 53 53 49 L53 41 Q53 37 49 37 L37 37 M47 43 L43 43 43 47 47 47 47 43 M37 49 L37 41 49 41 49 49 37 49"/>
    <path stroke="none" fill="#FFFFFF" d="M37 49 L49 49 49 41 37 41 37 49 M47 43 L47 47 43 47 43 43 47 43 M37 37 L49 37 Q53 37 53 41 L53 49 Q53 53 49 53 L37 53 Q34.35 53 33.45 51.25 33.05 50.4 33 49.15 L33 48 31 48 31 42 33 42 33 41 Q33 39.65 33.45 38.8 L34.05 38 Q35 37 37 37"/>
  </g>
</svg>