<svg width="64" height="64" xmlns="http://www.w3.org/2000/svg" xmlns:xlink="http://www.w3.org/1999/xlink">
  <defs/>
  <g>
    <path stroke="none" fill="#FCFCFC" d="M39.85 21 L42.75 21 Q45.95 21.05 48.7 23 51.4 25 52.4 28 L53.1 31.25 55.85 48.6 Q56.1 49.65 55.9 50.65 55.65 51.75 54.95 52.5 54.1 53.55 52.7 53.9 L50.1 53.65 Q49.5 53.45 48.85 52.85 L47.75 51.75 44.35 48.35 41 45 23 45 15.35 52.65 Q14.7 53.4 13.75 53.75 L11.85 53.95 Q10.15 53.85 9 52.45 7.85 51.05 8 49.4 L11.15 29.7 Q11.5 27.6 12.7 25.8 13.85 24 15.65 22.8 16.95 21.9 18.5 21.45 20.05 20.95 21.65 21 L23.85 21 24.1 21.9 Q24.8 23.75 26.75 24.6 L26.85 24.65 Q28.7 25.35 30.6 24.65 L31.85 23.95 33.1 24.65 Q34.9 25.35 36.8 24.65 L37.05 24.6 Q38.85 23.7 39.6 21.9 L39.85 21 M44 38 Q44 37.15 43.4 36.55 42.85 36 42 36 41.15 36 40.55 36.55 40 37.15 40 38 40 38.85 40.55 39.4 41.15 40 42 40 42.85 40 43.4 39.4 44 38.85 44 38 M48 34 Q48 33.15 47.4 32.55 46.85 32 46 32 45.15 32 44.55 32.55 44 33.15 44 34 44 34.85 44.55 35.4 45.15 36 46 36 46.85 36 47.4 35.4 48 34.85 48 34 M44 30 Q44 29.15 43.4 28.55 42.85 28 42 28 41.15 28 40.55 28.55 40 29.15 40 30 40 30.85 40.55 31.4 41.15 32 42 32 42.85 32 43.4 31.4 44 30.85 44 30 M40 34 Q40 33.15 39.4 32.55 38.85 32 38 32 37.15 32 36.55 32.55 36 33.15 36 34 36 34.85 36.55 35.4 37.15 36 38 36 38.85 36 39.4 35.4 40 34.85 40 34 M20 28 L20 32 16 32 16 36 20 36 20 40 24 40 24 36 28 36 28 32 24 32 24 28 20 28"/>
    <path stroke="none" fill="#FFFFFF" fill-opacity="0" d="M23.85 21 Q23.55 19.55 24.1 18.15 24.75 16.5 26.15 15.25 28.5 13 31.85 13 35.35 13 37.8 15.45 L38 15.7 Q39.05 16.7 39.6 18.15 L39.6 18.2 Q40.15 19.6 39.85 21 L39.6 21.9 Q38.85 23.7 37.05 24.6 L36.8 24.65 Q34.9 25.35 33.1 24.65 L31.85 23.95 30.6 24.65 Q28.7 25.35 26.85 24.65 L26.75 24.6 Q24.8 23.75 24.1 21.9 L23.85 21 M30.55 20.8 L30.8 20.45 30.85 20.4 Q31.25 20 31.85 20 32.4 20 32.8 20.4 L32.85 20.45 33.1 20.8 33.2 21 Q33.55 21.6 34.2 21.85 34.95 22.15 35.75 21.85 L36.7 21 36.8 20.75 Q37.1 20 36.8 19.25 36.4 18.2 35.55 17.5 L35.65 17.55 Q34.1 16 31.85 16 29.65 16 28.1 17.5 27.25 18.25 26.85 19.25 26.55 20 26.85 20.75 L27 21 27.95 21.85 Q28.7 22.15 29.45 21.85 L30.45 21 30.55 20.8"/>
    <path stroke="none" fill="#FFFFFF" d="M30.55 20.8 L30.45 21 29.45 21.85 Q28.7 22.15 27.95 21.85 L27 21 26.85 20.75 Q26.55 20 26.85 19.25 27.25 18.25 28.1 17.5 29.65 16 31.85 16 34.1 16 35.65 17.55 L35.55 17.5 Q36.4 18.2 36.8 19.25 37.1 20 36.8 20.75 L36.7 21 35.75 21.85 Q34.95 22.15 34.2 21.85 33.55 21.6 33.2 21 L33.1 20.8 32.85 20.45 32.8 20.4 Q32.4 20 31.85 20 31.25 20 30.85 20.4 L30.8 20.45 30.55 20.8"/>
  </g>
</svg>