<svg width="64" height="64" xmlns="http://www.w3.org/2000/svg" xmlns:xlink="http://www.w3.org/1999/xlink">
  <defs/>
  <g>
    <path stroke="none" fill="#000000" d="M44.7 18.9 Q44.05 20.85 42.35 21.8 L42.25 21.85 39.75 22.5 39.6 22.9 Q38.85 24.7 37.05 25.6 L36.8 25.65 Q34.9 26.35 33.1 25.65 L31.85 24.95 30.6 25.65 Q28.7 26.35 26.85 25.65 L26.75 25.6 Q24.8 24.75 24.1 22.9 L23.95 22.5 Q22.65 22.5 21.5 21.85 L21.4 21.8 Q19.55 20.75 19.05 18.75 18.5 16.8 19.5 15.05 L19.5 15 Q20.55 13.15 22.2 11.65 L22.2 11.7 Q26.15 8 31.85 8 37.4 8 41.5 11.6 L41.75 11.9 Q43.25 13.25 44.2 15 L44.25 15.05 Q45.2 16.75 44.7 18.75 L44.7 18.9 M24.2 13.9 Q22.9 15.05 22.1 16.5 21.7 17.2 21.95 18 22.15 18.8 22.9 19.2 L24.4 19.4 Q25.2 19.15 25.6 18.45 26.1 17.55 26.9 16.85 28.95 15 31.85 15 34.7 15 36.8 16.85 L36.85 16.85 38.1 18.45 39.3 19.4 40.85 19.2 Q41.55 18.8 41.8 18 42 17.2 41.6 16.5 40.8 15.05 39.5 13.9 L39.5 13.85 Q36.25 11 31.85 11 27.35 11 24.2 13.9 M30.55 21.8 L30.8 21.45 30.85 21.4 Q31.25 21 31.85 21 32.4 21 32.8 21.4 L32.85 21.45 33.1 21.8 Q33.45 22.55 34.2 22.85 34.95 23.15 35.75 22.85 36.5 22.5 36.8 21.75 37.1 21 36.8 20.25 36.4 19.2 35.55 18.5 L35.65 18.55 Q34.1 17 31.85 17 29.65 17 28.1 18.5 27.25 19.25 26.85 20.25 26.55 21 26.85 21.75 27.15 22.5 27.95 22.85 28.7 23.15 29.45 22.85 30.2 22.55 30.55 21.8"/>
    <path stroke="none" fill="#FFFFFF" d="M30.55 21.8 Q30.2 22.55 29.45 22.85 28.7 23.15 27.95 22.85 27.15 22.5 26.85 21.75 26.55 21 26.85 20.25 27.25 19.25 28.1 18.5 29.65 17 31.85 17 34.1 17 35.65 18.55 L35.55 18.5 Q36.4 19.2 36.8 20.25 37.1 21 36.8 21.75 36.5 22.5 35.75 22.85 34.95 23.15 34.2 22.85 33.45 22.55 33.1 21.8 L32.85 21.45 32.8 21.4 Q32.4 21 31.85 21 31.25 21 30.85 21.4 L30.8 21.45 30.55 21.8 M24.2 13.9 Q27.35 11 31.85 11 36.25 11 39.5 13.85 L39.5 13.9 Q40.8 15.05 41.6 16.5 42 17.2 41.8 18 41.55 18.8 40.85 19.2 L39.3 19.4 38.1 18.45 36.85 16.85 36.8 16.85 Q34.7 15 31.85 15 28.95 15 26.9 16.85 26.1 17.55 25.6 18.45 25.2 19.15 24.4 19.4 L22.9 19.2 Q22.15 18.8 21.95 18 21.7 17.2 22.1 16.5 22.9 15.05 24.2 13.9"/>
  </g>
</svg>