<svg width="64" height="64" xmlns="http://www.w3.org/2000/svg" xmlns:xlink="http://www.w3.org/1999/xlink">
  <defs/>
  <g>
    <path stroke="none" fill="#FCFCFC" d="M15.65 15.8 Q16.95 14.9 18.5 14.45 20.05 13.95 21.65 14 L42.75 14 Q45.95 14.05 48.7 16 51.4 18 52.4 21 L53.1 24.25 55.85 41.6 Q56.1 42.65 55.9 43.65 55.65 44.75 54.95 45.5 54.1 46.55 52.7 46.9 L50.1 46.65 Q49.5 46.45 48.85 45.85 L47.75 44.75 44.35 41.35 41 38 23 38 15.35 45.65 Q14.7 46.4 13.75 46.75 L11.85 46.95 Q10.15 46.85 9 45.45 7.85 44.05 8 42.4 L11.15 22.7 Q11.5 20.6 12.7 18.8 13.85 17 15.65 15.8 M40 27 Q40 26.15 39.4 25.55 38.85 25 38 25 37.15 25 36.55 25.55 36 26.15 36 27 36 27.85 36.55 28.4 37.15 29 38 29 38.85 29 39.4 28.4 40 27.85 40 27 M20 21 L20 25 16 25 16 29 20 29 20 33 24 33 24 29 28 29 28 25 24 25 24 21 20 21 M44 31 Q44 30.15 43.4 29.55 42.85 29 42 29 41.15 29 40.55 29.55 40 30.15 40 31 40 31.85 40.55 32.4 41.15 33 42 33 42.85 33 43.4 32.4 44 31.85 44 31 M48 27 Q48 26.15 47.4 25.55 46.85 25 46 25 45.15 25 44.55 25.55 44 26.15 44 27 44 27.85 44.55 28.4 45.15 29 46 29 46.85 29 47.4 28.4 48 27.85 48 27 M44 23 Q44 22.15 43.4 21.55 42.85 21 42 21 41.15 21 40.55 21.55 40 22.15 40 23 40 23.85 40.55 24.4 41.15 25 42 25 42.85 25 43.4 24.4 44 23.85 44 23"/>
  </g>
</svg>