<svg width="64" height="64" xmlns="http://www.w3.org/2000/svg" xmlns:xlink="http://www.w3.org/1999/xlink">
  <defs/>
  <g>
    <path stroke="none" fill="#000000" d="M56 37 L56 41 Q56 42.25 55.15 43.15 L53.25 45 55.15 46.9 Q56 47.75 56 49 L56 53 Q56 54.25 55.15 55.15 54.25 56 53 56 L49 56 Q47.75 56 46.9 55.15 L45 53.25 43.15 55.15 Q42.25 56 41 56 L37 56 Q35.75 56 34.9 55.15 34 54.25 34 53 L34 49 Q34 47.75 34.9 46.9 L36.75 45 34.9 43.15 Q34 42.25 34 41 L34 37 Q34 35.75 34.9 34.9 35.75 34 37 34 L41 34 Q42.25 34 43.15 34.9 L45 36.75 46.9 34.9 Q47.75 34 49 34 L53 34 Q54.25 34 55.15 34.9 56 35.75 56 37 M37 41 L41 45 37 49 37 53 41 53 45 49 49 53 53 53 53 49 49 45 53 41 53 37 49 37 45 41 41 37 37 37 37 41"/>
    <path stroke="none" fill="#FFFFFF" d="M37 41 L37 37 41 37 45 41 49 37 53 37 53 41 49 45 53 49 53 53 49 53 45 49 41 53 37 53 37 49 41 45 37 41"/>
  </g>
</svg>