<svg width="64" height="64" xmlns="http://www.w3.org/2000/svg" xmlns:xlink="http://www.w3.org/1999/xlink">
  <defs/>
  <g>
    <path stroke="none" fill="#000000" d="M30.55 21.8 L30.8 21.45 30.85 21.4 Q31.25 21 31.85 21 32.4 21 32.8 21.4 L32.85 21.45 33.1 21.8 Q33.45 22.55 34.2 22.85 34.95 23.15 35.75 22.85 36.5 22.5 36.8 21.75 37.1 21 36.8 20.25 36.4 19.2 35.55 18.5 L35.65 18.55 Q34.1 17 31.85 17 29.65 17 28.1 18.5 27.25 19.25 26.85 20.25 26.55 21 26.85 21.75 27.15 22.5 27.95 22.85 28.7 23.15 29.45 22.85 30.2 22.55 30.55 21.8 M24.1 19.15 Q24.75 17.5 26.15 16.25 28.5 14 31.85 14 35.35 14 37.8 16.45 L38 16.7 Q39.05 17.7 39.6 19.15 L39.6 19.2 Q40.3 21.05 39.6 22.9 38.85 24.7 37.05 25.6 L36.8 25.65 Q34.9 26.35 33.1 25.65 L31.85 24.95 30.6 25.65 Q28.7 26.35 26.85 25.65 L26.75 25.6 Q24.8 24.75 24.1 22.9 23.35 21 24.1 19.15"/>
    <path stroke="none" fill="#FFFFFF" d="M30.55 21.8 Q30.2 22.55 29.45 22.85 28.7 23.15 27.95 22.85 27.15 22.5 26.85 21.75 26.55 21 26.85 20.25 27.25 19.25 28.1 18.5 29.65 17 31.85 17 34.1 17 35.65 18.55 L35.55 18.5 Q36.4 19.2 36.8 20.25 37.1 21 36.8 21.75 36.5 22.5 35.75 22.85 34.95 23.15 34.2 22.85 33.45 22.55 33.1 21.8 L32.85 21.45 32.8 21.4 Q32.4 21 31.85 21 31.25 21 30.85 21.4 L30.8 21.45 30.55 21.8"/>
  </g>
</svg>