<svg width="64" height="64" xmlns="http://www.w3.org/2000/svg" xmlns:xlink="http://www.w3.org/1999/xlink">
  <defs/>
  <g>
    <path stroke="none" fill="#000000" d="M47 43 L43 43 43 47 47 47 47 43 M37 49 L37 41 49 41 49 49 37 49 M28 48 L28 42 Q28 40.75 28.9 39.9 29.45 39.3 30.15 39.15 30.7 35.8 33.45 34.65 34.9 34 37 34 L49 34 Q56 34 56 41 L56 49 Q56 53.35 53.3 55 51.65 56 49 56 L37 56 Q31 56 30.15 50.9 L28.9 50.15 Q28 49.25 28 48 M37 37 Q34.35 37 33.45 38.8 33 39.65 33 41 L33 42 31 42 31 48 33 48 33 49.15 Q33.05 50.4 33.45 51.25 34.35 53 37 53 L49 53 Q53 53 53 49 L53 41 Q53 37 49 37 L37 37"/>
    <path stroke="none" fill="#FFFFFF" d="M37 37 L49 37 Q53 37 53 41 L53 49 Q53 53 49 53 L37 53 Q34.35 53 33.45 51.25 33.05 50.4 33 49.15 L33 48 31 48 31 42 33 42 33 41 Q33 39.65 33.45 38.8 34.35 37 37 37 M37 49 L49 49 49 41 37 41 37 49 M47 43 L47 47 43 47 43 43 47 43"/>
  </g>
</svg>