<svg width="64" height="64" xmlns="http://www.w3.org/2000/svg" xmlns:xlink="http://www.w3.org/1999/xlink">
  <defs/>
  <g>
    <path stroke="none" fill="#FFFFFF" fill-opacity="0" d="M21.95 21 L21.65 20.85 21.55 20.8 Q19.7 19.75 19.2 17.75 18.65 15.8 19.65 14.05 L19.65 14 Q20.7 12.15 22.35 10.65 L22.35 10.7 Q26.3 7 32 7 37.55 7 41.65 10.6 L41.9 10.9 Q43.4 12.25 44.35 14 L44.4 14.05 Q45.35 15.75 44.85 17.75 L44.85 17.9 Q44.2 19.85 42.5 20.8 L42.4 20.85 42.1 21 Q41 21.5 39.9 21.5 L39.75 21.9 Q39 23.7 37.2 24.6 L36.95 24.65 Q35.05 25.35 33.25 24.65 L32 23.95 30.75 24.65 Q28.85 25.35 27 24.65 L26.9 24.6 Q24.95 23.75 24.25 21.9 L24.1 21.5 Q22.95 21.5 21.95 21 M24.35 12.9 Q23.05 14.05 22.25 15.5 21.85 16.2 22.1 17 22.3 17.8 23.05 18.2 L24.55 18.4 25.75 17.45 Q26.25 16.55 27.05 15.85 29.1 14 32 14 34.85 14 36.95 15.85 L37 15.85 38.25 17.45 Q38.65 18.15 39.45 18.4 L41 18.2 Q41.7 17.8 41.95 17 42.15 16.2 41.75 15.5 40.95 14.05 39.65 12.9 L39.65 12.85 Q36.4 10 32 10 27.5 10 24.35 12.9 M30.7 20.8 L30.95 20.45 31 20.4 Q31.4 20 32 20 32.55 20 32.95 20.4 L33 20.45 33.25 20.8 33.35 21 Q33.7 21.6 34.35 21.85 35.1 22.15 35.9 21.85 L36.85 21 36.95 20.75 Q37.25 20 36.95 19.25 36.55 18.2 35.7 17.5 L35.8 17.55 Q34.25 16 32 16 29.8 16 28.25 17.5 27.4 18.25 27 19.25 26.7 20 27 20.75 L27.15 21 Q27.45 21.55 28.1 21.85 28.85 22.15 29.6 21.85 L30.6 21 30.7 20.8"/>
    <path stroke="none" fill="#FFFFFF" d="M30.7 20.8 L30.6 21 29.6 21.85 Q28.85 22.15 28.1 21.85 27.45 21.55 27.15 21 L27 20.75 Q26.7 20 27 19.25 27.4 18.25 28.25 17.5 29.8 16 32 16 34.25 16 35.8 17.55 L35.7 17.5 Q36.55 18.2 36.95 19.25 37.25 20 36.95 20.75 L36.85 21 35.9 21.85 Q35.1 22.15 34.35 21.85 33.7 21.6 33.35 21 L33.25 20.8 33 20.45 32.95 20.4 Q32.55 20 32 20 31.4 20 31 20.4 L30.95 20.45 30.7 20.8 M24.35 12.9 Q27.5 10 32 10 36.4 10 39.65 12.85 L39.65 12.9 Q40.95 14.05 41.75 15.5 42.15 16.2 41.95 17 41.7 17.8 41 18.2 L39.45 18.4 Q38.65 18.15 38.25 17.45 L37 15.85 36.95 15.85 Q34.85 14 32 14 29.1 14 27.05 15.85 26.25 16.55 25.75 17.45 L24.55 18.4 23.05 18.2 Q22.3 17.8 22.1 17 21.85 16.2 22.25 15.5 23.05 14.05 24.35 12.9"/>
    <path stroke="none" fill="#FCFCFC" d="M42.1 21 L42.75 21 Q45.95 21.05 48.7 23 51.4 25 52.4 28 L53.1 31.25 55.85 48.6 Q56.1 49.65 55.9 50.65 55.65 51.75 54.95 52.5 54.1 53.55 52.7 53.9 L50.1 53.65 Q49.5 53.45 48.85 52.85 L47.75 51.75 44.35 48.35 41 45 23 45 15.35 52.65 Q14.7 53.4 13.75 53.75 L11.85 53.95 Q10.15 53.85 9 52.45 7.85 51.05 8 49.4 L11.15 29.7 Q11.5 27.6 12.7 25.8 13.85 24 15.65 22.8 16.95 21.9 18.5 21.45 20.05 20.95 21.65 21 L21.95 21 Q22.95 21.5 24.1 21.5 L24.25 21.9 Q24.95 23.75 26.9 24.6 L27 24.65 Q28.85 25.35 30.75 24.65 L32 23.95 33.25 24.65 Q35.05 25.35 36.95 24.65 L37.2 24.6 Q39 23.7 39.75 21.9 L39.9 21.5 Q41 21.5 42.1 21 M48 34 Q48 33.15 47.4 32.55 46.85 32 46 32 45.15 32 44.55 32.55 44 33.15 44 34 44 34.85 44.55 35.4 45.15 36 46 36 46.85 36 47.4 35.4 48 34.85 48 34 M44 38 Q44 37.15 43.4 36.55 42.85 36 42 36 41.15 36 40.55 36.55 40 37.15 40 38 40 38.85 40.55 39.4 41.15 40 42 40 42.85 40 43.4 39.4 44 38.85 44 38 M44 30 Q44 29.15 43.4 28.55 42.85 28 42 28 41.15 28 40.55 28.55 40 29.15 40 30 40 30.85 40.55 31.4 41.15 32 42 32 42.85 32 43.4 31.4 44 30.85 44 30 M40 34 Q40 33.15 39.4 32.55 38.85 32 38 32 37.15 32 36.55 32.55 36 33.15 36 34 36 34.85 36.55 35.4 37.15 36 38 36 38.85 36 39.4 35.4 40 34.85 40 34 M20 28 L20 32 16 32 16 36 20 36 20 40 24 40 24 36 28 36 28 32 24 32 24 28 20 28"/>
  </g>
</svg>