<svg width="64" height="64" xmlns="http://www.w3.org/2000/svg" xmlns:xlink="http://www.w3.org/1999/xlink">
  <defs/>
  <g>
    <path stroke="none" fill="#FFFFFF" d="M59 8 L59 12 Q59 13.25 58.15 14.15 L40.25 32 58.15 49.9 Q59 50.75 59 52 L59 56 Q59 57.25 58.15 58.15 57.25 59 56 59 L52 59 Q50.75 59 49.9 58.15 L32 40.25 14.15 58.15 Q13.25 59 12 59 L8 59 Q6.75 59 5.9 58.15 5 57.25 5 56 L5 52 Q5 50.75 5.9 49.9 L23.75 32 5.9 14.15 Q5 13.25 5 12 L5 8 Q5 6.75 5.9 5.9 6.75 5 8 5 L12 5 Q13.25 5 14.15 5.9 L32 23.75 49.9 5.9 Q50.75 5 52 5 L56 5 Q57.25 5 58.15 5.9 59 6.75 59 8 M8 52 L8 56 12 56 32 36 52 56 56 56 56 52 36 32 56 12 56 8 52 8 32 28 12 8 8 8 8 12 28 32 8 52"/>
    <path stroke="none" fill="#E73246" d="M8 52 L28 32 8 12 8 8 12 8 32 28 52 8 56 8 56 12 36 32 56 52 56 56 52 56 32 36 12 56 8 56 8 52"/>
  </g>
</svg>