<svg width="64" height="64" xmlns="http://www.w3.org/2000/svg" xmlns:xlink="http://www.w3.org/1999/xlink">
  <defs/>
  <g>
    <path stroke="none" fill="#000000" d="M41 33 L45 33 Q45.9 33 46.6 33.45 L47 33.75 Q47.85 33 49 33 L53 33 Q54.25 33 55.15 33.9 56 34.75 56 36 L56 53 Q56 54.25 55.15 55.15 54.25 56 53 56 L49 56 Q47.75 56 46.9 55.15 L46.6 54.8 Q46 54.05 46 53 L46 49 42.95 49 Q40.95 49.05 39.45 47.55 38 46.1 38 44.05 L38 36 Q38 34.75 38.9 33.9 39.75 33 41 33 M53 36 L49 36 49 42 45 42 45 36 41 36 41 44.05 Q41 44.85 41.55 45.4 42.15 46 42.95 46 L49 46 49 53 53 53 53 36"/>
    <path stroke="none" fill="#FFFFFF" d="M53 36 L53 53 49 53 49 46 42.95 46 Q42.15 46 41.55 45.4 41 44.85 41 44.05 L41 36 45 36 45 42 49 42 49 36 53 36"/>
  </g>
</svg>