<svg width="64" height="64" xmlns="http://www.w3.org/2000/svg" xmlns:xlink="http://www.w3.org/1999/xlink">
  <defs/>
  <g>
    <path stroke="none" fill="#000000" d="M38 53 L38 49 38.25 47.85 38.95 46.8 41.95 44 41 44 Q39.75 44 38.9 43.15 38 42.25 38 41 L38.15 39.4 38.15 39.5 Q38.55 37.2 40.25 35.45 L40.3 35.4 40.4 35.3 40.45 35.25 Q42.65 33.1 45.8 33 L47.5 33 Q51 33 53.5 35.5 L53.55 35.55 55.05 37.6 55.2 37.95 Q57.05 42.85 54.05 46.2 54.65 46.4 55.15 46.9 56 47.75 56 49 L56 53 Q56 54.25 55.15 55.15 54.25 56 53 56 L45.95 56 45.85 56 41 56 Q39.75 56 38.9 55.15 38 54.25 38 53 M48.5 40.4 Q49.25 41.15 48 42.45 L41 49 41 53 45.85 53 45.95 53 53 53 53 49 47 49 51.45 44.55 Q53.65 42.35 52.4 39 L51.4 37.65 51.35 37.6 Q49.75 36 47.5 36 L45.85 36 Q43.9 36.05 42.5 37.4 L42.4 37.5 Q41.35 38.6 41.1 40 L41 41 45 41 Q45 40.6 45.3 40.3 L45.85 40 45.95 40 47.5 40 Q48.1 40 48.5 40.4"/>
    <path stroke="none" fill="#FFFFFF" d="M48.5 40.4 Q48.1 40 47.5 40 L45.95 40 45.85 40 45.3 40.3 Q45 40.6 45 41 L41 41 41.1 40 Q41.35 38.6 42.4 37.5 L42.5 37.4 Q43.9 36.05 45.85 36 L47.5 36 Q49.75 36 51.35 37.6 L51.4 37.65 52.4 39 Q53.65 42.35 51.45 44.55 L47 49 53 49 53 53 45.95 53 45.85 53 41 53 41 49 48 42.45 Q49.25 41.15 48.5 40.4"/>
  </g>
</svg>