<svg width="64" height="64" xmlns="http://www.w3.org/2000/svg" xmlns:xlink="http://www.w3.org/1999/xlink">
  <defs/>
  <g>
    <path stroke="none" fill="#FFFFFF" d="M32 35 L32 29 46.1 29 Q46.85 29 47.45 29.6 48 30.15 48 30.9 L48 35 38 50 50 50 50 45 Q50 44.25 50.55 43.65 51.05 43.1 51.85 43 52.6 42.95 53.25 43.4 L64.2 51.4 64.95 52.4 64.95 53.6 64.2 54.6 53.25 62.6 Q52.6 63.05 51.85 63 51.05 62.9 50.55 62.35 50 61.75 50 61 L50 56 31.95 56 Q31.15 56 30.55 55.4 30 54.85 30 54.05 L30 50 40 35 32 35"/>
  </g>
</svg>