<svg width="64" height="64" xmlns="http://www.w3.org/2000/svg" xmlns:xlink="http://www.w3.org/1999/xlink">
  <defs/>
  <g>
    <path stroke="none" fill="#000000" d="M56 41.2 L56 41.35 Q56.05 43.05 55.35 44.5 56.05 45.95 56 47.7 L56 47.85 Q56.1 51.3 52.95 53.95 L52.5 54.25 52.4 54.35 Q50.8 55.45 48.9 55.85 L47 56 Q43.5 55.95 41 53.9 38 51.45 38 48.1 L38 48 38 40.95 Q38 37.55 41 35.15 43.5 33.05 47 33 L48.9 33.2 Q50.8 33.55 52.4 34.7 L52.5 34.75 52.95 35.1 Q56.1 37.7 56 41.2 M53 47.75 Q53.05 45.9 51.75 44.5 53.05 43.1 53 41.25 53.05 39.05 51.05 37.4 L51.1 37.5 50.65 37.15 Q49.6 36.4 48.35 36.15 L47 36 Q44.6 36 42.9 37.45 41.05 38.95 41 41 L45.1 41 45.45 40.55 45.45 40.5 Q45.95 40.1 46.65 40.05 L47 40 Q47.9 40 48.5 40.5 L48.55 40.55 Q48.95 40.85 49 41.25 L48.6 42 47.8 42.45 47.5 42.5 47.15 42.5 45 42.5 45 46.5 47.15 46.5 47.5 46.55 47.7 46.55 47.8 46.6 48.6 47 49 47.75 48.55 48.45 48.5 48.5 Q47.9 49 47 49 L46.65 49 Q45.95 48.9 45.45 48.5 L45.45 48.45 45.1 48 41 48 Q41.05 50.05 42.9 51.55 44.6 53 47 53 L48.35 52.9 Q49.6 52.6 50.65 51.9 L51.1 51.5 51.05 51.6 Q53.05 49.95 53 47.75"/>
    <path stroke="none" fill="#FFFFFF" d="M53 47.75 Q53.05 49.95 51.05 51.6 L51.1 51.5 50.65 51.9 Q49.6 52.6 48.35 52.9 L47 53 Q44.6 53 42.9 51.55 41.05 50.05 41 48 L45.1 48 45.45 48.45 45.45 48.5 Q45.95 48.9 46.65 49 L47 49 Q47.9 49 48.5 48.5 L48.55 48.45 49 47.75 48.6 47 47.8 46.6 47.7 46.55 47.5 46.55 47.15 46.5 45 46.5 45 42.5 47.15 42.5 47.5 42.5 47.8 42.45 48.6 42 49 41.25 Q48.95 40.85 48.55 40.55 L48.5 40.5 Q47.9 40 47 40 L46.65 40.05 Q45.95 40.1 45.45 40.5 L45.45 40.55 45.1 41 41 41 Q41.05 38.95 42.9 37.45 44.6 36 47 36 L48.35 36.15 Q49.6 36.4 50.65 37.15 L51.1 37.5 51.05 37.4 Q53.05 39.05 53 41.25 53.05 43.1 51.75 44.5 53.05 45.9 53 47.75"/>
  </g>
</svg>