<svg width="64" height="64" xmlns="http://www.w3.org/2000/svg" xmlns:xlink="http://www.w3.org/1999/xlink">
  <defs/>
  <g>
    <path stroke="none" fill="#000000" fill-opacity="0.4980392156862745" d="M44.75 44.75 L44.75 44.7 Q50 39.45 50 32 50 24.55 44.7 19.25 39.45 14 32 14 24.55 14 19.25 19.25 14 24.55 14 32 14 39.45 19.25 44.7 24.55 50 32 50 39.45 50 44.7 44.75 L44.75 44.75 M48.95 48.95 Q41.95 56 32 56 22.05 56 15 48.95 8 41.95 8 32 8 22.05 15 15 22.05 8 32 8 41.95 8 48.95 15 56 22.05 56 32 56 41.95 48.95 48.95"/>
  </g>
</svg>