<svg width="64" height="64" xmlns="http://www.w3.org/2000/svg" xmlns:xlink="http://www.w3.org/1999/xlink">
  <defs/>
  <g>
    <path stroke="none" fill="#FFFFFF" d="M51.45 34.6 L52.5 35.5 52.65 35.7 53.5 36.7 Q56 39.8 56 44 56 49 52.5 52.5 49 56 44 56 39.8 56 36.65 53.55 L35.7 52.65 35.45 52.5 34.6 51.45 Q32 48.2 32 44 32 39.1 35.5 35.55 39.05 32 44 32 48.2 32 51.45 34.6 M47 40 Q47 38.75 46.1 37.85 45.25 37 44 37 42.75 37 41.85 37.85 41 38.75 41 40 41 41.25 41.85 42.1 42.75 43 44 43 45.25 43 46.1 42.1 47 41.25 47 40 M41 45 L41 52 47 52 47 45 41 45"/>
  </g>
</svg>