<svg width="64" height="64" xmlns="http://www.w3.org/2000/svg" xmlns:xlink="http://www.w3.org/1999/xlink">
  <defs/>
  <g>
    <path stroke="none" fill="#FFFFFF" d="M49 47 L50 47 50.65 46.9 51.4 46.45 51.45 46.4 51.75 46 52 45 Q52 44.2 51.4 43.6 50.8 43 50 43 L49 43 Q48.2 43 47.65 43.55 L47.55 43.65 Q47 44.2 47 45 47 45.8 47.6 46.4 48.2 47 49 47 M44.75 49.25 Q43 47.5 43 45 43 42.55 44.75 40.8 L44.8 40.75 Q46.55 39 49 39 L50 39 Q52.5 39 54.25 40.75 56 42.5 56 45 L55.9 46 55.85 46.35 52 56 47 56 49 51 Q46.5 51 44.75 49.25"/>
  </g>
</svg>