<svg width="64" height="64" xmlns="http://www.w3.org/2000/svg" xmlns:xlink="http://www.w3.org/1999/xlink">
  <defs/>
  <g>
    <path stroke="none" fill="#000000" d="M56 47 Q56 50.7 53.4 53.35 L53.35 53.4 Q50.7 56 47 56 L46 56 Q42.25 56 39.65 53.4 37 50.75 37 47 L37.1 45.95 37.15 45.85 37.15 45.7 37.15 45.6 37.15 45.45 37.25 44.95 37.4 44.55 41.25 34.9 Q41.55 34.05 42.35 33.55 43.1 33 44 33 L49 33 Q50 33 50.85 33.65 51.65 34.25 51.9 35.2 52.15 36.15 51.8 37.15 L51.05 38.95 Q52.3 39.55 53.4 40.65 56 43.25 56 47 M51.25 42.75 Q49.5 41 47 41 L49 36 44 36 40.15 45.65 40.1 46 40 47 Q40 49.5 41.75 51.25 43.5 53 46 53 L47 53 Q49.45 53 51.2 51.25 L51.25 51.2 Q53 49.45 53 47 53 44.5 51.25 42.75 M47 45 Q47.8 45 48.4 45.6 49 46.2 49 47 49 47.8 48.45 48.35 L48.35 48.45 Q47.8 49 47 49 L46 49 Q45.2 49 44.6 48.4 44 47.8 44 47 44 46.45 44.25 46 L44.55 45.6 44.6 45.55 Q44.95 45.25 45.35 45.1 L46 45 47 45"/>
    <path stroke="none" fill="#FFFFFF" d="M47 45 L46 45 45.35 45.1 Q44.95 45.25 44.6 45.55 L44.55 45.6 44.25 46 Q44 46.45 44 47 44 47.8 44.6 48.4 45.2 49 46 49 L47 49 Q47.8 49 48.35 48.45 L48.45 48.35 Q49 47.8 49 47 49 46.2 48.4 45.6 47.8 45 47 45 M51.25 42.75 Q53 44.5 53 47 53 49.45 51.25 51.2 L51.2 51.25 Q49.45 53 47 53 L46 53 Q43.5 53 41.75 51.25 40 49.5 40 47 L40.1 46 40.15 45.65 44 36 49 36 47 41 Q49.5 41 51.25 42.75"/>
  </g>
</svg>