<svg width="64" height="64" xmlns="http://www.w3.org/2000/svg" xmlns:xlink="http://www.w3.org/1999/xlink">
  <defs/>
  <g>
    <path stroke="none" fill="#000000" d="M62.65 28.7 Q64.05 30.15 64 32 64 34 62.6 35.3 L55.95 41.7 55.85 41.75 Q54.5 43 52.65 43 50.75 43 49.5 41.75 48 40.45 48 38.4 L48 25.6 Q47.95 23.75 49.4 22.3 50.65 21 52.65 21 54.5 21 55.85 22.2 L55.95 22.3 62.6 28.7 62.65 28.7 M60.5 33.15 Q61 32.7 61 32 61 31.35 60.5 30.85 L53.85 24.45 Q53.35 24 52.65 24 51.95 24 51.5 24.45 51 24.95 51 25.6 L51 38.4 Q51 39.1 51.5 39.55 51.95 40 52.65 40 L53.85 39.55 60.5 33.15 M1.35 28.7 L1.4 28.7 8.05 22.3 8.15 22.2 Q9.5 21 11.35 21 13.35 21 14.6 22.3 16.05 23.75 16 25.6 L16 38.4 Q16 40.45 14.5 41.75 13.25 43 11.35 43 9.5 43 8.15 41.75 L8.05 41.7 1.4 35.3 Q0 34 0 32 -0.05 30.15 1.35 28.7 M3.5 33.15 L10.15 39.55 Q10.65 40 11.35 40 L12.5 39.55 Q13 39.1 13 38.4 L13 25.6 Q13 24.95 12.5 24.45 12.05 24 11.35 24 10.65 24 10.15 24.45 L3.5 30.85 Q3 31.35 3 32 3 32.7 3.5 33.15"/>
    <path stroke="none" fill="#FFFFFF" d="M3.5 33.15 Q3 32.7 3 32 3 31.35 3.5 30.85 L10.15 24.45 Q10.65 24 11.35 24 12.05 24 12.5 24.45 13 24.95 13 25.6 L13 38.4 Q13 39.1 12.5 39.55 L11.35 40 Q10.65 40 10.15 39.55 L3.5 33.15 M60.5 33.15 L53.85 39.55 52.65 40 Q51.95 40 51.5 39.55 51 39.1 51 38.4 L51 25.6 Q51 24.95 51.5 24.45 51.95 24 52.65 24 53.35 24 53.85 24.45 L60.5 30.85 Q61 31.35 61 32 61 32.7 60.5 33.15"/>
  </g>
</svg>