<svg width="64" height="64" xmlns="http://www.w3.org/2000/svg" xmlns:xlink="http://www.w3.org/1999/xlink">
  <defs/>
  <g>
    <path stroke="none" fill="#FFFFFF" d="M51.5 51.6 L51.6 51.5 Q52 51.1 52 50.5 52 49.9 51.55 49.45 51.1 49 50.55 49 L48.5 49 Q47.9 49 47.45 49.45 47 49.9 47 50.5 47 51.1 47.4 51.5 L47.5 51.6 Q47.9 52 48.5 52 L50.5 52 Q51.1 52 51.5 51.6 M48 45 L51 45 Q51.4 45 51.7 44.7 L52 44 51.7 43.3 Q51.4 43 51.05 43 L47.95 43 Q47.6 43 47.3 43.3 47 43.6 47 44 L47.3 44.7 48 45 M50.5 56 L48.5 56 Q46.25 56 44.65 54.4 L44.6 54.35 Q43.2 52.95 43 51 L43 50.5 Q43 48.6 44.1 47.2 43 45.85 43 44 43 41.95 44.4 40.5 L44.5 40.4 Q45.45 39.5 46.65 39.2 L47.95 39 51.05 39 Q53.05 39 54.5 40.4 L54.6 40.5 Q56 41.95 56 44 56 45.85 54.9 47.2 56 48.6 56 50.5 L56 51 Q55.8 52.95 54.4 54.35 L54.35 54.4 Q52.75 56 50.5 56"/>
  </g>
</svg>