<svg width="64" height="64" xmlns="http://www.w3.org/2000/svg" xmlns:xlink="http://www.w3.org/1999/xlink">
  <defs/>
  <g>
    <path stroke="none" fill="#FFFFFF" d="M46 44 L47 44 47.65 43.9 48.4 43.45 48.45 43.4 48.75 43 49 42 Q49 41.2 48.4 40.6 47.8 40 47 40 L46 40 Q45.2 40 44.65 40.55 L44.55 40.65 Q44 41.2 44 42 44 42.8 44.6 43.4 45.2 44 46 44 M41.75 46.25 Q40 44.5 40 42 40 39.55 41.75 37.8 L41.8 37.75 Q43.55 36 46 36 L47 36 Q49.5 36 51.25 37.75 53 39.5 53 42 L52.9 43 52.85 43.35 49 53 44 53 46 48 Q43.5 48 41.75 46.25"/>
    <path stroke="none" fill="#000000" d="M41.75 46.25 Q43.5 48 46 48 L44 53 49 53 52.85 43.35 52.9 43 53 42 Q53 39.5 51.25 37.75 49.5 36 47 36 L46 36 Q43.55 36 41.8 37.75 L41.75 37.8 Q40 39.55 40 42 40 44.5 41.75 46.25 M56 42 L55.9 43.3 55.85 43.45 55.85 43.55 55.75 44.1 55.65 44.45 51.8 54.1 50.7 55.5 Q49.9 56 49 56 L44 56 Q43 56 42.2 55.4 41.35 54.75 41.1 53.8 40.85 52.85 41.25 51.9 L41.95 50.1 39.65 48.4 Q37 45.75 37 42 37 38.3 39.65 35.7 L39.7 35.65 Q42.3 33 46 33 L47 33 Q50.75 33 53.4 35.65 56 38.25 56 42 M46 44 Q45.2 44 44.6 43.4 44 42.8 44 42 44 41.2 44.55 40.65 L44.65 40.55 Q45.2 40 46 40 L47 40 Q47.8 40 48.4 40.6 49 41.2 49 42 L48.75 43 48.45 43.4 48.4 43.45 47.65 43.9 47 44 46 44"/>
  </g>
</svg>