<svg width="64" height="64" xmlns="http://www.w3.org/2000/svg" xmlns:xlink="http://www.w3.org/1999/xlink">
  <defs/>
  <g>
    <path stroke="none" fill="#000000" d="M53.65 35.3 L53.75 35.4 53.75 35.45 Q56 37.75 56 41 56 42.75 55.35 44.25 56 45.75 56 47.5 L56 48 56 48.3 Q55.7 51.3 53.55 53.5 L53.5 53.55 Q51 56 47.5 56 L45.5 56 Q42 56 39.55 53.55 L39.5 53.5 Q37.3 51.3 37.05 48.3 L37 48 37 47.5 Q37 45.75 37.65 44.25 37 42.75 37 41 37 37.75 39.25 35.45 L39.3 35.4 39.4 35.3 39.45 35.25 Q40.95 33.75 42.95 33.3 L42.7 33.35 44.95 33 48.05 33 Q51.25 33 53.6 35.25 L53.65 35.3 M47.5 53 Q49.75 53 51.35 51.4 L51.4 51.35 Q52.8 49.95 53 48 L53 47.5 Q53 45.6 51.9 44.2 53 42.85 53 41 53 38.95 51.6 37.5 L51.5 37.4 Q50.05 36 48.05 36 L44.95 36 43.65 36.2 Q42.45 36.5 41.5 37.4 L41.4 37.5 Q40 38.95 40 41 40 42.85 41.1 44.2 40 45.6 40 47.5 L40 48 Q40.2 49.95 41.6 51.35 L41.65 51.4 Q43.25 53 45.5 53 L47.5 53 M46.45 40 L46.5 40.1 46.55 40 48.05 40 Q48.4 40 48.7 40.3 L49 41 48.7 41.7 Q48.4 42 48 42 L45 42 Q44.6 42 44.3 41.7 44 41.4 44 41 44 40.6 44.3 40.3 44.6 40 44.95 40 L46.45 40 M48.5 48.6 Q48.1 49 47.5 49 L45.5 49 Q44.9 49 44.5 48.6 L44.4 48.5 Q44 48.1 44 47.5 44 46.9 44.45 46.45 44.9 46 45.5 46 L47.55 46 Q48.1 46 48.55 46.45 49 46.9 49 47.5 49 48.1 48.6 48.5 L48.5 48.6 M46.5 48.5 L46.5 48.45 Q46.2 48.35 46.4 48.55 L46.5 48.5"/>
    <path stroke="none" fill="#FFFFFF" d="M47.5 53 L45.5 53 Q43.25 53 41.65 51.4 L41.6 51.35 Q40.2 49.95 40 48 L40 47.5 Q40 45.6 41.1 44.2 40 42.85 40 41 40 38.95 41.4 37.5 L41.5 37.4 Q42.45 36.5 43.65 36.2 L44.95 36 48.05 36 Q50.05 36 51.5 37.4 L51.6 37.5 Q53 38.95 53 41 53 42.85 51.9 44.2 53 45.6 53 47.5 L53 48 Q52.8 49.95 51.4 51.35 L51.35 51.4 Q49.75 53 47.5 53 M46.45 40 L44.95 40 Q44.6 40 44.3 40.3 44 40.6 44 41 44 41.4 44.3 41.7 44.6 42 45 42 L48 42 Q48.4 42 48.7 41.7 L49 41 48.7 40.3 Q48.4 40 48.05 40 L46.55 40 46.45 40 M48.5 48.6 L48.6 48.5 Q49 48.1 49 47.5 49 46.9 48.55 46.45 48.1 46 47.55 46 L45.5 46 Q44.9 46 44.45 46.45 44 46.9 44 47.5 44 48.1 44.4 48.5 L44.5 48.6 Q44.9 49 45.5 49 L47.5 49 Q48.1 49 48.5 48.6"/>
  </g>
</svg>