<svg width="64" height="64" xmlns="http://www.w3.org/2000/svg" xmlns:xlink="http://www.w3.org/1999/xlink">
  <defs/>
  <g>
    <path stroke="none" fill="#FFFFFF" d="M51.5 51.6 L51.6 51.5 Q52 51.1 52 50.5 52 49.9 51.55 49.45 51.1 49 50.5 49 L43 49 43 39 56 39 56 43 47 43 47 45 50.5 45 Q52.8 45 54.4 46.6 56 48.2 56 50.5 L56 51 Q55.8 52.95 54.4 54.35 L54.35 54.4 Q52.75 56 50.5 56 L47.85 56 Q45.9 55.95 44.5 54.6 L44.4 54.5 Q43.35 53.4 43.1 52 L43 51 47 51 47.3 51.7 Q47.6 52 47.95 52 L50.5 52 Q51.1 52 51.5 51.6"/>
  </g>
</svg>