<svg width="64" height="64" xmlns="http://www.w3.org/2000/svg" xmlns:xlink="http://www.w3.org/1999/xlink">
  <defs/>
  <g>
    <path stroke="none" fill="#FFFFFF" d="M12.6 18.1 L20.6 28.8 Q21.05 29.45 21 30.2 L20.35 31.45 Q19.75 32 19 32 L14 32 Q14 39.45 19.3 44.75 24.55 50 32 50 39.45 50 44.75 44.75 50 39.45 50 32 50 24.55 44.75 19.3 40.55 15.1 35 14.2 L35 32 29 32 29 8.15 31.4 8 32.55 8 35 8.15 Q43.05 9.1 49 15.05 56 22.05 56 32 56 41.95 49 49 41.95 56 32 56 22.05 56 15.05 49 8 41.95 8 32 L3 32 Q2.25 32 1.65 31.45 1.1 30.95 1 30.2 0.95 29.45 1.4 28.8 L9.4 18.1 Q9.8 17.6 10.4 17.4 11 17.25 11.6 17.4 12.2 17.6 12.6 18.1"/>
  </g>
</svg>