<svg width="64" height="64" xmlns="http://www.w3.org/2000/svg" xmlns:xlink="http://www.w3.org/1999/xlink">
  <defs/>
  <g>
    <path stroke="none" fill="#FFFFFF" d="M56 32 Q56 23.6 51 17.3 L49 15.05 48.95 15 46.75 13.05 Q40.4 8 32 8 22.05 8 15 15 8 22.05 8 32 8 40.4 13.05 46.75 L15 48.95 15.05 49 17.3 51 Q23.6 56 32 56 41.95 56 48.95 48.95 56 41.95 56 32 M32 5 Q41.45 5 48.65 10.7 L48.6 10.7 51.1 12.9 51.15 12.95 53.35 15.45 Q59 22.55 59 32 59 43.2 51.1 51.1 43.2 59 32 59 22.55 59 15.45 53.35 L12.95 51.15 12.9 51.1 10.7 48.6 10.7 48.65 Q5 41.45 5 32 5 20.8 12.9 12.9 20.8 5 32 5 M32 50 Q26.1 50 21.6 46.7 L46.7 21.6 Q50 26.1 50 32 50 39.45 44.75 44.7 L44.7 44.75 Q39.45 50 32 50 M42.65 42.6 Q47 38.2 47 32 47 29.05 46.05 26.55 L26.55 46.05 Q29.05 47 32 47 38.2 47 42.6 42.65 L42.65 42.6 M37.55 18 Q34.95 17 32 17 25.8 17 21.4 21.35 L21.35 21.4 Q17 25.8 17 32 17 34.95 18 37.55 L37.55 18 M32 14 Q37.9 14 42.45 17.3 L17.3 42.45 Q14 37.9 14 32 14 24.55 19.25 19.25 24.55 14 32 14"/>
    <path stroke="none" fill="#E73246" d="M32 14 Q24.55 14 19.25 19.25 14 24.55 14 32 14 37.9 17.3 42.45 L42.45 17.3 Q37.9 14 32 14 M56 32 Q56 41.95 48.95 48.95 41.95 56 32 56 23.6 56 17.3 51 L15.05 49 15 48.95 13.05 46.75 Q8 40.4 8 32 8 22.05 15 15 22.05 8 32 8 40.4 8 46.75 13.05 L48.95 15 49 15.05 51 17.3 Q56 23.6 56 32 M32 50 Q39.45 50 44.7 44.75 L44.75 44.7 Q50 39.45 50 32 50 26.1 46.7 21.6 L21.6 46.7 Q26.1 50 32 50"/>
  </g>
</svg>