<svg width="64" height="64" xmlns="http://www.w3.org/2000/svg" xmlns:xlink="http://www.w3.org/1999/xlink">
  <defs/>
  <g>
    <path stroke="none" fill="#FFFFFF" d="M38.15 29.9 L44 35.75 49.9 29.9 Q50.75 29 52 29 L56 29 Q57.25 29 58.15 29.9 59 30.75 59 32 L59 36 Q59 37.25 58.15 38.15 L52.25 44 58.15 49.9 Q59 50.75 59 52 L59 56 Q59 57.25 58.15 58.15 57.25 59 56 59 L52 59 Q50.75 59 49.9 58.15 L44 52.25 38.15 58.15 Q37.25 59 36 59 L32 59 Q30.75 59 29.9 58.15 29 57.25 29 56 L29 52 Q29 50.75 29.9 49.9 L35.75 44 29.9 38.15 Q29 37.25 29 36 L29 32 Q29 30.75 29.9 29.9 30.75 29 32 29 L36 29 Q37.25 29 38.15 29.9 M32 32 L32 36 40 44 32 52 32 56 36 56 44 48 52 56 56 56 56 52 48 44 56 36 56 32 52 32 44 40 36 32 32 32"/>
    <path stroke="none" fill="#E73246" d="M32 32 L36 32 44 40 52 32 56 32 56 36 48 44 56 52 56 56 52 56 44 48 36 56 32 56 32 52 40 44 32 36 32 32"/>
  </g>
</svg>