<svg width="64" height="64" xmlns="http://www.w3.org/2000/svg" xmlns:xlink="http://www.w3.org/1999/xlink">
  <defs/>
  <g>
    <path stroke="none" fill="#FFFFFF" d="M32 8 Q38.7 8 44.1 11.2 L41.05 16.4 Q37.05 14 32 14 27 14 22.95 16.4 L19.95 11.2 Q25.3 8 32 8 M56 32 Q56 38.65 52.85 44 L47.65 41 Q50 37 50 32 50 27 47.65 23 L52.85 20 Q56 25.3 56 32 M32 56 Q25.35 56 20 52.85 L23 47.65 Q27 50 32 50 37 50 41.05 47.65 L44.05 52.85 Q38.7 56 32 56 M8 32 Q8 25.3 11.2 19.95 L16.4 22.95 16 23.65 Q14 27.4 14 32 14 36.6 16 40.35 L16.4 41 11.15 44.05 Q8 38.65 8 32"/>
  </g>
</svg>