<svg width="64" height="64" xmlns="http://www.w3.org/2000/svg" xmlns:xlink="http://www.w3.org/1999/xlink">
  <defs/>
  <g>
    <path stroke="none" fill="#FFFFFF" d="M50.95 38.05 Q53 40.15 53 43 L53 46 Q53 48.85 50.95 50.9 L50.9 50.95 Q48.85 53 46 53 43.15 53 41.05 50.95 39 48.9 39 46 L39 43 Q39 40.15 41 38.05 L41.05 38 Q43.15 36 46 36 48.9 36 50.95 38.05 M46 40 Q44.8 40 43.9 40.85 L43.85 40.9 Q43 41.8 43 43 L43 46 Q43 47.2 43.9 48.1 44.75 49 46 49 47.2 49 48.05 48.1 L48.1 48.05 Q49 47.2 49 46 L49 43 Q49 41.75 48.1 40.9 47.2 40 46 40"/>
    <path stroke="none" fill="#000000" d="M46 40 Q47.2 40 48.1 40.9 49 41.75 49 43 L49 46 Q49 47.2 48.1 48.05 L48.05 48.1 Q47.2 49 46 49 44.75 49 43.9 48.1 43 47.2 43 46 L43 43 Q43 41.8 43.85 40.9 L43.9 40.85 Q44.8 40 46 40 M50.95 38.05 Q48.9 36 46 36 43.15 36 41.05 38 L41 38.05 Q39 40.15 39 43 L39 46 Q39 48.9 41.05 50.95 43.15 53 46 53 48.85 53 50.9 50.95 L50.95 50.9 Q53 48.85 53 46 L53 43 Q53 40.15 50.95 38.05 M39.7 35.2 Q42.45 33 46 33 50.15 33 53.1 35.95 56 38.95 56 43 L56 46 Q56 49.6 53.75 52.3 53.35 53.35 52.3 53.75 49.6 56 46 56 41.95 56 38.95 53.1 36 50.15 36 46 L36 43 Q36 39.45 38.2 36.7 38.6 35.6 39.7 35.2"/>
  </g>
</svg>