<svg width="64" height="64" xmlns="http://www.w3.org/2000/svg" xmlns:xlink="http://www.w3.org/1999/xlink">
  <defs/>
  <g>
    <path stroke="none" fill="#FFFFFF" d="M53.95 41.05 Q56 43.15 56 46 L56 49 Q56 51.85 53.95 53.9 L53.9 53.95 Q51.85 56 49 56 46.15 56 44.05 53.95 42 51.9 42 49 L42 46 Q42 43.15 44 41.05 L44.05 41 Q46.15 39 49 39 51.9 39 53.95 41.05 M49 43 Q47.8 43 46.9 43.85 L46.85 43.9 Q46 44.8 46 46 L46 49 Q46 50.2 46.9 51.1 47.75 52 49 52 50.2 52 51.05 51.1 L51.1 51.05 Q52 50.2 52 49 L52 46 Q52 44.75 51.1 43.9 50.2 43 49 43"/>
  </g>
</svg>