<svg width="64" height="64" xmlns="http://www.w3.org/2000/svg" xmlns:xlink="http://www.w3.org/1999/xlink">
  <defs/>
  <g>
    <path stroke="none" fill="#E73246" d="M51.45 34.6 L52.5 35.5 52.65 35.7 53.5 36.7 Q56 39.8 56 44 56 49 52.5 52.5 49 56 44 56 39.8 56 36.65 53.55 L35.7 52.65 35.45 52.5 34.6 51.45 Q32 48.2 32 44 32 39.1 35.5 35.55 39.05 32 44 32 48.2 32 51.45 34.6 M51.4 44 Q51.4 42.15 50.65 40.7 L40.7 50.65 Q42.15 51.4 44 51.4 47.1 51.4 49.2 49.3 L49.25 49.25 Q51.4 47.1 51.4 44 M36.6 44 Q36.6 45.85 37.4 47.4 L47.35 37.4 Q45.85 36.65 44 36.65 40.95 36.65 38.8 38.8 36.6 40.95 36.6 44"/>
  </g>
</svg>