<svg width="64" height="64" xmlns="http://www.w3.org/2000/svg" xmlns:xlink="http://www.w3.org/1999/xlink">
  <defs/>
  <g>
    <path stroke="none" fill="#FFFFFF" d="M32 14 L32 8 32.65 8 Q42.15 8.2 48.95 15 L49 15.05 Q56 22.05 56 32 56 41.95 48.95 48.95 41.95 56 32 56 L32 50 Q39.45 50 44.7 44.75 L44.75 44.75 44.75 44.7 Q50 39.45 50 32 50 24.55 44.75 19.3 L44.7 19.25 Q39.45 14 32 14"/>
    <path stroke="none" fill="#000000" fill-opacity="0.4980392156862745" d="M32 14 Q24.55 14 19.25 19.25 14 24.55 14 32 14 39.45 19.25 44.7 L19.3 44.75 Q24.55 50 32 50 L32 56 Q22.05 56 15.05 49 L15 48.95 Q8 41.95 8 32 8 22.05 15 15 21.85 8.2 31.4 8 L32 8 32 14"/>
  </g>
</svg>