<svg width="64" height="64" xmlns="http://www.w3.org/2000/svg" xmlns:xlink="http://www.w3.org/1999/xlink">
  <defs/>
  <g>
    <path stroke="none" fill="#E73246" d="M32 14 Q24.55 14 19.25 19.25 14 24.55 14 32 14 37.9 17.3 42.45 L42.45 17.3 Q37.9 14 32 14 M56 32 Q56 41.95 48.95 48.95 41.95 56 32 56 23.6 56 17.3 51 L15.05 49 15 48.95 13.05 46.75 Q8 40.4 8 32 8 22.05 15 15 22.05 8 32 8 40.4 8 46.75 13.05 L48.95 15 49 15.05 51 17.3 Q56 23.6 56 32 M32 50 Q39.45 50 44.7 44.75 L44.75 44.7 Q50 39.45 50 32 50 26.1 46.7 21.6 L21.6 46.7 Q26.1 50 32 50"/>
  </g>
</svg>