<svg width="64" height="64" xmlns="http://www.w3.org/2000/svg" xmlns:xlink="http://www.w3.org/1999/xlink">
  <defs/>
  <g>
    <path stroke="none" fill="#FFFFFF" d="M50 48 L49 48 48.35 48.1 Q47.95 48.25 47.6 48.55 L47.55 48.6 47.25 49 Q47 49.45 47 50 47 50.8 47.6 51.4 48.2 52 49 52 L50 52 Q50.8 52 51.35 51.45 L51.45 51.35 Q52 50.8 52 50 52 49.2 51.4 48.6 50.8 48 50 48 M54.25 45.75 Q56 47.5 56 50 56 52.45 54.25 54.2 L54.2 54.25 Q52.45 56 50 56 L49 56 Q46.5 56 44.75 54.25 43 52.5 43 50 L43.1 49 43.15 48.65 47 39 52 39 50 44 Q52.5 44 54.25 45.75"/>
  </g>
</svg>