<svg width="64" height="64" xmlns="http://www.w3.org/2000/svg" xmlns:xlink="http://www.w3.org/1999/xlink">
  <defs/>
  <g>
    <path stroke="none" fill="#000000" d="M53 36 L53 53 Q53 54.25 52.15 55.15 51.25 56 50 56 L46 56 Q44.75 56 43.9 55.15 43 54.25 43 53 L43 45.95 43 45.85 43 43.95 Q41.75 43.95 40.9 43.1 40 42.2 40 40.95 L40 39 Q40 37.75 40.9 36.9 L43.9 33.9 Q44.75 33 46 33 L50 33 Q51.25 33 52.15 33.9 53 34.75 53 36 M50 36 L46 36 43 39 43 40.95 46 40.95 46 45.85 46 45.95 46 53 50 53 50 36"/>
    <path stroke="none" fill="#FFFFFF" d="M50 36 L50 53 46 53 46 45.95 46 45.85 46 40.95 43 40.95 43 39 46 36 50 36"/>
  </g>
</svg>