<svg width="64" height="64" xmlns="http://www.w3.org/2000/svg" xmlns:xlink="http://www.w3.org/1999/xlink">
  <defs/>
  <g>
    <path stroke="none" fill="#FFFFFF" d="M29 8 L32.55 8 35 8.2 Q43.05 9.1 49 15 56 22.05 56 32 56 41.95 49 48.95 41.95 56 32 56 L32 61 Q32 61.75 31.45 62.35 30.95 62.9 30.2 63 29.45 63.05 28.8 62.6 L18.1 54.6 Q17.6 54.2 17.4 53.6 17.25 53 17.4 52.4 17.6 51.8 18.1 51.4 L28.8 43.4 Q29.45 42.95 30.2 43 30.95 43.1 31.45 43.65 32 44.25 32 45 L32 50 Q39.45 50 44.75 44.7 50 39.45 50 32 50 24.55 44.75 19.25 40.55 15.1 35 14.25 L35 32 29 32 29 8"/>
  </g>
</svg>