<svg width="64" height="64" xmlns="http://www.w3.org/2000/svg" xmlns:xlink="http://www.w3.org/1999/xlink">
  <defs/>
  <g>
    <path stroke="none" fill="#000000" d="M56 36 L56 40 Q56 41.25 55.15 42.15 L54.5 42.65 Q56 44.75 56 47.5 L56 48 56 48.3 Q55.7 51.3 53.55 53.5 L53.5 53.55 Q51 56 47.5 56 L44.8 56 Q41.65 55.9 39.45 53.75 L39.4 53.75 39.3 53.65 39.25 53.6 Q37.55 51.8 37.15 49.55 L37.15 49.6 37 48 37 36 Q37 34.75 37.9 33.9 38.75 33 40 33 L53 33 Q54.25 33 55.15 33.9 56 34.75 56 36 M48.5 48.6 Q48.1 49 47.5 49 L44.95 49 Q44.6 49 44.3 48.7 44 48.4 44 48 L40 48 40.1 49 Q40.35 50.4 41.4 51.5 L41.5 51.6 Q42.9 52.95 44.85 53 L47.5 53 Q49.75 53 51.35 51.4 L51.4 51.35 Q52.8 49.95 53 48 L53 47.5 Q53 45.2 51.4 43.6 L50.7 43 Q49.9 42.45 49 42.2 L47.5 42 44 42 44 40 53 40 53 36 40 36 40 46 47.5 46 Q48.1 46 48.55 46.45 49 46.9 49 47.5 49 48.1 48.6 48.5 L48.5 48.6"/>
    <path stroke="none" fill="#FFFFFF" d="M48.5 48.6 L48.6 48.5 Q49 48.1 49 47.5 49 46.9 48.55 46.45 48.1 46 47.5 46 L40 46 40 36 53 36 53 40 44 40 44 42 47.5 42 49 42.2 Q49.9 42.45 50.7 43 L51.4 43.6 Q53 45.2 53 47.5 L53 48 Q52.8 49.95 51.4 51.35 L51.35 51.4 Q49.75 53 47.5 53 L44.85 53 Q42.9 52.95 41.5 51.6 L41.4 51.5 Q40.35 50.4 40.1 49 L40 48 44 48 Q44 48.4 44.3 48.7 44.6 49 44.95 49 L47.5 49 Q48.1 49 48.5 48.6"/>
  </g>
</svg>