<svg width="64" height="64" xmlns="http://www.w3.org/2000/svg" xmlns:xlink="http://www.w3.org/1999/xlink">
  <defs/>
  <g>
    <path stroke="none" fill="#000000" d="M51.45 34.6 Q48.2 32 44 32 39.05 32 35.5 35.55 32 39.1 32 44 32 48.2 34.6 51.45 L35.45 52.5 35.7 52.65 36.65 53.55 Q39.8 56 44 56 49 56 52.5 52.5 56 49 56 44 56 39.8 53.5 36.7 L52.65 35.7 52.5 35.5 51.45 34.6 M53.35 32.25 L54.2 33 55.2 34 55.95 34.95 55.85 34.85 Q59 38.7 59 44 59 50.25 54.65 54.65 50.25 59 44 59 38.75 59 34.8 55.95 L34.75 55.9 33.85 55.05 33.35 54.65 33.15 54.4 32.25 53.35 Q29 49.25 29 44 29 37.9 33.4 33.45 37.8 29 44 29 49.25 29 53.35 32.25 M37.6 46.45 Q37 45.85 37 45 37 44.15 37.6 43.6 38.15 43 39 43 39.85 43 40.45 43.6 L42.8 45.95 47.4 39.8 Q47.9 39.15 48.75 39.05 49.55 38.9 50.2 39.4 50.85 39.9 51 40.75 51.1 41.55 50.6 42.2 L44.6 50.2 Q44.25 50.65 43.7 50.9 L42.6 50.95 Q42 50.85 41.6 50.45 L37.6 46.45"/>
    <path stroke="none" fill="#FFFFFF" d="M37.6 46.45 L41.6 50.45 Q42 50.85 42.6 50.95 L43.7 50.9 Q44.25 50.65 44.6 50.2 L50.6 42.2 Q51.1 41.55 51 40.75 50.85 39.9 50.2 39.4 49.55 38.9 48.75 39.05 47.9 39.15 47.4 39.8 L42.8 45.95 40.45 43.6 Q39.85 43 39 43 38.15 43 37.6 43.6 37 44.15 37 45 37 45.85 37.6 46.45 M51.45 34.6 L52.5 35.5 52.65 35.7 53.5 36.7 Q56 39.8 56 44 56 49 52.5 52.5 49 56 44 56 39.8 56 36.65 53.55 L35.7 52.65 35.45 52.5 34.6 51.45 Q32 48.2 32 44 32 39.1 35.5 35.55 39.05 32 44 32 48.2 32 51.45 34.6"/>
  </g>
</svg>