<svg width="64" height="64" xmlns="http://www.w3.org/2000/svg" xmlns:xlink="http://www.w3.org/1999/xlink">
  <defs/>
  <g>
    <path stroke="none" fill="#FFFFFF" d="M50 50 L44 44 44 42 47.7 42 Q47.25 40.75 46.3 39.75 L46.3 39.8 Q44.5 38 42 38 39.5 38 37.8 39.75 L37.8 39.8 Q36 41.55 36 44 36 46.5 37.8 48.3 39.5 50 42 50 42.85 50 43.45 50.6 44 51.15 44 52 44 52.85 43.45 53.45 42.85 54 42 54 37.8 54 34.95 51.15 32 48.2 32 44 32 39.85 34.95 36.95 37.8 34 42 34 46.2 34 49.15 36.95 51.3 39.15 51.85 42 L56 42 56 44 50 50"/>
  </g>
</svg>