<svg width="64" height="64" xmlns="http://www.w3.org/2000/svg" xmlns:xlink="http://www.w3.org/1999/xlink">
  <defs/>
  <g>
    <path stroke="none" fill="#000000" d="M47.8 3 L56.15 3 Q58.05 3 59.45 4.35 L59.55 4.45 Q61 5.8 61 7.8 L61 16.15 Q61 18.15 59.55 19.6 58.15 21 56.15 21 54.25 21.05 52.75 19.6 L44.4 11.2 Q43 9.8 43 7.8 43 5.85 44.3 4.55 L44.5 4.35 Q45.85 3 47.8 3 M46.55 9.05 L54.9 17.45 Q55.45 18 56.15 18 56.9 18 57.45 17.45 58 16.9 58 16.15 L58 7.8 Q58 7.05 57.45 6.55 56.9 6 56.15 6 L47.8 6 Q47.05 6 46.55 6.55 46 7.05 46 7.8 46 8.55 46.55 9.05 M16.2 61 L7.85 61 Q5.95 61 4.55 59.65 L4.45 59.55 Q3 58.2 3 56.2 L3 47.85 Q3 45.85 4.45 44.4 5.85 43 7.85 43 9.75 42.95 11.25 44.4 L19.6 52.8 Q21 54.2 21 56.2 21 58.15 19.7 59.45 L19.5 59.65 Q18.15 61 16.2 61 M17.45 54.95 L9.1 46.55 Q8.55 46 7.85 46 7.1 46 6.55 46.55 6 47.1 6 47.85 L6 56.2 Q6 56.95 6.55 57.45 7.1 58 7.85 58 L16.2 58 Q16.95 58 17.45 57.45 18 56.95 18 56.2 18 55.45 17.45 54.95"/>
    <path stroke="none" fill="#FFFFFF" d="M17.45 54.95 Q18 55.45 18 56.2 18 56.95 17.45 57.45 16.95 58 16.2 58 L7.85 58 Q7.1 58 6.55 57.45 6 56.95 6 56.2 L6 47.85 Q6 47.1 6.55 46.55 7.1 46 7.85 46 8.55 46 9.1 46.55 L17.45 54.95 M46.55 9.05 Q46 8.55 46 7.8 46 7.05 46.55 6.55 47.05 6 47.8 6 L56.15 6 Q56.9 6 57.45 6.55 58 7.05 58 7.8 L58 16.15 Q58 16.9 57.45 17.45 56.9 18 56.15 18 55.45 18 54.9 17.45 L46.55 9.05"/>
  </g>
</svg>