<svg width="64" height="64" xmlns="http://www.w3.org/2000/svg" xmlns:xlink="http://www.w3.org/1999/xlink">
  <defs/>
  <g>
    <path stroke="none" fill="#FFFFFF" d="M50 50 L44 44 44 42 47.7 42 Q47.25 40.75 46.3 39.75 L46.3 39.8 Q44.5 38 42 38 39.5 38 37.8 39.75 L37.8 39.8 Q36 41.55 36 44 36 46.5 37.8 48.3 39.5 50 42 50 42.85 50 43.45 50.6 44 51.15 44 52 44 52.85 43.45 53.45 42.85 54 42 54 37.8 54 34.95 51.15 32 48.2 32 44 32 39.85 34.95 36.95 37.8 34 42 34 46.2 34 49.15 36.95 51.3 39.15 51.85 42 L56 42 56 44 50 50"/>
    <path stroke="none" fill="#000000" d="M50 50 L56 44 56 42 51.85 42 Q51.3 39.15 49.15 36.95 46.2 34 42 34 37.8 34 34.95 36.95 32 39.85 32 44 32 48.2 34.95 51.15 37.8 54 42 54 42.85 54 43.45 53.45 44 52.85 44 52 44 51.15 43.45 50.6 42.85 50 42 50 39.5 50 37.8 48.3 36 46.5 36 44 36 41.55 37.8 39.8 L37.8 39.75 Q39.5 38 42 38 44.5 38 46.3 39.8 L46.3 39.75 Q47.25 40.75 47.7 42 L44 42 44 44 50 50 M59 42 L59 44 Q59 45.25 58.15 46.15 L52.15 52.15 Q51.25 53 50 53 48.75 53 47.9 52.15 L46.95 51.2 47 52 Q47 54.05 45.65 55.5 L45.5 55.65 Q44.05 57 42 57 36.55 57 32.85 53.3 29 49.45 29 44 29 38.6 32.85 34.8 L32.8 34.9 Q36.5 31 42 31 47.45 31 51.3 34.85 53.15 36.75 54.1 39 L56 39 Q57.25 39 58.15 39.9 59 40.75 59 42"/>
  </g>
</svg>