<svg width="64" height="64" xmlns="http://www.w3.org/2000/svg" xmlns:xlink="http://www.w3.org/1999/xlink">
  <defs/>
  <g>
    <path stroke="none" fill="#FFFFFF" d="M56 50.75 Q56.05 52.95 54.05 54.6 L54.1 54.5 Q52.4 56 50 56 47.6 56 45.9 54.55 44.05 53.05 44 51 L48.1 51 48.45 51.45 48.45 51.5 Q49.1 52 50 52 50.9 52 51.5 51.5 L51.55 51.45 52 50.75 51.6 50 Q51.2 49.65 50.7 49.55 L50.15 49.5 48 49.5 48 45.5 50.15 45.5 Q51 45.5 51.6 45 L52 44.25 51.55 43.55 51.5 43.5 Q50.9 43 50 43 49.1 43 48.45 43.5 L48.45 43.55 48.1 44 44 44 Q44.05 41.95 45.9 40.45 47.6 39 50 39 52.4 39 54.1 40.5 L54.05 40.4 Q56.05 42.05 56 44.25 56.05 46.1 54.75 47.5 56.05 48.9 56 50.75"/>
  </g>
</svg>