<svg width="64" height="64" xmlns="http://www.w3.org/2000/svg" xmlns:xlink="http://www.w3.org/1999/xlink">
  <defs/>
  <g>
    <path stroke="none" fill="#FFFFFF" d="M8 32 Q8 22.05 15 15 22.05 8 32 8 41.95 8 48.95 15 56 22.05 56 32 L61 32 Q61.75 32 62.35 32.55 62.9 33.05 63 33.8 63.05 34.55 62.6 35.2 L54.6 45.9 53.6 46.6 52.4 46.6 Q51.8 46.4 51.4 45.9 L43.4 35.2 Q42.95 34.55 43 33.8 43.1 33.05 43.65 32.55 44.25 32 45 32 L50 32 Q50 24.55 44.7 19.25 39.45 14 32 14 24.55 14 19.25 19.25 14 24.55 14 32 L19 32 Q19.75 32 20.35 32.55 20.9 33.05 21 33.8 21.05 34.55 20.6 35.2 L12.6 45.9 11.6 46.6 10.4 46.6 Q9.8 46.4 9.4 45.9 L1.4 35.2 Q0.95 34.55 1 33.8 1.1 33.05 1.65 32.55 2.25 32 3 32 L8 32"/>
  </g>
</svg>