<svg width="64" height="64" xmlns="http://www.w3.org/2000/svg" xmlns:xlink="http://www.w3.org/1999/xlink">
  <defs/>
  <g>
    <path stroke="none" fill="#000000" d="M51.45 34.6 Q48.2 32 44 32 39.05 32 35.5 35.55 32 39.1 32 44 32 48.2 34.6 51.45 L35.45 52.5 35.7 52.65 36.65 53.55 Q39.8 56 44 56 49 56 52.5 52.5 56 49 56 44 56 39.8 53.5 36.7 L52.65 35.7 52.5 35.5 51.45 34.6 M53.35 32.25 L54.2 33 55.2 34 55.95 34.95 55.85 34.85 Q59 38.7 59 44 59 50.25 54.65 54.65 50.25 59 44 59 38.75 59 34.8 55.95 L34.75 55.9 33.85 55.05 33.35 54.65 33.15 54.4 32.25 53.35 Q29 49.25 29 44 29 37.9 33.4 33.45 37.8 29 44 29 49.25 29 53.35 32.25 M41 45 L47 45 47 52 41 52 41 45 M47 40 Q47 41.25 46.1 42.1 45.25 43 44 43 42.75 43 41.85 42.1 41 41.25 41 40 41 38.75 41.85 37.85 42.75 37 44 37 45.25 37 46.1 37.85 47 38.75 47 40"/>
    <path stroke="none" fill="#FFFFFF" d="M47 40 Q47 38.75 46.1 37.85 45.25 37 44 37 42.75 37 41.85 37.85 41 38.75 41 40 41 41.25 41.85 42.1 42.75 43 44 43 45.25 43 46.1 42.1 47 41.25 47 40 M51.45 34.6 L52.5 35.5 52.65 35.7 53.5 36.7 Q56 39.8 56 44 56 49 52.5 52.5 49 56 44 56 39.8 56 36.65 53.55 L35.7 52.65 35.45 52.5 34.6 51.45 Q32 48.2 32 44 32 39.1 35.5 35.55 39.05 32 44 32 48.2 32 51.45 34.6 M41 45 L41 52 47 52 47 45 41 45"/>
  </g>
</svg>