<svg width="64" height="64" xmlns="http://www.w3.org/2000/svg" xmlns:xlink="http://www.w3.org/1999/xlink">
  <defs/>
  <g>
    <path stroke="none" fill="#000000" d="M48 53 L53 40 53 36 40 36 40 40 48 40 43 53 48 53 M55.8 41.1 L50.8 54.1 Q50.45 54.95 49.7 55.5 48.95 56 48 56 L43 56 Q42 56 41.2 55.4 40.4 54.8 40.15 53.85 39.85 52.85 40.2 51.95 L43.65 43 40 43 Q38.75 43 37.9 42.15 37 41.25 37 40 L37 36 Q37 34.75 37.9 33.9 38.75 33 40 33 L53 33 Q54.25 33 55.15 33.9 56 34.75 56 36 L56 40 55.8 41.1"/>
    <path stroke="none" fill="#FFFFFF" d="M48 53 L43 53 48 40 40 40 40 36 53 36 53 40 48 53"/>
  </g>
</svg>