<svg xmlns="http://www.w3.org/2000/svg" xmlns:xlink="http://www.w3.org/1999/xlink" width="32px" height="32px" viewBox="0 0 32 32" version="1.1">
<g id="surface1">
<path style=" stroke:none;fill-rule:nonzero;fill:#2196f3;fill-opacity:1;" d="M 31 6 L 24 6 L 23 7 L 10 7 L 9 6 L 1 6 C 0.449219 6 0 6.449219 0 7 L 0 25 C 0 25.550781 0.449219 26 1 26 L 8.585938 26 C 8.730469 26 9 26 9 26 L 10 25 L 23 25 L 24 26 L 31 26 C 31.550781 26 32 25.550781 32 25 L 32 7 C 32 6.449219 31.550781 6 31 6 Z M 6 23 L 2 23 L 2 21 L 6 21 Z M 6 19 L 2 19 L 2 17 L 6 17 Z M 6 15 L 2 15 L 2 13 L 6 13 Z M 6 11 L 2 11 L 2 9 L 6 9 Z M 13 22 C 13 22.550781 12.550781 23 12 23 C 11.449219 23 11 22.550781 11 22 L 11 10 C 11 9.449219 11.449219 9 12 9 C 12.550781 9 13 9.449219 13 10 Z M 17 22 C 17 22.550781 16.550781 23 16 23 C 15.449219 23 15 22.550781 15 22 L 15 10 C 15 9.449219 15.449219 9 16 9 C 16.550781 9 17 9.449219 17 10 Z M 21 22 C 21 22.550781 20.550781 23 20 23 C 19.449219 23 19 22.550781 19 22 L 19 10 C 19 9.449219 19.449219 9 20 9 C 20.550781 9 21 9.449219 21 10 Z M 28 24 C 26.894531 24 26 23.105469 26 22 C 26 20.894531 26.894531 20 28 20 C 29.105469 20 30 20.894531 30 22 C 30 23.105469 29.105469 24 28 24 Z M 28 18 C 26.894531 18 26 17.105469 26 16 C 26 14.894531 26.894531 14 28 14 C 29.105469 14 30 14.894531 30 16 C 30 17.105469 29.105469 18 28 18 Z M 28 12 C 26.894531 12 26 11.105469 26 10 C 26 8.894531 26.894531 8 28 8 C 29.105469 8 30 8.894531 30 10 C 30 11.105469 29.105469 12 28 12 Z M 28 12 "/>
</g>
</svg>