<?xml version="1.0" encoding="UTF-8"?>
<svg xmlns="http://www.w3.org/2000/svg" xmlns:xlink="http://www.w3.org/1999/xlink" width="32px" height="32px" viewBox="0 0 32 32" version="1.1">
<g id="surface1">
<path style=" stroke:none;fill-rule:nonzero;fill:rgb(50.588235%,58.039216%,98.039216%);fill-opacity:1;" d="M 18.835938 16.730469 C 18.433594 16.730469 18.105469 16.40625 18.105469 16 C 18.105469 15.59375 18.429688 15.269531 18.835938 15.269531 L 26.578125 15.269531 C 26.398438 12.628906 25.257812 10.257812 23.5 8.5 C 21.742188 6.742188 19.367188 5.597656 16.734375 5.417969 L 16.734375 12.546875 C 16.734375 13.507812 15.273438 13.507812 15.273438 12.546875 L 15.273438 5.421875 C 12.632812 5.601562 10.261719 6.746094 8.503906 8.503906 C 6.742188 10.261719 5.601562 12.632812 5.421875 15.269531 L 13.777344 15.269531 C 14.179688 15.269531 14.507812 15.59375 14.507812 16 C 14.507812 16.40625 14.179688 16.730469 13.777344 16.730469 L 5.421875 16.730469 C 5.601562 19.371094 6.742188 21.742188 8.5 23.5 C 10.257812 25.257812 12.632812 26.402344 15.269531 26.582031 L 15.269531 18.835938 C 15.269531 17.875 16.730469 17.875 16.730469 18.835938 L 16.730469 26.578125 C 19.367188 26.398438 21.738281 25.253906 23.496094 23.496094 C 25.253906 21.738281 26.398438 19.367188 26.578125 16.730469 Z M 28.125 15.269531 L 31.269531 15.269531 C 31.671875 15.269531 32 15.59375 32 16 C 32 16.40625 31.671875 16.730469 31.269531 16.730469 L 28.125 16.730469 C 27.941406 19.792969 26.625 22.550781 24.585938 24.589844 C 22.550781 26.625 19.792969 27.941406 16.734375 28.125 L 16.734375 31.269531 C 16.734375 31.675781 16.40625 32.003906 16 32.003906 C 15.597656 32.003906 15.269531 31.675781 15.269531 31.269531 L 15.269531 28.125 C 12.207031 27.941406 9.449219 26.628906 7.414062 24.589844 C 5.375 22.550781 4.058594 19.792969 3.875 16.730469 L 0.734375 16.730469 C 0.328125 16.730469 0 16.402344 0 16 C 0 15.597656 0.328125 15.269531 0.734375 15.269531 L 3.878906 15.269531 C 4.0625 12.207031 5.375 9.449219 7.414062 7.410156 C 9.453125 5.375 12.210938 4.058594 15.273438 3.875 L 15.273438 0.730469 C 15.273438 0.328125 15.601562 0 16.003906 0 C 16.40625 0 16.734375 0.328125 16.734375 0.730469 L 16.734375 3.878906 C 19.796875 4.058594 22.554688 5.375 24.589844 7.414062 C 26.625 9.449219 27.941406 12.207031 28.125 15.269531 Z M 16 12.515625 C 17.921875 12.515625 19.484375 14.074219 19.484375 16 C 19.484375 17.925781 17.921875 19.484375 16 19.484375 C 14.074219 19.484375 12.515625 17.925781 12.515625 16 C 12.515625 14.074219 14.078125 12.515625 16 12.515625 Z M 16 12.515625 "/>
</g>
</svg>
