<svg xmlns="http://www.w3.org/2000/svg" xmlns:xlink="http://www.w3.org/1999/xlink" version="1.1" id="Layer_1" x="0px" y="0px" viewBox="0 0 122.87 122.88" style="enable-background:new 0 0 122.87 122.88" xml:space="preserve"><g><path d="M72.33,64.25c-1.55,0-2.81-1.25-2.81-2.81s1.25-2.81,2.81-2.81h29.73c-0.69-10.13-5.08-19.24-11.83-25.99 c-6.75-6.75-15.86-11.14-25.98-11.83v27.37l0,0l0,0c0,3.69-5.61,3.69-5.61,0V20.82c-10.13,0.69-19.24,5.08-25.99,11.83 C25.89,39.4,21.5,48.51,20.81,58.63h32.09c1.55,0,2.81,1.25,2.81,2.81s-1.26,2.81-2.81,2.81H20.81 c0.69,10.13,5.08,19.24,11.83,25.99c6.75,6.75,15.86,11.14,25.99,11.83V72.33c0-3.69,5.61-3.69,5.61,0v29.73 c10.12-0.69,19.23-5.08,25.98-11.83c6.75-6.75,11.14-15.86,11.83-25.99H72.33L72.33,64.25L72.33,64.25L72.33,64.25z M107.99,58.63 h12.08c1.55,0,2.81,1.25,2.81,2.81s-1.26,2.81-2.81,2.81h-12.08c-0.7,11.76-5.75,22.35-13.58,30.17 c-7.82,7.82-18.41,12.88-30.16,13.58v12.08l0,0l0,0c0,1.55-1.26,2.81-2.81,2.81c-1.55,0-2.81-1.26-2.81-2.81v-12.08 c-11.76-0.7-22.35-5.75-30.17-13.58c-7.82-7.82-12.88-18.41-13.58-30.17H2.81l0,0l0,0C1.25,64.25,0,62.99,0,61.44 s1.25-2.81,2.81-2.81h12.08c0.7-11.76,5.75-22.35,13.58-30.17c7.82-7.82,18.41-12.88,30.17-13.58V2.81c0-1.55,1.26-2.81,2.81-2.81 c1.55,0,2.81,1.26,2.81,2.81v12.08c11.76,0.7,22.34,5.75,30.16,13.58C102.23,36.29,107.29,46.88,107.99,58.63L107.99,58.63z M61.43,48.06c7.39,0,13.38,5.99,13.38,13.38c0,7.39-5.99,13.38-13.38,13.38s-13.38-5.99-13.38-13.38 C48.06,54.05,54.05,48.06,61.43,48.06L61.43,48.06L61.43,48.06z" fill="#8194fa"/></g></svg>