<?xml version="1.0" encoding="UTF-8"?>
<svg xmlns="http://www.w3.org/2000/svg" xmlns:xlink="http://www.w3.org/1999/xlink" width="32px" height="32px" viewBox="0 0 32 32" version="1.1">
<defs>
<linearGradient id="linear0" gradientUnits="userSpaceOnUse" x1="163.52" y1="286.47" x2="163.52" y2="500.71" gradientTransform="matrix(0.0832682,0,0,0.0625733,0.0125147,0)">
<stop offset="0" style="stop-color:rgb(98.431373%,39.215686%,1.568627%);stop-opacity:1;"/>
<stop offset="1" style="stop-color:rgb(94.901961%,74.509804%,6.27451%);stop-opacity:1;"/>
</linearGradient>
</defs>
<g id="surface1">
<path style=" stroke:none;fill-rule:evenodd;fill:rgb(88.627451%,3.529412%,9.803922%);fill-opacity:1;" d="M 6.460938 14.292969 C 5.453125 7.5 10.734375 2.71875 20.640625 0 C 14.574219 5.914062 25.808594 12.320312 26.429688 18.460938 C 27.882812 16.597656 28.707031 14.113281 28.867188 10.792969 C 36.296875 19.546875 30.140625 33.855469 13.796875 31.800781 C 12.296875 31.613281 10.851562 31.257812 9.53125 30.726562 C 3.574219 28.332031 0.0117188 23.121094 0.0117188 18.144531 C 0.0117188 14.972656 1.816406 12.140625 4.152344 9.890625 C 4.464844 12.097656 5.132812 13.742188 6.460938 14.292969 Z M 6.460938 14.292969 "/>
<path style=" stroke:none;fill-rule:evenodd;fill:url(#linear0);" d="M 11.601562 23.308594 C 9.78125 19.699219 10.035156 13.875 15.125 11.832031 C 15.160156 18.527344 23.75 19.378906 22.15625 26.53125 C 23.625 25.253906 24.363281 23.210938 24.496094 21.601562 C 26.824219 25.691406 25 28.96875 21.679688 30.636719 C 11.59375 35.703125 2.90625 25.429688 8.679688 19.792969 C 8.855469 21.050781 10.859375 22.992188 11.601562 23.308594 Z M 11.601562 23.308594 "/>
</g>
</svg>
