<?xml version="1.0" encoding="UTF-8"?>
<svg xmlns="http://www.w3.org/2000/svg" xmlns:xlink="http://www.w3.org/1999/xlink" width="32px" height="32px" viewBox="0 0 32 32" version="1.1">
<g id="surface1">
<path style=" stroke:none;fill-rule:evenodd;fill:rgb(99.607843%,26.27451%,39.607843%);fill-opacity:1;" d="M 2.476562 2.132812 L 2.484375 2.097656 C 2.808594 1.074219 3.046875 0.566406 3.503906 0.269531 C 4.152344 -0.152344 4.800781 0.09375 5.226562 0.867188 C 5.429688 1.234375 5.585938 1.664062 5.707031 2.132812 L 27.238281 2.132812 L 27.238281 1.9375 C 27.238281 0.933594 27.839844 0.113281 28.574219 0.113281 L 29.976562 0.113281 C 30.230469 0.113281 30.4375 0.398438 30.4375 0.742188 L 30.4375 2.128906 L 30.773438 2.128906 C 31.449219 2.128906 32 2.886719 32 3.808594 L 32 7.695312 L 16.371094 7.695312 L 16.371094 5.453125 C 16.371094 5.0625 16.136719 4.746094 15.851562 4.746094 C 15.566406 4.746094 15.332031 5.0625 15.332031 5.453125 L 15.332031 7.695312 L 14.089844 7.695312 L 14.089844 5.453125 C 14.089844 5.0625 13.855469 4.746094 13.570312 4.746094 C 13.285156 4.746094 13.050781 5.0625 13.050781 5.453125 L 13.050781 7.695312 L 11.808594 7.695312 L 11.808594 5.453125 C 11.808594 5.0625 11.574219 4.746094 11.289062 4.746094 C 11.003906 4.746094 10.769531 5.0625 10.769531 5.453125 L 10.769531 7.695312 L 9.527344 7.695312 L 9.527344 5.453125 C 9.527344 5.0625 9.292969 4.746094 9.007812 4.746094 C 8.722656 4.746094 8.488281 5.0625 8.488281 5.453125 L 8.488281 7.695312 L 7.246094 7.695312 L 7.246094 5.453125 C 7.246094 5.0625 7.011719 4.746094 6.726562 4.746094 C 6.441406 4.746094 6.207031 5.0625 6.207031 5.453125 L 6.207031 7.695312 L 4.949219 7.695312 L 4.949219 5.453125 C 4.949219 5.0625 4.714844 4.746094 4.429688 4.746094 C 4.144531 4.746094 3.910156 5.0625 3.910156 5.453125 L 3.910156 7.695312 L 2.667969 7.695312 L 2.667969 5.453125 C 2.667969 5.0625 2.433594 4.746094 2.148438 4.746094 C 1.863281 4.746094 1.628906 5.0625 1.628906 5.453125 L 1.628906 7.695312 L 0.0703125 7.695312 C 0.0507812 7.695312 0.0351562 7.695312 0.0195312 7.699219 C 0.00390625 7.464844 0 7.210938 0 6.9375 L 0 3.808594 C 0 2.886719 0.550781 2.132812 1.222656 2.132812 Z M 32 9.121094 L 32 10.070312 C 32 10.992188 31.449219 11.746094 30.773438 11.746094 L 21.523438 13.074219 L 21.523438 9.121094 Z M 20.488281 13.21875 L 19.238281 13.402344 C 19.449219 16.492188 19.136719 18.558594 17.792969 19.84375 C 16.527344 21.050781 14.375 21.425781 10.863281 21.183594 C 10.832031 21.179688 10.800781 21.175781 10.769531 21.164062 L 10.144531 24.296875 L 0.660156 24.296875 C 0.746094 24.027344 0.839844 23.742188 0.941406 23.429688 C 1.289062 22.386719 1.691406 21.394531 2.15625 20.464844 C 3.375 17.652344 4.207031 15.191406 4.292969 13.539062 C 4.492188 9.6875 1.003906 13.378906 0.175781 9.121094 L 20.488281 9.121094 L 20.488281 13.152344 C 20.488281 13.175781 20.488281 13.199219 20.488281 13.21875 Z M 9.925781 25.390625 L 9.554688 27.253906 C 10.339844 28.816406 10.527344 30.070312 10 30.949219 C 9.238281 32.226562 7.882812 31.894531 6.816406 31.894531 L 1.824219 31.894531 C 0.480469 31.734375 -0.046875 30.507812 0.0273438 28.5 C 0.0273438 27.199219 0.125 26.324219 0.355469 25.386719 L 9.925781 25.386719 Z M 18.207031 13.546875 L 15.15625 13.984375 C 14.824219 14 14.503906 14.046875 14.203125 14.128906 C 14.214844 14.183594 14.222656 14.25 14.222656 14.308594 C 14.238281 15.03125 14.425781 15.621094 14.707031 16.046875 C 15.011719 16.5 15.4375 16.769531 15.886719 16.808594 C 16.171875 16.832031 16.386719 17.167969 16.371094 17.558594 C 16.351562 17.949219 16.105469 18.246094 15.820312 18.222656 C 15.105469 18.160156 14.433594 17.730469 13.945312 17.003906 C 13.535156 16.390625 13.253906 15.570312 13.199219 14.582031 C 12.210938 15.261719 11.503906 16.582031 11.226562 18.863281 L 11.046875 19.769531 C 14.238281 19.984375 16.160156 19.671875 17.199219 18.679688 C 18.167969 17.761719 18.378906 16.097656 18.207031 13.546875 Z M 18.207031 13.546875 "/>
</g>
</svg>
