<?xml version="1.0" encoding="UTF-8"?>
<svg xmlns="http://www.w3.org/2000/svg" xmlns:xlink="http://www.w3.org/1999/xlink" width="32px" height="32px" viewBox="0 0 32 32" version="1.1">
<g id="surface1">
<path style=" stroke:none;fill-rule:nonzero;fill:rgb(23.137255%,62.352941%,81.176471%);fill-opacity:1;" d="M 13.476562 0.0351562 C 12.980469 0.09375 12.40625 0.214844 11.75 0.402344 C 10.828125 0.664062 9.371094 1.136719 8.984375 1.296875 C 8.023438 1.683594 6.945312 2.40625 6.140625 3.191406 L 5.824219 3.496094 L 5.90625 3.578125 C 5.984375 3.660156 6.101562 3.6875 8.53125 4.207031 C 9.929688 4.507812 11.101562 4.75 11.136719 4.75 C 11.164062 4.75 11.59375 4.550781 12.085938 4.304688 C 13.351562 3.671875 13.585938 3.617188 15.125 3.613281 C 16.019531 3.613281 16.03125 3.613281 16.5 3.695312 C 17.699219 3.90625 18.371094 4.183594 19.300781 4.871094 L 19.621094 5.105469 L 19.875 5.09375 C 20.160156 5.082031 20.210938 5.070312 22.476562 4.390625 C 23.164062 4.1875 23.898438 3.960938 24.113281 3.890625 C 24.503906 3.765625 24.511719 3.761719 24.484375 3.671875 C 24.441406 3.492188 23.5 2.652344 23 2.335938 C 22.433594 1.984375 21.394531 1.53125 19.925781 1.003906 C 18.476562 0.488281 17.238281 0.214844 15.679688 0.0742188 C 14.953125 0.0078125 13.875 -0.0117188 13.476562 0.0351562 Z M 13.476562 0.0351562 "/>
<path style=" stroke:none;fill-rule:nonzero;fill:rgb(23.137255%,62.352941%,81.176471%);fill-opacity:1;" d="M 16.175781 4.371094 C 15.878906 4.386719 15.875 4.402344 15.890625 4.886719 C 15.898438 5.207031 15.921875 5.324219 15.964844 5.324219 C 16 5.324219 16.234375 5.363281 16.496094 5.414062 C 16.949219 5.503906 17.328125 5.628906 18.550781 6.101562 C 18.890625 6.234375 18.96875 6.242188 19.085938 6.15625 C 19.148438 6.109375 19.128906 6.078125 18.804688 5.765625 C 18.351562 5.324219 18.054688 5.113281 17.515625 4.84375 C 17.101562 4.640625 16.570312 4.417969 16.398438 4.378906 C 16.359375 4.367188 16.261719 4.363281 16.175781 4.371094 Z M 16.175781 4.371094 "/>
<path style=" stroke:none;fill-rule:nonzero;fill:rgb(23.137255%,62.352941%,81.176471%);fill-opacity:1;" d="M 13.519531 4.648438 C 13.359375 4.703125 13.121094 4.796875 12.996094 4.859375 C 12.539062 5.074219 11.980469 5.632812 11.699219 6.148438 C 11.484375 6.546875 11.503906 6.625 11.808594 6.625 C 12 6.625 12.164062 6.546875 12.738281 6.175781 C 13.121094 5.933594 13.308594 5.832031 13.601562 5.730469 C 14.453125 5.429688 14.519531 5.398438 14.59375 5.246094 C 14.660156 5.109375 14.65625 5.09375 14.488281 4.832031 L 14.324219 4.5625 L 14.070312 4.554688 C 13.84375 4.546875 13.785156 4.558594 13.519531 4.648438 Z M 13.519531 4.648438 "/>
<path style=" stroke:none;fill-rule:nonzero;fill:rgb(23.137255%,62.352941%,81.176471%);fill-opacity:1;" d="M 5.085938 4.652344 C 5.046875 4.683594 4.984375 4.765625 4.953125 4.835938 C 4.921875 4.90625 4.75 5.226562 4.574219 5.550781 C 4.398438 5.871094 4.238281 6.199219 4.226562 6.277344 C 4.175781 6.476562 4.214844 6.488281 4.910156 6.511719 C 5.386719 6.523438 5.519531 6.539062 5.75 6.597656 C 5.898438 6.636719 6.171875 6.679688 6.351562 6.699219 C 6.53125 6.710938 6.988281 6.753906 7.375 6.789062 C 7.761719 6.824219 8.335938 6.890625 8.648438 6.9375 C 8.964844 6.984375 9.308594 7.023438 9.414062 7.023438 C 9.714844 7.023438 9.898438 6.898438 9.898438 6.691406 C 9.898438 6.535156 10.175781 6.003906 10.351562 5.816406 C 10.535156 5.621094 10.515625 5.589844 10.164062 5.496094 C 10.035156 5.460938 9.035156 5.246094 7.949219 5.023438 C 6.074219 4.640625 5.953125 4.617188 5.570312 4.605469 C 5.179688 4.59375 5.160156 4.59375 5.085938 4.652344 Z M 5.085938 4.652344 "/>
<path style=" stroke:none;fill-rule:nonzero;fill:rgb(23.137255%,62.352941%,81.176471%);fill-opacity:1;" d="M 25.003906 4.824219 C 23.460938 5.242188 21.023438 5.878906 20.78125 5.925781 C 20.644531 5.949219 20.640625 5.957031 20.664062 6.066406 C 20.675781 6.128906 20.734375 6.210938 20.796875 6.246094 C 20.996094 6.371094 21.15625 6.554688 21.453125 7.007812 C 21.808594 7.539062 21.816406 7.546875 21.96875 7.566406 C 22.121094 7.582031 22.300781 7.535156 22.640625 7.390625 C 22.820312 7.3125 22.953125 7.273438 23.050781 7.273438 C 23.128906 7.273438 23.535156 7.199219 23.960938 7.101562 C 24.820312 6.910156 25.90625 6.679688 26.265625 6.613281 C 26.394531 6.589844 26.523438 6.550781 26.550781 6.523438 C 26.640625 6.4375 26.601562 6.28125 26.429688 6.058594 C 26.335938 5.9375 26.105469 5.644531 25.925781 5.414062 C 25.453125 4.808594 25.335938 4.734375 25.003906 4.824219 Z M 25.003906 4.824219 "/>
<path style=" stroke:none;fill-rule:nonzero;fill:rgb(23.137255%,62.352941%,81.176471%);fill-opacity:1;" d="M 16.175781 6.574219 C 16.160156 6.585938 16.171875 6.664062 16.199219 6.742188 C 16.226562 6.824219 16.269531 7.128906 16.296875 7.425781 C 16.34375 7.96875 16.363281 8.050781 16.464844 8.050781 C 16.496094 8.050781 17.078125 8.199219 17.769531 8.386719 C 19.429688 8.828125 20.621094 9.125 20.738281 9.125 C 20.871094 9.125 20.949219 9.074219 20.984375 8.960938 C 21.011719 8.886719 20.988281 8.859375 20.875 8.800781 C 20.738281 8.730469 20.734375 8.71875 20.730469 8.457031 C 20.726562 8.191406 20.726562 8.183594 20.460938 7.882812 C 20.210938 7.589844 19.871094 7.296875 19.714844 7.234375 C 19.675781 7.21875 19.609375 7.210938 19.570312 7.21875 C 19.398438 7.25 18.894531 7.148438 17.796875 6.859375 C 16.84375 6.609375 16.574219 6.550781 16.410156 6.550781 C 16.300781 6.550781 16.191406 6.558594 16.175781 6.574219 Z M 16.175781 6.574219 "/>
<path style=" stroke:none;fill-rule:nonzero;fill:rgb(23.137255%,62.352941%,81.176471%);fill-opacity:1;" d="M 12.550781 7.425781 L 10.773438 8.226562 L 10.746094 8.621094 C 10.664062 9.59375 10.671875 9.804688 10.761719 9.832031 C 10.890625 9.875 10.988281 9.832031 14.214844 8.4375 C 14.851562 8.164062 14.898438 8.121094 14.898438 7.878906 C 14.898438 7.695312 14.699219 6.691406 14.65625 6.671875 C 14.640625 6.664062 14.558594 6.648438 14.476562 6.640625 C 14.335938 6.628906 14.199219 6.683594 12.550781 7.425781 Z M 12.550781 7.425781 "/>
<path style=" stroke:none;fill-rule:nonzero;fill:rgb(23.137255%,62.352941%,81.176471%);fill-opacity:1;" d="M 3.871094 7.59375 C 3.675781 7.699219 3.625 7.761719 3.453125 8.109375 C 3.238281 8.558594 3.148438 8.847656 3.148438 9.117188 L 3.148438 9.351562 L 3.34375 9.421875 C 3.523438 9.484375 3.601562 9.496094 4.074219 9.511719 C 4.433594 9.519531 4.839844 9.558594 5.316406 9.621094 L 6.023438 9.710938 L 7.273438 9.710938 C 9.136719 9.707031 9.09375 9.722656 9.15625 9.070312 C 9.175781 8.832031 9.21875 8.53125 9.246094 8.40625 C 9.300781 8.140625 9.285156 8.105469 9.121094 8.085938 C 9.054688 8.078125 8.945312 8.070312 8.886719 8.0625 C 8.820312 8.058594 8.53125 8.035156 8.238281 8.015625 C 7.949219 7.992188 7.21875 7.914062 6.621094 7.839844 C 5.53125 7.703125 5.324219 7.671875 4.800781 7.578125 C 4.648438 7.550781 4.40625 7.527344 4.261719 7.523438 C 4.035156 7.523438 3.976562 7.535156 3.871094 7.59375 Z M 3.871094 7.59375 "/>
<path style=" stroke:none;fill-rule:nonzero;fill:rgb(23.137255%,62.352941%,81.176471%);fill-opacity:1;" d="M 26.824219 7.726562 C 26.355469 7.761719 26.179688 7.796875 26.074219 7.882812 C 25.976562 7.960938 25.96875 7.960938 25.601562 7.953125 C 24.984375 7.941406 23.945312 8.097656 23.199219 8.3125 C 22.996094 8.371094 22.773438 8.425781 22.714844 8.433594 C 22.558594 8.460938 22.351562 8.59375 22.351562 8.664062 C 22.351562 8.699219 22.386719 8.761719 22.433594 8.808594 C 22.496094 8.867188 22.523438 8.996094 22.554688 9.3125 C 22.621094 9.988281 22.679688 10.074219 23.085938 10.074219 C 23.355469 10.074219 23.476562 10.046875 23.570312 9.957031 C 23.628906 9.898438 23.691406 9.886719 23.980469 9.859375 C 24.171875 9.84375 24.445312 9.828125 24.589844 9.828125 C 24.734375 9.824219 25.164062 9.792969 25.539062 9.75 C 26.371094 9.660156 27.320312 9.574219 27.496094 9.574219 C 27.691406 9.574219 28.050781 9.476562 28.160156 9.390625 C 28.230469 9.328125 28.25 9.285156 28.230469 9.199219 C 28.105469 8.6875 27.835938 7.957031 27.726562 7.832031 C 27.621094 7.714844 27.371094 7.683594 26.824219 7.726562 Z M 26.824219 7.726562 "/>
<path style=" stroke:none;fill-rule:nonzero;fill:rgb(23.137255%,62.352941%,81.176471%);fill-opacity:1;" d="M 16.664062 9.175781 C 16.484375 9.210938 16.464844 9.261719 16.535156 9.53125 C 16.574219 9.671875 16.621094 9.917969 16.640625 10.074219 C 16.671875 10.273438 16.703125 10.382812 16.765625 10.425781 C 16.859375 10.496094 20.808594 11.835938 21.050781 11.878906 C 21.214844 11.90625 21.398438 11.867188 21.496094 11.78125 C 21.523438 11.75 21.515625 11.480469 21.46875 11.011719 C 21.40625 10.328125 21.394531 10.285156 21.296875 10.242188 C 21.234375 10.21875 21.140625 10.199219 21.078125 10.199219 C 20.960938 10.199219 17.324219 9.265625 17.171875 9.199219 C 17.066406 9.148438 16.851562 9.136719 16.664062 9.175781 Z M 16.664062 9.175781 "/>
<path style=" stroke:none;fill-rule:nonzero;fill:rgb(23.137255%,62.352941%,81.176471%);fill-opacity:1;" d="M 14.410156 9.542969 C 11.046875 11 10.65625 11.175781 10.679688 11.246094 C 10.695312 11.28125 10.78125 11.535156 10.871094 11.808594 C 10.964844 12.078125 11.066406 12.316406 11.101562 12.335938 C 11.246094 12.425781 11.375 12.386719 12.695312 11.867188 C 13.296875 11.628906 14.09375 11.316406 14.46875 11.167969 C 15.339844 10.824219 15.339844 10.824219 15.289062 10.386719 C 15.214844 9.753906 15.15625 9.445312 15.09375 9.410156 C 14.980469 9.339844 14.804688 9.371094 14.410156 9.542969 Z M 14.410156 9.542969 "/>
<path style=" stroke:none;fill-rule:nonzero;fill:rgb(23.137255%,62.352941%,81.176471%);fill-opacity:1;" d="M 27.601562 10.460938 C 27.476562 10.480469 27.265625 10.519531 27.125 10.550781 C 26.910156 10.601562 26.785156 10.609375 26.226562 10.613281 C 25.710938 10.613281 25.511719 10.628906 25.273438 10.667969 C 25.109375 10.695312 24.863281 10.726562 24.726562 10.734375 C 24.421875 10.757812 23.421875 10.886719 23.148438 10.941406 C 23.019531 10.964844 22.941406 11 22.921875 11.039062 C 22.90625 11.066406 22.898438 11.351562 22.910156 11.671875 C 22.921875 12.140625 22.941406 12.253906 23 12.285156 C 23.109375 12.335938 23.558594 12.371094 23.816406 12.347656 C 23.929688 12.335938 24.101562 12.316406 24.183594 12.308594 C 24.273438 12.300781 24.414062 12.308594 24.5 12.324219 C 24.613281 12.351562 25.011719 12.351562 26.386719 12.324219 C 27.339844 12.308594 28.210938 12.285156 28.316406 12.273438 C 28.484375 12.25 28.523438 12.230469 28.636719 12.109375 L 28.761719 11.972656 L 28.675781 11.367188 C 28.628906 11.015625 28.566406 10.71875 28.519531 10.664062 C 28.46875 10.59375 28.386719 10.539062 28.238281 10.492188 C 28.011719 10.417969 27.929688 10.414062 27.601562 10.460938 Z M 27.601562 10.460938 "/>
<path style=" stroke:none;fill-rule:nonzero;fill:rgb(23.137255%,62.352941%,81.176471%);fill-opacity:1;" d="M 3.25 10.566406 C 3.25 10.578125 3.296875 11.023438 3.351562 11.5625 C 3.40625 12.097656 3.449219 12.566406 3.449219 12.597656 L 3.449219 12.65625 L 4.738281 12.640625 C 6.109375 12.628906 6.605469 12.597656 8.363281 12.425781 C 9.253906 12.335938 9.390625 12.316406 9.429688 12.261719 C 9.449219 12.242188 9.40625 12.121094 9.328125 11.992188 C 9.203125 11.769531 9.140625 11.511719 9.074219 10.929688 L 9.039062 10.648438 L 8.90625 10.648438 C 8.835938 10.648438 7.628906 10.628906 6.226562 10.601562 C 3.335938 10.546875 3.25 10.542969 3.25 10.566406 Z M 3.25 10.566406 "/>
<path style=" stroke:none;fill-rule:nonzero;fill:rgb(23.137255%,62.352941%,81.176471%);fill-opacity:1;" d="M 17.058594 11.859375 C 16.953125 11.914062 16.953125 11.929688 16.976562 12.507812 C 16.988281 13.085938 16.996094 13.101562 17.109375 13.171875 C 17.246094 13.253906 19.914062 14.121094 20.320312 14.214844 C 20.675781 14.296875 21.246094 14.324219 21.339844 14.265625 C 21.511719 14.167969 21.648438 13.078125 21.511719 12.957031 C 21.394531 12.855469 20.746094 12.648438 19.746094 12.398438 C 18.679688 12.132812 17.273438 11.800781 17.210938 11.800781 C 17.183594 11.800781 17.121094 11.824219 17.058594 11.859375 Z M 17.058594 11.859375 "/>
<path style=" stroke:none;fill-rule:nonzero;fill:rgb(23.137255%,62.352941%,81.176471%);fill-opacity:1;" d="M 13.496094 12.632812 L 11.824219 13.363281 L 11.808594 13.484375 C 11.796875 13.585938 11.941406 13.90625 12.230469 14.414062 C 12.316406 14.566406 12.449219 14.613281 12.660156 14.566406 C 12.839844 14.527344 15.609375 13.296875 15.695312 13.214844 C 15.753906 13.164062 15.753906 13.058594 15.714844 12.617188 C 15.65625 11.984375 15.601562 11.898438 15.253906 11.898438 C 15.203125 11.898438 14.414062 12.230469 13.496094 12.632812 Z M 13.496094 12.632812 "/>
<path style=" stroke:none;fill-rule:nonzero;fill:rgb(23.137255%,62.352941%,81.176471%);fill-opacity:1;" d="M 6.765625 13.429688 L 4.050781 13.65625 L 4.050781 13.742188 C 4.050781 13.789062 4.265625 14.179688 4.523438 14.613281 C 5.109375 15.578125 5.160156 15.652344 5.261719 15.683594 C 5.320312 15.703125 5.941406 15.605469 7.886719 15.261719 C 11.273438 14.667969 11.023438 14.714844 11.039062 14.660156 C 11.054688 14.609375 10.160156 13.421875 10.011719 13.289062 C 9.929688 13.222656 9.890625 13.210938 9.699219 13.207031 C 9.574219 13.203125 8.253906 13.304688 6.765625 13.429688 Z M 6.765625 13.429688 "/>
<path style=" stroke:none;fill-rule:nonzero;fill:rgb(23.137255%,62.352941%,81.176471%);fill-opacity:1;" d="M 23.601562 13.222656 C 23.230469 13.230469 22.898438 13.246094 22.863281 13.257812 C 22.714844 13.304688 22.675781 13.460938 22.675781 14.039062 C 22.675781 14.699219 22.671875 14.691406 23.125 14.808594 C 23.359375 14.867188 23.429688 14.871094 24.25 14.886719 C 25.140625 14.894531 25.953125 14.953125 26.925781 15.078125 C 27.328125 15.128906 27.800781 15.144531 28.085938 15.113281 C 28.230469 15.097656 28.238281 15.089844 28.214844 15.011719 C 28.195312 14.953125 28.234375 14.859375 28.34375 14.707031 C 28.484375 14.511719 28.640625 14.148438 28.800781 13.640625 C 28.871094 13.414062 28.808594 13.316406 28.550781 13.25 C 28.316406 13.191406 27.964844 13.183594 27.714844 13.238281 C 27.5 13.28125 27.238281 13.285156 27.160156 13.246094 C 27.089844 13.210938 24.738281 13.195312 23.601562 13.222656 Z M 23.601562 13.222656 "/>
<path style=" stroke:none;fill-rule:nonzero;fill:rgb(23.137255%,62.352941%,81.176471%);fill-opacity:1;" d="M 17.269531 14.539062 C 17.214844 14.609375 17.203125 14.722656 17.230469 15.179688 C 17.25 15.519531 17.285156 15.753906 17.320312 15.777344 C 17.351562 15.800781 17.609375 15.90625 17.898438 16.015625 C 18.191406 16.128906 18.75 16.34375 19.148438 16.496094 C 20.089844 16.859375 20.335938 16.894531 20.445312 16.679688 C 20.554688 16.472656 20.75 15.871094 20.75 15.75 C 20.75 15.59375 20.695312 15.539062 20.484375 15.484375 C 20.394531 15.460938 19.945312 15.296875 19.476562 15.113281 C 18.300781 14.65625 17.679688 14.449219 17.496094 14.449219 C 17.371094 14.449219 17.328125 14.464844 17.269531 14.539062 Z M 17.269531 14.539062 "/>
<path style=" stroke:none;fill-rule:nonzero;fill:rgb(23.137255%,62.352941%,81.176471%);fill-opacity:1;" d="M 14.699219 14.863281 C 14.21875 15.023438 13.691406 15.195312 13.523438 15.242188 C 13.183594 15.34375 13.148438 15.363281 13.148438 15.449219 C 13.148438 15.519531 14.199219 16.558594 14.265625 16.558594 C 14.289062 16.554688 14.703125 16.378906 15.195312 16.164062 L 16.078125 15.777344 L 15.984375 15.207031 C 15.929688 14.894531 15.875 14.628906 15.855469 14.621094 C 15.839844 14.613281 15.769531 14.601562 15.699219 14.59375 C 15.601562 14.578125 15.40625 14.632812 14.699219 14.863281 Z M 14.699219 14.863281 "/>
<path style=" stroke:none;fill-rule:nonzero;fill:rgb(23.137255%,62.352941%,81.176471%);fill-opacity:1;" d="M 9.324219 16.058594 C 8.054688 16.351562 6.816406 16.636719 6.566406 16.691406 L 6.109375 16.796875 L 6.929688 17.703125 C 7.386719 18.203125 7.765625 18.613281 7.769531 18.617188 C 7.78125 18.621094 8.625 18.378906 9.65625 18.074219 C 10.683594 17.769531 11.878906 17.417969 12.316406 17.296875 C 12.996094 17.097656 13.101562 17.058594 13.101562 17.003906 C 13.101562 16.925781 11.75 15.523438 11.679688 15.527344 C 11.648438 15.527344 10.589844 15.765625 9.324219 16.058594 Z M 9.324219 16.058594 "/>
<path style=" stroke:none;fill-rule:nonzero;fill:rgb(23.137255%,62.352941%,81.176471%);fill-opacity:1;" d="M 22.039062 15.800781 C 21.964844 15.824219 21.949219 15.863281 21.949219 16.003906 C 21.949219 16.140625 21.910156 16.246094 21.78125 16.449219 C 21.519531 16.851562 21.335938 17.289062 21.398438 17.351562 C 21.460938 17.40625 21.605469 17.449219 21.726562 17.449219 C 21.769531 17.449219 22.476562 17.636719 23.289062 17.859375 C 26.136719 18.640625 26.363281 18.699219 26.589844 18.699219 C 26.835938 18.699219 27.066406 18.613281 27.144531 18.492188 C 27.320312 18.226562 27.761719 16.984375 27.769531 16.730469 C 27.773438 16.507812 27.765625 16.5 27.15625 16.429688 C 26.914062 16.402344 26.503906 16.332031 26.246094 16.277344 C 25.730469 16.171875 24.824219 16.050781 23.308594 15.898438 C 22.769531 15.84375 22.28125 15.796875 22.226562 15.789062 C 22.171875 15.78125 22.085938 15.789062 22.039062 15.800781 Z M 22.039062 15.800781 "/>
<path style=" stroke:none;fill-rule:nonzero;fill:rgb(23.137255%,62.352941%,81.176471%);fill-opacity:1;" d="M 7.601562 22.121094 C 7.601562 22.253906 7.445312 22.488281 7.25 22.648438 C 7.105469 22.773438 7.03125 22.878906 6.949219 23.074219 C 6.890625 23.21875 6.765625 23.429688 6.664062 23.539062 C 6.53125 23.699219 6.496094 23.769531 6.511719 23.863281 L 6.523438 23.988281 L 6.75 24.003906 C 6.875 24.015625 7.976562 24.046875 9.199219 24.074219 C 10.425781 24.101562 11.558594 24.132812 11.730469 24.140625 L 12.03125 24.152344 L 12.089844 23.988281 C 12.125 23.902344 12.175781 23.707031 12.203125 23.558594 C 12.230469 23.410156 12.289062 23.171875 12.328125 23.03125 C 12.421875 22.710938 12.421875 22.621094 12.328125 22.511719 C 12.28125 22.453125 12.214844 22.421875 12.113281 22.414062 C 12.039062 22.402344 11.761719 22.363281 11.5 22.324219 C 10.660156 22.199219 10.320312 22.167969 10.125 22.199219 C 9.929688 22.234375 9.480469 22.207031 8.53125 22.109375 C 8.203125 22.078125 7.859375 22.050781 7.769531 22.050781 C 7.613281 22.050781 7.601562 22.058594 7.601562 22.121094 Z M 7.601562 22.121094 "/>
<path style=" stroke:none;fill-rule:nonzero;fill:rgb(23.137255%,62.352941%,81.176471%);fill-opacity:1;" d="M 19.976562 23.027344 C 19.933594 23.058594 19.875 23.34375 19.726562 24.207031 C 19.648438 24.617188 19.648438 24.660156 19.726562 24.71875 C 19.769531 24.75 19.859375 24.789062 19.925781 24.800781 C 19.996094 24.8125 20.773438 24.886719 21.660156 24.960938 C 22.550781 25.039062 23.644531 25.132812 24.101562 25.175781 C 24.550781 25.214844 24.960938 25.25 25.015625 25.25 C 25.164062 25.25 25.335938 25.140625 25.371094 25.023438 C 25.433594 24.796875 25.648438 23.734375 25.660156 23.574219 C 25.675781 23.386719 25.621094 23.332031 25.378906 23.3125 C 25.296875 23.304688 24.136719 23.234375 22.800781 23.160156 C 21.464844 23.082031 20.296875 23.015625 20.195312 23.007812 C 20.078125 23 20 23.007812 19.976562 23.027344 Z M 19.976562 23.027344 "/>
<path style=" stroke:none;fill-rule:nonzero;fill:rgb(23.137255%,62.352941%,81.176471%);fill-opacity:1;" d="M 13.503906 23.4375 C 13.285156 23.539062 13.21875 23.636719 13.171875 23.933594 C 13.109375 24.285156 13.28125 24.5 13.785156 24.699219 C 14.148438 24.84375 14.5 24.925781 14.769531 24.925781 C 14.941406 24.925781 15.035156 24.875 14.96875 24.824219 C 14.953125 24.808594 14.988281 24.640625 15.054688 24.453125 C 15.121094 24.246094 15.148438 24.074219 15.128906 24.023438 C 15.105469 23.960938 14.949219 23.863281 14.53125 23.640625 C 13.878906 23.308594 13.820312 23.296875 13.503906 23.4375 Z M 13.503906 23.4375 "/>
<path style=" stroke:none;fill-rule:nonzero;fill:rgb(23.137255%,62.352941%,81.176471%);fill-opacity:1;" d="M 18.074219 23.71875 C 17.996094 23.738281 17.871094 23.78125 17.800781 23.8125 C 17.613281 23.894531 17.480469 23.925781 17.273438 23.925781 C 17.089844 23.925781 16.761719 23.996094 16.660156 24.054688 C 16.628906 24.074219 16.589844 24.261719 16.570312 24.503906 L 16.535156 24.921875 L 16.675781 24.984375 C 16.894531 25.085938 17.109375 25.074219 17.714844 24.921875 C 17.996094 24.851562 18.289062 24.773438 18.363281 24.746094 C 18.5 24.699219 18.5 24.691406 18.421875 24.648438 C 18.34375 24.605469 18.339844 24.574219 18.394531 24.351562 C 18.46875 24.019531 18.464844 23.742188 18.390625 23.703125 C 18.316406 23.667969 18.261719 23.667969 18.074219 23.71875 Z M 18.074219 23.71875 "/>
<path style=" stroke:none;fill-rule:nonzero;fill:rgb(23.137255%,62.352941%,81.176471%);fill-opacity:1;" d="M 6.460938 24.808594 C 6.15625 24.855469 6.078125 24.914062 5.988281 25.1875 C 5.71875 25.992188 5.726562 25.964844 5.808594 26.03125 L 5.890625 26.09375 L 7.585938 26.109375 C 8.515625 26.117188 9.648438 26.132812 10.105469 26.140625 C 10.824219 26.15625 10.976562 26.148438 11.226562 26.113281 C 11.503906 26.066406 11.519531 26.058594 11.660156 25.914062 C 11.800781 25.761719 11.804688 25.746094 11.789062 25.4375 C 11.769531 25.023438 11.785156 25.03125 10.816406 24.984375 C 10.433594 24.96875 9.878906 24.925781 9.574219 24.890625 C 8.679688 24.789062 6.871094 24.738281 6.460938 24.808594 Z M 6.460938 24.808594 "/>
<path style=" stroke:none;fill-rule:nonzero;fill:rgb(23.137255%,62.352941%,81.176471%);fill-opacity:1;" d="M 13.085938 25.5 C 13.015625 25.527344 12.910156 25.613281 12.855469 25.691406 C 12.714844 25.871094 12.71875 26.035156 12.863281 26.164062 C 13.046875 26.324219 13.703125 26.546875 14.144531 26.597656 C 14.328125 26.617188 14.371094 26.613281 14.453125 26.574219 C 14.535156 26.53125 14.550781 26.488281 14.546875 26.28125 C 14.546875 26.148438 14.53125 26.019531 14.511719 25.996094 C 14.488281 25.972656 14.273438 25.839844 14.03125 25.703125 C 13.621094 25.46875 13.574219 25.449219 13.398438 25.449219 C 13.289062 25.449219 13.160156 25.46875 13.085938 25.5 Z M 13.085938 25.5 "/>
<path style=" stroke:none;fill-rule:nonzero;fill:rgb(23.137255%,62.352941%,81.176471%);fill-opacity:1;" d="M 19.511719 25.464844 C 19.230469 25.527344 19.035156 26.398438 19.261719 26.609375 C 19.324219 26.671875 19.539062 26.710938 20.023438 26.761719 C 20.246094 26.78125 21.144531 26.898438 22.019531 27.015625 C 23.753906 27.246094 24.121094 27.285156 24.414062 27.25 C 24.808594 27.207031 24.953125 27.085938 25.125 26.640625 C 25.25 26.332031 25.28125 26.136719 25.210938 26.082031 C 25.160156 26.046875 24.640625 25.976562 24.398438 25.976562 C 24.203125 25.976562 23.894531 25.949219 22.523438 25.800781 C 20.875 25.628906 20.195312 25.550781 20.054688 25.515625 C 19.894531 25.472656 19.601562 25.449219 19.511719 25.464844 Z M 19.511719 25.464844 "/>
<path style=" stroke:none;fill-rule:nonzero;fill:rgb(23.137255%,62.352941%,81.176471%);fill-opacity:1;" d="M 16.976562 25.933594 C 16.269531 26.074219 16.246094 26.085938 16.136719 26.308594 C 16.050781 26.476562 16.046875 26.511719 16.105469 26.605469 C 16.171875 26.703125 16.191406 26.710938 16.371094 26.71875 C 16.710938 26.734375 17.441406 26.601562 17.738281 26.46875 C 17.839844 26.421875 17.851562 26.394531 17.851562 26.164062 C 17.851562 26 17.828125 25.898438 17.789062 25.878906 C 17.683594 25.828125 17.390625 25.847656 16.976562 25.933594 Z M 16.976562 25.933594 "/>
<path style=" stroke:none;fill-rule:nonzero;fill:rgb(23.137255%,62.352941%,81.176471%);fill-opacity:1;" d="M 10.929688 26.867188 C 10.910156 26.878906 9.765625 26.890625 8.386719 26.898438 L 5.875 26.914062 L 5.789062 27.0625 C 5.734375 27.164062 5.710938 27.308594 5.710938 27.5 C 5.710938 27.878906 5.769531 28.417969 5.808594 28.441406 C 5.828125 28.449219 6.214844 28.410156 6.660156 28.351562 C 7.109375 28.296875 8.359375 28.136719 9.445312 28.003906 C 10.53125 27.863281 11.433594 27.738281 11.460938 27.71875 C 11.515625 27.679688 11.460938 27.117188 11.394531 27.007812 C 11.324219 26.898438 11.046875 26.8125 10.929688 26.867188 Z M 10.929688 26.867188 "/>
<path style=" stroke:none;fill-rule:nonzero;fill:rgb(23.137255%,62.352941%,81.176471%);fill-opacity:1;" d="M 12.773438 27.308594 C 12.621094 27.386719 12.601562 27.40625 12.601562 27.519531 C 12.601562 27.699219 12.75 27.921875 13.015625 28.128906 C 13.34375 28.394531 13.554688 28.5 13.746094 28.5 C 14 28.5 14.066406 28.386719 14.039062 28 C 14.023438 27.816406 13.988281 27.660156 13.949219 27.621094 C 13.886719 27.550781 13.214844 27.273438 13.039062 27.242188 C 12.980469 27.234375 12.894531 27.253906 12.773438 27.308594 Z M 12.773438 27.308594 "/>
<path style=" stroke:none;fill-rule:nonzero;fill:rgb(23.137255%,62.352941%,81.176471%);fill-opacity:1;" d="M 17.023438 27.417969 C 16.871094 27.4375 16.066406 27.765625 15.960938 27.859375 C 15.894531 27.910156 15.839844 28.027344 15.800781 28.207031 C 15.734375 28.492188 15.753906 28.625 15.875 28.675781 C 15.988281 28.722656 16.316406 28.660156 16.59375 28.535156 C 16.859375 28.414062 16.949219 28.3125 17.105469 27.953125 C 17.136719 27.878906 17.203125 27.773438 17.253906 27.714844 C 17.378906 27.578125 17.378906 27.460938 17.253906 27.425781 C 17.199219 27.414062 17.148438 27.402344 17.140625 27.402344 C 17.128906 27.40625 17.078125 27.414062 17.023438 27.417969 Z M 17.023438 27.417969 "/>
<path style=" stroke:none;fill-rule:nonzero;fill:rgb(23.137255%,62.352941%,81.176471%);fill-opacity:1;" d="M 19.15625 27.425781 C 18.824219 27.460938 18.773438 27.496094 18.699219 27.757812 C 18.621094 28.046875 18.628906 28.144531 18.746094 28.226562 C 18.84375 28.296875 19.199219 28.390625 19.445312 28.414062 C 19.746094 28.441406 20.046875 28.523438 21.074219 28.871094 C 22.410156 29.320312 23.246094 29.578125 23.320312 29.570312 C 23.445312 29.554688 23.820312 29.308594 23.980469 29.136719 C 24.199219 28.902344 24.5 28.433594 24.5 28.332031 C 24.5 28.183594 24.308594 28.113281 23.574219 28.011719 C 23.21875 27.960938 22.148438 27.808594 21.199219 27.671875 C 20.25 27.535156 19.453125 27.421875 19.425781 27.414062 C 19.398438 27.414062 19.273438 27.417969 19.15625 27.425781 Z M 19.15625 27.425781 "/>
<path style=" stroke:none;fill-rule:nonzero;fill:rgb(23.137255%,62.352941%,81.176471%);fill-opacity:1;" d="M 9.699219 28.726562 C 8.804688 28.878906 7.769531 29.046875 7.398438 29.101562 C 6.503906 29.234375 6.378906 29.265625 6.359375 29.367188 C 6.335938 29.496094 6.730469 29.964844 6.976562 30.097656 C 7.144531 30.191406 9.136719 31.039062 9.695312 31.257812 C 10.265625 31.480469 12.011719 31.800781 13.425781 31.9375 C 14.375 32.03125 17.828125 32.003906 18.46875 31.898438 C 18.878906 31.828125 19.710938 31.597656 20.539062 31.324219 C 21.515625 30.996094 21.753906 30.898438 22.105469 30.679688 C 22.28125 30.574219 22.496094 30.445312 22.585938 30.390625 C 22.785156 30.28125 22.789062 30.226562 22.613281 30.144531 C 22.535156 30.109375 21.664062 29.847656 20.675781 29.558594 C 19.683594 29.273438 18.773438 28.992188 18.648438 28.933594 C 18.351562 28.796875 18.25 28.773438 17.953125 28.773438 C 17.714844 28.773438 17.683594 28.78125 17.363281 28.925781 C 16.769531 29.199219 16.285156 29.273438 15.199219 29.273438 C 14.425781 29.273438 14.210938 29.261719 13.496094 29.148438 C 12.90625 29.058594 12.78125 29.007812 12.480469 28.761719 C 12.230469 28.558594 11.996094 28.476562 11.589844 28.460938 C 11.355469 28.453125 11.136719 28.484375 9.699219 28.726562 Z M 9.699219 28.726562 "/>
</g>
</svg>
