<?xml version="1.0" encoding="UTF-8"?>
<svg xmlns="http://www.w3.org/2000/svg" xmlns:xlink="http://www.w3.org/1999/xlink" width="32px" height="32px" viewBox="0 0 32 32" version="1.1">
<g id="surface1">
<path style=" stroke:none;fill-rule:nonzero;fill:rgb(99.607843%,26.27451%,39.607843%);fill-opacity:1;" d="M 29.515625 0 C 30.160156 0 30.746094 0.546875 31.167969 1.429688 C 31.59375 2.3125 31.855469 3.535156 31.855469 4.875 L 31.855469 27.121094 C 31.855469 28.460938 31.59375 29.679688 31.167969 30.5625 C 30.746094 31.445312 30.160156 31.996094 29.515625 31.996094 L 2.484375 31.996094 C 1.839844 31.996094 1.253906 31.445312 0.832031 30.5625 C 0.40625 29.6875 0.144531 28.464844 0.144531 27.125 L 0.144531 4.875 C 0.144531 3.535156 0.40625 2.3125 0.832031 1.429688 C 1.253906 0.546875 1.839844 0 2.484375 0 C 18.105469 0 25.082031 0 29.515625 0 Z M 23.949219 2.066406 L 2.484375 2.066406 C 2.109375 2.066406 1.777344 2.382812 1.53125 2.894531 C 1.285156 3.398438 1.136719 4.105469 1.136719 4.875 L 1.136719 27.121094 C 1.136719 27.894531 1.289062 28.59375 1.53125 29.105469 C 1.777344 29.617188 2.113281 29.933594 2.484375 29.933594 L 29.515625 29.933594 C 29.890625 29.933594 30.222656 29.617188 30.46875 29.105469 C 30.714844 28.59375 30.867188 27.894531 30.867188 27.121094 L 30.867188 4.875 C 30.867188 4.097656 30.714844 3.398438 30.46875 2.890625 C 30.222656 2.378906 29.890625 2.058594 29.515625 2.058594 L 26.101562 2.058594 C 25.5 2.066406 24.546875 2.066406 23.949219 2.066406 Z M 3.308594 5.234375 L 5.308594 5.234375 C 5.582031 5.234375 5.804688 5.699219 5.804688 6.269531 L 5.804688 9.785156 C 5.804688 10.355469 5.582031 10.820312 5.308594 10.820312 L 3.308594 10.820312 C 3.035156 10.820312 2.8125 10.355469 2.8125 9.785156 L 2.8125 6.269531 C 2.8125 5.699219 3.035156 5.234375 3.308594 5.234375 Z M 7.269531 5.234375 L 9.269531 5.234375 C 9.542969 5.234375 9.765625 5.699219 9.765625 6.269531 L 9.765625 9.785156 C 9.765625 10.355469 9.542969 10.820312 9.269531 10.820312 L 7.269531 10.820312 C 6.996094 10.820312 6.773438 10.355469 6.773438 9.785156 L 6.773438 6.269531 C 6.773438 5.699219 6.996094 5.234375 7.269531 5.234375 Z M 11.234375 5.234375 L 13.234375 5.234375 C 13.507812 5.234375 13.730469 5.699219 13.730469 6.269531 L 13.730469 9.785156 C 13.730469 10.355469 13.507812 10.820312 13.234375 10.820312 L 11.234375 10.820312 C 10.960938 10.820312 10.738281 10.355469 10.738281 9.785156 L 10.738281 6.269531 C 10.738281 5.699219 10.960938 5.234375 11.234375 5.234375 Z M 15.195312 5.234375 L 17.195312 5.234375 C 17.46875 5.234375 17.691406 5.699219 17.691406 6.269531 L 17.691406 9.785156 C 17.691406 10.355469 17.46875 10.820312 17.195312 10.820312 L 15.195312 10.820312 C 14.921875 10.820312 14.699219 10.355469 14.699219 9.785156 L 14.699219 6.269531 C 14.703125 5.699219 14.921875 5.234375 15.195312 5.234375 Z M 19.160156 5.234375 L 21.160156 5.234375 C 21.433594 5.234375 21.652344 5.699219 21.652344 6.269531 L 21.652344 9.785156 C 21.652344 10.355469 21.433594 10.820312 21.160156 10.820312 L 19.160156 10.820312 C 18.886719 10.820312 18.664062 10.355469 18.664062 9.785156 L 18.664062 6.269531 C 18.664062 5.699219 18.886719 5.234375 19.160156 5.234375 Z M 23.121094 5.234375 L 25.121094 5.234375 C 25.394531 5.234375 25.617188 5.699219 25.617188 6.269531 L 25.617188 9.785156 C 25.617188 10.355469 25.394531 10.820312 25.121094 10.820312 L 23.121094 10.820312 C 22.847656 10.820312 22.628906 10.355469 22.628906 9.785156 L 22.628906 6.269531 C 22.628906 5.699219 22.847656 5.234375 23.121094 5.234375 Z M 27.082031 5.234375 L 29.082031 5.234375 C 29.355469 5.234375 29.578125 5.699219 29.578125 6.269531 L 29.578125 9.785156 C 29.578125 10.355469 29.355469 10.820312 29.082031 10.820312 L 27.082031 10.820312 C 26.808594 10.820312 26.589844 10.355469 26.589844 9.785156 L 26.589844 6.269531 C 26.589844 5.699219 26.808594 5.234375 27.082031 5.234375 Z M 27.082031 12.832031 L 29.082031 12.832031 C 29.355469 12.832031 29.578125 13.300781 29.578125 13.875 L 29.578125 25 C 29.578125 25.578125 29.355469 26.042969 29.082031 26.042969 L 27.082031 26.042969 C 26.808594 26.042969 26.589844 25.578125 26.589844 25 L 26.589844 13.875 C 26.589844 13.300781 26.808594 12.832031 27.082031 12.832031 Z M 3.308594 12.921875 L 5.308594 12.921875 C 5.582031 12.921875 5.804688 13.386719 5.804688 13.957031 L 5.804688 17.472656 C 5.804688 18.042969 5.582031 18.507812 5.308594 18.507812 L 3.308594 18.507812 C 3.035156 18.507812 2.8125 18.042969 2.8125 17.472656 L 2.8125 13.957031 C 2.8125 13.386719 3.035156 12.921875 3.308594 12.921875 Z M 7.269531 12.921875 L 9.269531 12.921875 C 9.542969 12.921875 9.765625 13.386719 9.765625 13.957031 L 9.765625 17.472656 C 9.765625 18.042969 9.542969 18.507812 9.269531 18.507812 L 7.269531 18.507812 C 6.996094 18.507812 6.773438 18.042969 6.773438 17.472656 L 6.773438 13.957031 C 6.773438 13.386719 6.996094 12.921875 7.269531 12.921875 Z M 11.234375 12.921875 L 13.234375 12.921875 C 13.507812 12.921875 13.730469 13.386719 13.730469 13.957031 L 13.730469 17.472656 C 13.730469 18.042969 13.507812 18.507812 13.234375 18.507812 L 11.234375 18.507812 C 10.960938 18.507812 10.738281 18.042969 10.738281 17.472656 L 10.738281 13.957031 C 10.738281 13.386719 10.960938 12.921875 11.234375 12.921875 Z M 15.195312 12.921875 L 17.195312 12.921875 C 17.46875 12.921875 17.691406 13.386719 17.691406 13.957031 L 17.691406 17.472656 C 17.691406 18.042969 17.46875 18.507812 17.195312 18.507812 L 15.195312 18.507812 C 14.921875 18.507812 14.699219 18.042969 14.699219 17.472656 L 14.699219 13.957031 C 14.703125 13.386719 14.921875 12.921875 15.195312 12.921875 Z M 19.160156 12.921875 L 21.160156 12.921875 C 21.433594 12.921875 21.652344 13.386719 21.652344 13.957031 L 21.652344 17.472656 C 21.652344 18.042969 21.433594 18.507812 21.160156 18.507812 L 19.160156 18.507812 C 18.886719 18.507812 18.664062 18.042969 18.664062 17.472656 L 18.664062 13.957031 C 18.664062 13.386719 18.886719 12.921875 19.160156 12.921875 Z M 23.121094 12.921875 L 25.121094 12.921875 C 25.394531 12.921875 25.617188 13.386719 25.617188 13.957031 L 25.617188 17.472656 C 25.617188 18.042969 25.394531 18.507812 25.121094 18.507812 L 23.121094 18.507812 C 22.847656 18.507812 22.628906 18.042969 22.628906 17.472656 L 22.628906 13.957031 C 22.628906 13.386719 22.847656 12.921875 23.121094 12.921875 Z M 3.308594 20.53125 L 5.308594 20.53125 C 5.582031 20.53125 5.804688 20.992188 5.804688 21.5625 L 5.804688 25.082031 C 5.804688 25.652344 5.582031 26.113281 5.308594 26.113281 L 3.308594 26.113281 C 3.035156 26.113281 2.8125 25.652344 2.8125 25.082031 L 2.8125 21.5625 C 2.8125 20.992188 3.035156 20.53125 3.308594 20.53125 Z M 7.269531 20.53125 L 17.199219 20.53125 C 17.46875 20.53125 17.6875 20.992188 17.6875 21.5625 L 17.6875 25.082031 C 17.6875 25.652344 17.46875 26.113281 17.199219 26.113281 L 7.269531 26.113281 C 7 26.113281 6.78125 25.652344 6.78125 25.082031 L 6.78125 21.5625 C 6.78125 20.992188 7 20.53125 7.269531 20.53125 Z M 19.160156 20.53125 L 21.160156 20.53125 C 21.433594 20.53125 21.652344 20.992188 21.652344 21.5625 L 21.652344 25.082031 C 21.652344 25.652344 21.433594 26.113281 21.160156 26.113281 L 19.160156 26.113281 C 18.886719 26.113281 18.664062 25.652344 18.664062 25.082031 L 18.664062 21.5625 C 18.664062 20.992188 18.886719 20.53125 19.160156 20.53125 Z M 23.121094 20.53125 L 25.121094 20.53125 C 25.394531 20.53125 25.617188 20.992188 25.617188 21.5625 L 25.617188 25.082031 C 25.617188 25.652344 25.394531 26.113281 25.121094 26.113281 L 23.121094 26.113281 C 22.847656 26.113281 22.628906 25.652344 22.628906 25.082031 L 22.628906 21.5625 C 22.628906 20.992188 22.847656 20.53125 23.121094 20.53125 Z M 23.121094 20.53125 "/>
</g>
</svg>
