<svg xmlns="http://www.w3.org/2000/svg" shape-rendering="geometricPrecision" text-rendering="geometricPrecision" image-rendering="optimizeQuality" fill-rule="evenodd" clip-rule="evenodd" viewBox="0 0 479 511.915"><path fill-rule="nonzero" d="M28.947 139.549h140.479c7.97 0 15.211 3.254 20.451 8.495 5.241 5.24 8.495 12.481 8.495 20.451v77.534h35.956V67.753c0-7.97 3.255-15.212 8.496-20.452 5.24-5.24 12.481-8.495 20.451-8.495h70.156c5.524 0 10.002 4.478 10.002 10.002 0 5.524-4.478 10.002-10.002 10.002h-70.156c-2.45 0-4.685 1.01-6.309 2.634a8.913 8.913 0 00-2.633 6.309v178.276h79.17c5.524 0 10.002 4.478 10.002 10.002 0 5.524-4.478 10.002-10.002 10.002h-79.17v178.276a8.913 8.913 0 002.633 6.309l-.019.019a8.957 8.957 0 006.328 2.615h70.228c5.524 0 10.002 4.478 10.002 10.002 0 5.524-4.478 10.002-10.002 10.002h-70.228c-7.943 0-15.17-3.255-20.413-8.495l-.018-.02-.02.02c-5.241-5.241-8.496-12.482-8.496-20.452V266.033h-35.956v98.901c0 7.97-3.254 15.211-8.495 20.452-5.24 5.24-12.481 8.495-20.451 8.495H28.947c-7.97 0-15.211-3.255-20.452-8.495C3.255 380.145 0 372.904 0 364.934V168.495c0-7.97 3.255-15.211 8.495-20.451 5.241-5.241 12.482-8.495 20.452-8.495zm338.817 274.976h99.383c6.519 0 11.853 5.336 11.853 11.853v73.684c0 6.516-5.336 11.853-11.853 11.853h-99.383c-6.516 0-11.852-5.334-11.852-11.853v-73.684c0-6.519 5.333-11.853 11.852-11.853zm0-207.189h99.383c6.519 0 11.853 5.336 11.853 11.853v73.684c0 6.516-5.336 11.853-11.853 11.853h-99.383c-6.516 0-11.852-5.334-11.852-11.853v-73.684c0-6.519 5.333-11.853 11.852-11.853zm0-207.336h99.383C473.666 0 479 5.336 479 11.853v73.683c0 6.517-5.336 11.853-11.853 11.853h-99.383c-6.516 0-11.852-5.333-11.852-11.853V11.853C355.912 5.334 361.245 0 367.764 0zM178.368 257.04a9.894 9.894 0 01-.05-1.009c0-.34.016-.678.05-1.009v-86.527a8.913 8.913 0 00-2.633-6.309 8.913 8.913 0 00-6.309-2.633H28.947c-2.45 0-4.685 1.009-6.31 2.633a8.913 8.913 0 00-2.633 6.309v196.439a8.913 8.913 0 002.633 6.309c1.625 1.624 3.86 2.634 6.31 2.634h140.479c2.45 0 4.685-1.01 6.309-2.634a8.913 8.913 0 002.633-6.309V257.04z" fill="#7c84de"/></svg>