<?xml version="1.0" encoding="UTF-8"?>
<svg xmlns="http://www.w3.org/2000/svg" xmlns:xlink="http://www.w3.org/1999/xlink" width="32px" height="32px" viewBox="0 0 32 32" version="1.1">
<g id="surface1">
<path style=" stroke:none;fill-rule:nonzero;fill:rgb(48.627451%,51.764706%,87.058824%);fill-opacity:1;" d="M 6.796875 0 L 25.203125 0 C 27.058594 0 28.746094 0.910156 29.972656 2.371094 L 30.027344 2.445312 C 31.21875 3.898438 31.957031 5.886719 31.957031 8.066406 L 31.957031 23.9375 C 31.957031 26.152344 31.195312 28.167969 29.972656 29.628906 C 28.746094 31.089844 27.058594 32 25.203125 32 L 6.796875 32 C 4.941406 32 3.253906 31.089844 2.027344 29.628906 C 0.804688 28.167969 0.0429688 26.152344 0.0429688 23.933594 L 0.0429688 8.0625 C 0.0429688 5.851562 0.800781 3.835938 2.027344 2.371094 L 2.03125 2.363281 C 3.257812 0.90625 4.941406 0 6.796875 0 Z M 10.773438 9.222656 L 21.226562 9.222656 C 21.8125 9.222656 22.289062 9.796875 22.289062 10.492188 C 22.289062 11.191406 21.8125 11.761719 21.226562 11.761719 L 10.773438 11.761719 C 10.1875 11.761719 9.710938 11.191406 9.710938 10.492188 C 9.710938 9.796875 10.1875 9.222656 10.773438 9.222656 Z M 10.773438 20.238281 L 21.226562 20.238281 C 21.8125 20.238281 22.289062 20.808594 22.289062 21.507812 C 22.289062 22.203125 21.8125 22.777344 21.226562 22.777344 L 10.773438 22.777344 C 10.1875 22.777344 9.710938 22.203125 9.710938 21.507812 C 9.710938 20.808594 10.1875 20.238281 10.773438 20.238281 Z M 10.773438 14.734375 L 21.226562 14.734375 C 21.8125 14.734375 22.289062 15.304688 22.289062 16 C 22.289062 16.699219 21.8125 17.269531 21.226562 17.269531 L 10.773438 17.269531 C 10.1875 17.269531 9.710938 16.699219 9.710938 16 C 9.710938 15.304688 10.1875 14.734375 10.773438 14.734375 Z M 25.203125 2.542969 L 6.796875 2.542969 C 5.523438 2.542969 4.367188 3.164062 3.53125 4.164062 L 3.523438 4.167969 C 2.691406 5.164062 2.171875 6.542969 2.171875 8.0625 L 2.171875 23.933594 C 2.171875 25.449219 2.695312 26.828125 3.53125 27.828125 L 3.527344 27.832031 C 4.367188 28.832031 5.523438 29.453125 6.792969 29.453125 L 25.199219 29.453125 C 26.46875 29.453125 27.625 28.832031 28.460938 27.828125 C 29.300781 26.828125 29.824219 25.445312 29.824219 23.933594 L 29.824219 8.0625 C 29.824219 6.574219 29.320312 5.21875 28.515625 4.222656 L 28.464844 4.164062 C 27.628906 3.167969 26.476562 2.542969 25.203125 2.542969 Z M 25.203125 2.542969 "/>
</g>
</svg>
