<?xml version="1.0" encoding="UTF-8"?>
<svg xmlns="http://www.w3.org/2000/svg" xmlns:xlink="http://www.w3.org/1999/xlink" width="32px" height="32px" viewBox="0 0 32 32" version="1.1">
<g id="surface1">
<path style=" stroke:none;fill-rule:nonzero;fill:rgb(48.627451%,51.764706%,87.058824%);fill-opacity:1;" d="M 1.933594 8.722656 L 11.320312 8.722656 C 11.851562 8.722656 12.335938 8.929688 12.683594 9.253906 C 13.035156 9.582031 13.253906 10.035156 13.253906 10.535156 L 13.253906 15.378906 L 15.65625 15.378906 L 15.65625 4.238281 C 15.65625 3.738281 15.871094 3.285156 16.222656 2.957031 C 16.570312 2.632812 17.054688 2.429688 17.589844 2.429688 L 22.273438 2.429688 C 22.644531 2.429688 22.941406 2.707031 22.941406 3.054688 C 22.941406 3.398438 22.644531 3.679688 22.273438 3.679688 L 17.589844 3.679688 C 17.425781 3.679688 17.273438 3.742188 17.167969 3.84375 C 16.035156 3.734375 15.207031 2.785156 15.324219 1.726562 C 15.441406 0.664062 16.453125 -0.105469 17.589844 0.00390625 L 17.589844 11.144531 L 22.878906 11.144531 C 23.246094 11.144531 23.546875 11.425781 23.546875 11.769531 C 23.546875 12.117188 23.246094 12.394531 22.878906 12.394531 L 17.589844 12.394531 L 17.589844 23.539062 C 10.640625 24.660156 4.039062 20.300781 2.839844 13.800781 C 1.640625 7.300781 6.300781 1.125 13.246094 0.00390625 C 13.011719 0.222656 12.632812 0.222656 12.398438 0.00390625 C 12.164062 -0.214844 12.164062 -0.570312 12.398438 -0.789062 C 12.632812 -1.007812 13.011719 -1.007812 13.246094 -0.789062 C 13.480469 -0.570312 13.480469 -0.214844 13.246094 0.00390625 L 17.9375 0.00390625 C 18.308594 0.00390625 18.605469 0.28125 18.605469 0.628906 C 18.605469 0.972656 18.308594 1.253906 17.9375 1.253906 L 13.246094 1.253906 C 12.714844 1.253906 12.234375 1.050781 11.882812 0.722656 L 11.878906 0.722656 C 11.53125 0.394531 11.3125 -0.0585938 11.3125 -0.554688 L 11.3125 16.628906 L 8.910156 16.628906 L 8.910156 22.8125 C 8.910156 23.308594 8.691406 23.761719 8.34375 24.089844 C 7.992188 24.417969 7.507812 24.621094 6.976562 24.621094 L 1.933594 24.621094 C 1.402344 24.621094 0.917969 24.417969 0.566406 24.089844 C 0.21875 23.761719 0 23.308594 0 22.8125 L 0 10.535156 C 0 10.035156 0.21875 9.582031 0.566406 9.253906 C 0.917969 8.929688 1.402344 8.722656 1.933594 8.722656 Z M 24.570312 25.910156 L 31.207031 25.910156 C 31.644531 25.910156 32 26.242188 32 26.652344 L 32 31.257812 C 32 31.664062 31.644531 31.996094 31.207031 31.996094 L 24.570312 31.996094 C 24.132812 31.996094 23.777344 31.664062 23.777344 31.257812 L 23.777344 26.652344 C 23.777344 26.242188 24.132812 25.910156 24.570312 25.910156 Z M 24.570312 12.960938 L 31.207031 12.960938 C 31.644531 12.960938 32 13.292969 32 13.703125 L 32 18.308594 C 32 18.714844 31.644531 19.046875 31.207031 19.046875 L 24.570312 19.046875 C 24.132812 19.046875 23.777344 18.714844 23.777344 18.308594 L 23.777344 13.703125 C 23.777344 13.292969 24.132812 12.960938 24.570312 12.960938 Z M 24.570312 0.00390625 L 31.207031 0.00390625 C 31.644531 0.00390625 32 0.335938 32 0.742188 L 32 5.347656 C 32 5.757812 31.644531 6.089844 31.207031 6.089844 L 24.570312 6.089844 C 24.132812 6.089844 23.777344 5.757812 23.777344 5.347656 L 23.777344 0.742188 C 23.777344 0.335938 24.132812 0.00390625 24.570312 0.00390625 Z M 11.917969 16.066406 C 7.175781 16.085938 3.316406 12.503906 3.296875 8.066406 C 3.277344 3.628906 7.105469 0.0195312 11.847656 0.00390625 C 11.847656 -0.0195312 11.851562 -0.0390625 11.851562 -0.0585938 L 11.851562 -5.46875 C 11.863281 -5.214844 11.691406 -4.984375 11.429688 -4.910156 L 1.933594 -4.910156 C 1.769531 -4.910156 1.621094 -4.847656 1.511719 -4.746094 C 1.625 -4.851562 1.777344 -4.910156 1.933594 -4.910156 L 1.933594 7.367188 C -1.691406 7.367188 -4.628906 4.617188 -4.628906 1.226562 C -4.628906 -2.164062 -1.691406 -4.910156 1.933594 -4.910156 C 2.042969 -4.808594 2.191406 -4.746094 2.355469 -4.746094 L 11.738281 -4.746094 C 11.902344 -4.746094 12.054688 -4.808594 12.160156 -4.910156 C 12.160156 -0.414062 8.261719 3.234375 3.453125 3.234375 C -1.355469 3.234375 -5.253906 -0.414062 -5.253906 -4.910156 L -5.253906 16.066406 Z M 11.917969 16.066406 "/>
</g>
</svg>
