<?xml version="1.0" encoding="UTF-8"?>
<svg xmlns="http://www.w3.org/2000/svg" xmlns:xlink="http://www.w3.org/1999/xlink" width="32px" height="32px" viewBox="0 0 32 32" version="1.1">
<g id="surface1">
<path style=" stroke:none;fill-rule:nonzero;fill:rgb(99.607843%,26.27451%,39.607843%);fill-opacity:1;" d="M 14.097656 30.753906 L 17.902344 30.753906 C 21.25 30.753906 24.292969 29.863281 26.5 28.429688 C 28.703125 26.996094 30.074219 25.015625 30.074219 22.839844 L 30.074219 14.375 L 1.925781 14.375 L 1.925781 22.839844 C 1.925781 25.015625 3.296875 26.996094 5.5 28.429688 C 7.707031 29.863281 10.75 30.753906 14.097656 30.753906 Z M 30.074219 13.128906 L 30.074219 9.160156 C 30.074219 6.984375 28.703125 5.003906 26.5 3.570312 C 24.292969 2.136719 21.25 1.246094 17.902344 1.246094 L 16.957031 1.246094 L 16.957031 4.691406 C 18.03125 4.949219 18.804688 5.625 18.804688 6.40625 L 18.804688 9.046875 C 18.804688 9.828125 18.03125 10.503906 16.957031 10.757812 L 16.957031 13.128906 Z M 15.042969 13.128906 L 15.042969 10.757812 C 13.972656 10.503906 13.195312 9.832031 13.195312 9.046875 L 13.195312 6.40625 C 13.195312 5.621094 13.96875 4.949219 15.042969 4.691406 L 15.042969 1.246094 L 14.097656 1.246094 C 10.75 1.246094 7.707031 2.136719 5.5 3.570312 C 3.296875 5.003906 1.925781 6.984375 1.925781 9.160156 L 1.925781 13.128906 Z M 0.0117188 9.160156 C 0.0117188 6.640625 1.597656 4.351562 4.148438 2.691406 C 6.699219 1.03125 10.222656 0 14.097656 0 L 17.902344 0 C 21.777344 0 25.300781 1.03125 27.851562 2.691406 C 30.402344 4.351562 31.988281 6.640625 31.988281 9.160156 L 31.988281 22.839844 C 31.988281 25.359375 30.402344 27.648438 27.851562 29.308594 C 25.300781 30.96875 21.777344 32 17.902344 32 L 14.097656 32 C 10.222656 32 6.699219 30.96875 4.148438 29.308594 C 1.597656 27.648438 0.0117188 25.359375 0.0117188 22.839844 Z M 0.0117188 9.160156 "/>
</g>
</svg>
