<?xml version="1.0" standalone="yes"?>
<svg xmlns="http://www.w3.org/2000/svg" width="512" height="512">
<path style="fill:#a6b3c7; stroke:none;" d="M203 32C185.25 50.1236 165.494 70.1797 151 91L189.911 49L204 35L204 40L205 40L203 32M308 33L307 39L308 39L308 35L339 69L308 33z"/>
<path style="fill:#2e99ca; stroke:none;" d="M99 164L98 164L76.2585 128L58 91C51.971 100.581 50.4015 113.981 48.8696 125C44.4459 156.821 49.0065 194.964 57.49 226C59.8224 234.533 66.434 241.215 68 250C72.4839 251.13 79.4391 253.537 81.3966 258.185C83.7426 263.756 82 273.014 82 279C82 294.819 85.6559 313.644 82 329C102.079 334.99 134.636 330.647 142.211 357C144.244 364.074 143 372.692 143 380C158.431 378.05 173.56 380 189 380C193.901 380 202.216 381.594 206.682 379.397C210.874 377.334 209.671 365.222 212.09 361.001C218.471 349.862 230.693 349 242 349L241 347C267.551 347 299.977 345.543 300 380L364 380L365 352C370.011 349.13 373.032 343.923 378.039 340.935C392.976 332.022 410.963 329.991 428 330L428 280C428 273.589 426.25 264.082 428.742 258.093C431.202 252.183 439.301 250.261 445 250L445 249C443.027 245.55 446.85 240.173 448.587 237C453.721 227.623 455.511 218.417 457.386 208C462.536 179.384 464.926 149.791 460.246 121C458.6 110.874 456.591 97.1585 450 89L427.691 135L412 163L409 163C403.332 148.047 390.167 133.824 380.735 121C365.328 100.052 348.587 80.2841 331.17 61C323.543 52.556 316.857 42.1424 308 35L301 81L235 81C229.624 81 215.741 83.4705 211.742 79.3966C209.114 76.7183 209.339 70.5194 208.753 67C206.992 56.4271 204.843 45.6861 204 35C192.626 38.4662 180.523 58.1307 172.715 67C145.928 97.4251 118.781 128.335 99 164z"/>
<path style="fill:#a6b3c7; stroke:none;" d="M306 40L306 46L307 46L306 40M205 41L205 47L206 47L205 41M305 47L305 53L306 53L305 47M206 48L206 53L207 53L206 48M207 54L207 60L208 60L207 54M304 54L304 59L305 59L304 54M208 61L208 66L209 66L208 61M303 61L303 65L304 65L303 61M209 67L209 72L210 72L209 67M302 67L302 71L303 71L302 67M339 70L340 71L339 70M340 71L341 72L340 71M301 72L301 78L302 78L301 72M341 72L342 73L341 72M210 73L210 79L211 79L210 73M342 73L343 74L342 73M343 74L344 75L343 74M344 75L345 76L344 75M345.333 76.6667L345.667 77.3333L345.333 76.6667M346 78L347 79L346 78M211 79C214.407 82.8991 224.099 81 229 81L281 81C286.217 81 297.394 83.1265 301 79C285.937 82.5862 268.29 79.709 253 79.0394C238.951 78.4241 225.121 79.9839 211 79M347 79L348 80L347 79M348 80L349 81L348 80M349 81L350 82L349 81M350 82L351 83L350 82M351 83L352 84L351 83M352.333 84.6667L352.667 85.3333L352.333 84.6667M353 86L354 87L353 86M354 87L355 88L354 87M449 87L449 90L451 87L449 87M355 88L356 89L355 88M57 89L57 91L59 91L59 89L57 89M356 89L357 90L356 89M451.333 89.6667L451.667 90.3333L451.333 89.6667M357.333 90.6667L357.667 91.3333L357.333 90.6667M448 90L448 93L449 93L448 90M59 91L59 94L60 94L59 91M452.333 91.6667L452.667 92.3333L452.333 91.6667M56.3333 92.6667L56.6667 93.3333L56.3333 92.6667M150 92L151 93L150 92M358 92L359 93L358 92M149 93L150 94L149 93M359 93L360 94L359 93M447.333 93.6667L447.667 94.3333L447.333 93.6667M453 93L453 96L454 96L453 93M55 94L55 97L56 97L55 94M60.3333 94.6667L60.6667 95.3333L60.3333 94.6667M148 94L149 95L148 94M360 94L361 95L360 94M147 95L148 96L147 95M361.333 95.6667L361.667 96.3333L361.333 95.6667M146 96L147 97L146 96M446.333 96.6667L446.667 97.3333L446.333 96.6667M454.333 96.6667L454.667 97.3333L454.333 96.6667M54 97L54 100L55 100L54 97M61.3333 97.6667L61.6667 98.3333L61.3333 97.6667M362 97L363 98L362 97M145 98L146 99L145 98M363 98L364 99L363 98M445.333 98.6667L445.667 99.3333L445.333 98.6667M62.3333 99.6667L62.6667 100.333L62.3333 99.6667M144 99L145 100L144 99M364 99L365 100L364 99M455 99L455 102L456 102L455 99M53 100L53 103L54 103L53 100M143 100L144 101L143 100M365.333 100.667L365.667 101.333L365.333 100.667M444.333 100.667L444.667 101.333L444.333 100.667M63.3333 101.667L63.6667 102.333L63.3333 101.667M142 101L143 102L142 101M141.333 102.667L141.667 103.333L141.333 102.667M366 102L367 103L366 102M443.333 102.667L443.667 103.333L443.333 102.667M456 102L456 105L457 105L456 102M64.3333 103.667L64.6667 104.333L64.3333 103.667M367 103L368 104L367 103M52.3333 104.667L52.6667 105.333L52.3333 104.667M140 104L141 105L140 104M368 104L369 105L368 104M442.333 104.667L442.667 105.333L442.333 104.667M65.3333 105.667L65.6667 106.333L65.3333 105.667M139 105L140 106L139 105M369.333 105.667L369.667 106.333L369.333 105.667M457 105L457 108L458 108L457 105M138 106L139 107L138 106M441 106L441 109L442 109L441 106M51 107L51 110L52 110L51 107M137 107L138 108L137 107M370 107L371 108L370 107M66 108L67 109L66 108M136.333 108.667L136.667 109.333L136.333 108.667M371 108L372 109L371 108M372 109L373 110L372 109M440.333 109.667L440.667 110.333L440.333 109.667M458 109L458 112L459 112L458 109M67 110L68 111L67 110M135 110L136 111L135 110M373.333 110.667L373.667 111.333L373.333 110.667M50 111L50 115L51 115L50 111M68.3333 111.667L68.6667 112.333L68.3333 111.667M134 111L135 112L134 111M439 111L440 112L439 111M133.333 112.667L133.667 113.333L133.333 112.667M374 112L375 113L374 112M438.333 112.667L438.667 113.333L438.333 112.667M375 113L376 114L375 113M459 113L459 117L460 117L459 113M69 114L70 115L69 114M132 114L133 115L132 114M376.333 114.667L376.667 115.333L376.333 114.667M437.333 114.667L437.667 115.333L437.333 114.667M131 115L132 116L131 115M49 116L49 121L50 121L49 116M70 116L71 117L70 116M130 116L131 117L130 116M377 116L378 117L377 116M436.333 116.667L436.667 117.333L436.333 116.667M378 117L379 118L378 117M71 118L72 119L71 118M129 118L130 119L129 118M379.333 118.667L379.667 119.333L379.333 118.667M435.333 118.667L435.667 119.333L435.333 118.667M460 118L460 123L461 123L460 118M72.3333 119.667L72.6667 120.333L72.3333 119.667M128 119L129 120L128 119M127 120L128 121L127 120M380 120L381 121L380 120M434.333 120.667L434.667 121.333L434.333 120.667M73.3333 121.667L73.6667 122.333L73.3333 121.667M381.333 121.667L381.667 122.333L381.333 121.667M48 122L48 128L49 128L48 122M126 122L127 123L126 122M433.333 122.667L433.667 123.333L433.333 122.667M74.3333 123.667L74.6667 124.333L74.3333 123.667M125 123L126 124L125 123M382 123L383 124L382 123M124.333 124.667L124.667 125.333L124.333 124.667M383 124L384 125L383 124M432.333 124.667L432.667 125.333L432.333 124.667M75.3333 125.667L75.6667 126.333L75.3333 125.667M384 125L385 126L384 125M461 125L461 131L462 131L461 125M123 126L124 127L123 126M431.333 126.667L431.667 127.333L431.333 126.667M76.3333 127.667L76.6667 128.333L76.3333 127.667M122.333 127.667L122.667 128.333L122.333 127.667M385 127L386 128L385 127M386 128L387 129L386 128M430.333 128.667L430.667 129.333L430.333 128.667M77.3333 129.667L77.6667 130.333L77.3333 129.667M121 129L122 130L121 129M387.333 129.667L387.667 130.333L387.333 129.667M47 130L47 140L48 140L47 130M120 130L121 131L120 130M429.333 130.667L429.667 131.333L429.333 130.667M78.3333 131.667L78.6667 132.333L78.3333 131.667M119.333 131.667L119.667 132.333L119.333 131.667M388 131L389 132L388 131M389.333 132.667L389.667 133.333L389.333 132.667M428.333 132.667L428.667 133.333L428.333 132.667M462 132L462 141L463 141L462 132M79 133L80 134L79 133M118 133L119 134L118 133M80.3333 134.667L80.6667 135.333L80.3333 134.667M117.333 134.667L117.667 135.333L117.333 134.667M390 134L391 135L390 134M427.333 134.667L427.667 135.333L427.333 134.667M391 135L392 136L391 135M81.3333 136.667L81.6667 137.333L81.3333 136.667M116 136L117 137L116 136M392.333 136.667L392.667 137.333L392.333 136.667M426.333 136.667L426.667 137.333L426.333 136.667M115.333 137.667L115.667 138.333L115.333 137.667M82.3333 138.667L82.6667 139.333L82.3333 138.667M393 138L394 139L393 138M425 138L426 139L425 138M114 139L115 140L114 139M394.333 139.667L394.667 140.333L394.333 139.667M424.333 139.667L424.667 140.333L424.333 139.667M83 140L84 141L83 140M113.333 140.667L113.667 141.333L113.333 140.667M84.3333 141.667L84.6667 142.333L84.3333 141.667M395 141L396 142L395 141M423.333 141.667L423.667 142.333L423.333 141.667M112 142L113 143L112 142M396.333 142.667L396.667 143.333L396.333 142.667M85.3333 143.667L85.6667 144.333L85.3333 143.667M111.333 143.667L111.667 144.333L111.333 143.667M422.333 143.667L422.667 144.333L422.333 143.667M463 143L463 158L464 158L463 143M397 144L398 145L397 144M86 145L87 146L86 145M110 145L111 146L110 145M398 145L399 146L398 145M421 145L422 146L421 145M87.3333 146.667L87.6667 147.333L87.3333 146.667M109.333 146.667L109.667 147.333L109.333 146.667M399.333 146.667L399.667 147.333L399.333 146.667M420.333 146.667L420.667 147.333L420.333 146.667M88.3333 148.667L88.6667 149.333L88.3333 148.667M108 148L109 149L108 148M400 148L401 149L400 148M419.333 148.667L419.667 149.333L419.333 148.667M401.333 149.667L401.667 150.333L401.333 149.667M47 150L47 165L48 165L47 150M89 150L90 151L89 150M107 150L108 151L107 150M418 150L419 151L418 150M90.3333 151.667L90.6667 152.333L90.3333 151.667M106 151L107 152L106 151M402 151L403 152L402 151M417.333 151.667L417.667 152.333L417.333 151.667M105.333 152.667L105.667 153.333L105.333 152.667M403.333 152.667L403.667 153.333L403.333 152.667M91 153L92 154L91 153M416 153L417 154L416 153M92.3333 154.667L92.6667 155.333L92.3333 154.667M104 154L105 155L104 154M404 154L405 155L404 154M415 155L416 156L415 155M93 156L94 157L93 156M103 156L104 157L103 156M405 156L406 157L405 156M414.333 156.667L414.667 157.333L414.333 156.667M94.3333 157.667L94.6667 158.333L94.3333 157.667M102.333 157.667L102.667 158.333L102.333 157.667M406 157L407 158L406 157M407.333 158.667L407.667 159.333L407.333 158.667M413 158L414 159L413 158M95 159L97 162L95 159M101 159L102 160L101 159M412.333 159.667L412.667 160.333L412.333 159.667M100.333 160.667L100.667 161.333L100.333 160.667M408 160L409 161L408 160M409 161C410.127 163.006 410.873 163.006 412 161L409 161M97 162L98 163L97 162M99 162L100 163L99 162M462 162L462 173L463 173L462 162M98 163L99 164L98 163M48 167L48 174L49 174L48 167M461 175L461 182L462 182L461 175M49 176L49 182L50 182L49 176M50 183L50 189L51 189L50 183M460 185L460 191L461 191L460 185M51 190L51 195L52 195L51 190M459 192L459 198L460 198L459 192M52 196L52 202L53 202L52 196M458 200L458 206L459 206L458 200z"/>
<path style="fill:#267da7; stroke:none;" d="M114 201L115 202L114 201M120 202L119 204L120 202z"/>
<path style="fill:#a6b3c7; stroke:none;" d="M53 203L53 207L54 207L53 203z"/>
<path style="fill:#267da7; stroke:none;" d="M105 205L106 206L105 205M102 207L103 208L102 207z"/>
<path style="fill:#a6b3c7; stroke:none;" d="M457 207L457 211L458 211L457 207M54 208L54 213L55 213L54 208z"/>
<path style="fill:#267da7; stroke:none;" d="M96 213L101 210L96 213M106 210L107 211L106 210M140 212L141 213L140 212M367 212L368 213L367 212z"/>
<path style="fill:#a6b3c7; stroke:none;" d="M456 212L456 217L457 217L456 212z"/>
<path style="fill:#267da7; stroke:none;" d="M94.3333 213.667L94.6667 214.333L94.3333 213.667M372 213L373 214L372 213z"/>
<path style="fill:#a6b3c7; stroke:none;" d="M55 214L55 220L56 220L55 214M144 214L144 215L147 215L144 214z"/>
<path style="fill:#fefeff; stroke:none;" d="M147 214.439C139.814 215.573 133.731 219.135 128 223.503C119.737 229.802 110.96 238.485 108.529 249C101.972 277.369 130.206 310.203 160 305.561C168.13 304.294 176.381 301.156 183 296.239C219.475 269.145 190.652 207.551 147 214.439z"/>
<path style="fill:#a6b3c7; stroke:none;" d="M158 214L158 215L161 215L158 214z"/>
<path style="fill:#267da7; stroke:none;" d="M175 214L176 215L175 214z"/>
<path style="fill:#a6b3c7; stroke:none;" d="M347 214L347 215L350 215L347 214z"/>
<path style="fill:#fefeff; stroke:none;" d="M350 214.428C342.992 215.434 336.949 217.846 331 221.699C289.69 248.456 313.037 312.33 362 304.866C368.64 303.853 375.367 301.099 381 297.452C420.863 271.646 396.855 207.701 350 214.428z"/>
<path style="fill:#a6b3c7; stroke:none;" d="M362 214L362 215L365 215L362 214z"/>
<path style="fill:#267da7; stroke:none;" d="M374 214L375 215L374 214M92 215L93 216L92 215z"/>
<path style="fill:#a6b3c7; stroke:none;" d="M140.667 215.333L141.333 215.667L140.667 215.333M164 215L165 216L164 215z"/>
<path style="fill:#267da7; stroke:none;" d="M170 215L171 216L170 215M173 215L174 216L173 215z"/>
<path style="fill:#a6b3c7; stroke:none;" d="M343 215L344 216L343 215M367 215L368 216L367 215M138 216L139 217L138 216M167 216L168 217L167 216M340 216L341 217L340 216M370 216L371 217L370 216M136.667 217.333L137.333 217.667L136.667 217.333M169.667 217.333L170.333 217.667L169.667 217.333z"/>
<path style="fill:#267da7; stroke:none;" d="M176.667 217.333L177.333 217.667L176.667 217.333z"/>
<path style="fill:#a6b3c7; stroke:none;" d="M338 217L339 218L338 217M372 217L373 218L372 217M135 218L136 219L135 218M172 218L173 219L172 218z"/>
<path style="fill:#267da7; stroke:none;" d="M334 218L335 219L334 218z"/>
<path style="fill:#a6b3c7; stroke:none;" d="M336 218L337 219L336 218M374 218L375 219L374 218M455 218L455 222L456 222L455 218M133 219L134 220L133 219M173 219L174 220L173 219M334 219L335 220L334 219M375.667 219.333L376.333 219.667L375.667 219.333z"/>
<path style="fill:#267da7; stroke:none;" d="M413 219L414 220L413 219z"/>
<path style="fill:#a6b3c7; stroke:none;" d="M131.667 220.333L132.333 220.667L131.667 220.333M175 220L176 221L175 220z"/>
<path style="fill:#267da7; stroke:none;" d="M180 220L181 221L180 220M327 220L328 221L327 220z"/>
<path style="fill:#a6b3c7; stroke:none;" d="M332 220L333 221L332 220M377 220L378 221L377 220M56 221L56 225L57 225L56 221M130 221L131 222L130 221M176 221L177 222L176 221z"/>
<path style="fill:#267da7; stroke:none;" d="M182.667 221.333L183.333 221.667L182.667 221.333M325 221L326 222L325 221z"/>
<path style="fill:#a6b3c7; stroke:none;" d="M331 221L332 222L331 221M378.667 221.333L379.333 221.667L378.667 221.333M129 222L130 223L129 222M178 222L179 223L178 222M329 222L330 223L329 222M380 222L381 223L380 222M127 223L128 224L127 223M179 223L180 224L179 223M327.667 223.333L328.333 223.667L327.667 223.333M381 223L382 224L381 223M454 223L454 226L455 226L454 223M126 224L127 225L126 224M180.667 224.333L181.333 224.667L180.667 224.333M326 224L327 225L326 224M383 224L384 225L383 224M125 225L126 226L125 225M182 225L183 226L182 225M325 225L326 226L325 225M384 225L385 226L384 225M57.3333 226.667L57.6667 227.333L57.3333 226.667M122 228L125 226L122 228M183 226L184 227L183 226M324 226L325 227L324 226M385 226L386 227L385 226M184 227L185 228L184 227M323 227L324 228L323 227M387 227L388 228L387 227M453.333 227.667L453.667 228.333L453.333 227.667M121 228L122 229L121 228M185 228L186 229L185 228M322 228L323 229L322 228M388 228L389 229L388 228M58.3333 229.667L58.6667 230.333L58.3333 229.667M120 229L121 230L120 229M186 229L187 230L186 229M321 229L322 230L321 229M389 229L390 230L389 229M452.333 229.667L452.667 230.333L452.333 229.667M119 230L120 231L119 230M187 230L188 231L187 230M320 230L321 231L320 230M390 230L391 231L390 230M59.3333 231.667L59.6667 232.333L59.3333 231.667M118 231L119 232L118 231M188 231L189 232L188 231M319 231L320 232L319 231M391 231L392 232L391 231M451.333 231.667L451.667 232.333L451.333 231.667M117 232L116 235L117 232M149 232L149 233L159 233L149 232M189 232L190 233L189 232M318 232L319 233L318 232M349 232L349 233L353 233L349 232z"/>
<path style="fill:#cd072c; stroke:none;" d="M353 232.468C313.371 236.422 320.317 296.643 360 291.816C396.743 287.346 389.694 228.806 353 232.468z"/>
<path style="fill:#a6b3c7; stroke:none;" d="M357 232L357 233L362 233L357 232M392 232L393 233L392 232M60 233L61 234L60 233M145.667 233.333L146.333 233.667L145.667 233.333z"/>
<path style="fill:#cd072c; stroke:none;" d="M147 233.519C109.427 241.67 125.877 299.841 163 291.319C199.67 282.902 183.459 225.609 147 233.519z"/>
<path style="fill:#a6b3c7; stroke:none;" d="M161.667 233.333L162.333 233.667L161.667 233.333M317 233L318 234L317 233M345.667 233.333L346.333 233.667L345.667 233.333M364 233L365 234L364 233M450 233L451 234L450 233M142.667 234.333L143.333 234.667L142.667 234.333M165 234L166 235L165 234M343 234L344 235L343 234M367 234L368 235L367 234M61 235L62 236L61 235M115 235L116 236L115 235M140 235L141 236L140 235M167 235L168 236L167 235M191 235L192 236L191 235M316 235L317 236L316 235M341 235L342 236L341 235M369 235L370 236L369 235M394 235L395 236L394 235M449 235L450 236L449 235M62.3333 236.667L62.6667 237.333L62.3333 236.667M114 236L115 237L114 236M139 236L140 237L139 236M169 236L170 237L169 236M192 236L193 237L192 236M315 236L316 237L315 236M339 236L340 237L339 236M370 236L371 237L370 236M395 236L396 237L395 236M113.333 237.667L113.667 238.333L113.333 237.667M137 237L138 238L137 237M170 237L171 238L170 237M193.333 237.667L193.667 238.333L193.333 237.667M314.333 237.667L314.667 238.333L314.333 237.667M338 237L339 238L338 237M372 237L373 238L372 237M396.333 237.667L396.667 238.333L396.333 237.667M448 237L449 238L448 237M63.3333 238.667L63.6667 239.333L63.3333 238.667M136 238L137 239L136 238M172 238L173 239L172 238M373 238L374 239L373 238M447.333 238.667L447.667 239.333L447.333 238.667M112 239L113 240L112 239M135 239L136 240L135 239M173 239L174 240L173 239M194 239L195 240L194 239M313 239L314 240L313 239M335 239L336 240L335 239M374 239L375 240L374 239M397 239L398 240L397 239M64 240L65 241L64 240M111.333 240.667L111.667 241.333L111.333 240.667M134 240L135 241L134 240M174 240L175 241L174 240M334 240L335 241L334 240M398.333 240.667L398.667 241.333L398.333 240.667M446.333 240.667L446.667 241.333L446.333 240.667M133 241L134 242L133 241M175 241L176 242L175 241M195 241L196 242L195 241M312 241L313 242L312 241M333 241L334 242L333 241M376 241L377 242L376 241M65 242L66 243L65 242M110.333 242.667L110.667 243.333L110.333 242.667M132 242L133 243L132 242M176 242L177 243L176 242M196.333 242.667L196.667 243.333L196.333 242.667M332 242L333 243L332 242M377 242L378 243L377 242M399.333 242.667L399.667 243.333L399.333 242.667M131 243L132 244L131 243M177 243L178 244L177 243z"/>
<path style="fill:#267da7; stroke:none;" d="M253.667 243.333L254.333 243.667L253.667 243.333z"/>
<path style="fill:#a6b3c7; stroke:none;" d="M311 243L312 244L311 243M331 243L332 244L331 243M378 243L379 244L378 243M445 243L446 244L445 243M56.3333 244.667L56.6667 245.333L56.3333 244.667M66 244L67 245L66 244M109.333 244.667L109.667 245.333L109.333 244.667M130 244L131 245L130 244M379 244L380 245L379 244M452 245L452 246L455 246L455 245L452 245z"/>
<path style="fill:#267da7; stroke:none;" d="M57 245C59.0538 254.315 64.0355 261.399 67.3935 270C72.3097 282.592 70.9652 306.705 63.9537 318C61.6441 321.721 53.6928 329.945 61 332L61 333L54 333L54 334L83 330C81.8927 312.8 82 295.256 82 278C82 272.376 84.1051 261.377 80.9722 256.529C76.9007 250.228 63.5566 248.06 57 245z"/>
<path style="fill:#a6b3c7; stroke:none;" d="M58.6667 245.333L59.3333 245.667L58.6667 245.333M178 245L179 246L178 245M197.333 245.667L197.667 246.333L197.333 245.667z"/>
<path style="fill:#267da7; stroke:none;" d="M246 245L247 246L246 245z"/>
<path style="fill:#a6b3c7; stroke:none;" d="M248.667 245.333L249.333 245.667L248.667 245.333z"/>
<path style="fill:#fefeff; stroke:none;" d="M250 245.533C239.118 248.178 238.543 258.266 235.452 267C233.67 272.036 230.131 276.469 230.083 282C229.929 299.781 249.36 305.657 264 302.1C283.875 297.272 281.059 282.733 275.559 268C270.874 255.451 267.287 241.332 250 245.533z"/>
<path style="fill:#a6b3c7; stroke:none;" d="M260 245L261 246L260 245M310.333 245.667L310.667 246.333L310.333 245.667M330 245L331 246L330 245M400.333 245.667L400.667 246.333L400.333 245.667M444 245L443 249L447 249L447 248L444 245z"/>
<path style="fill:#267da7; stroke:none;" d="M453 245L429.742 255.529L428 276L428 330L442 331L441 333L444 332L458 334C454.251 326.11 447.536 320.049 444.044 312C439.864 302.367 439.997 282.27 442.303 272C444.369 262.799 453.936 255.264 453 245z"/>
<path style="fill:#a6b3c7; stroke:none;" d="M60 246L61 247L60 246M67.3333 246.667L67.6667 247.333L67.3333 246.667M129 246L130 247L129 246M179 246L180 247L179 246z"/>
<path style="fill:#267da7; stroke:none;" d="M244 246L245 247L244 246z"/>
<path style="fill:#a6b3c7; stroke:none;" d="M246 246L247 247L246 246M263 246L264 247L263 246M329 246L330 247L329 246M380 246L381 247L380 246M450 246L451 247L450 246z"/>
<path style="fill:#2e99ca; stroke:none;" d="M451 246L452 247L451 246M453 246L454 247L453 246z"/>
<path style="fill:#a6b3c7; stroke:none;" d="M57.3333 247.667L57.6667 248.333L57.3333 247.667M61.6667 247.333L62.3333 247.667L61.6667 247.333M108.333 247.667L108.667 248.333L108.333 247.667M198 247L198 250L199 250L198 247M265 247L266 248L265 247M381 247L382 248L381 247M401 247L401 250L402 250L401 247M448.667 247.333L449.333 247.667L448.667 247.333M453 247L454 248L453 247M63.6667 248.333L64.3333 248.667L63.6667 248.333M128 248L129 249L128 248M180 248L181 249L180 248z"/>
<path style="fill:#267da7; stroke:none;" d="M242 248L243 249L242 248z"/>
<path style="fill:#a6b3c7; stroke:none;" d="M243 248L244 249L243 248M309.333 248.667L309.667 249.333L309.333 248.667M328 248L329 249L328 248z"/>
<path style="fill:#2e99ca; stroke:none;" d="M447 248L448 249L447 248M65.6667 249.333L66.3333 249.667L65.6667 249.333z"/>
<path style="fill:#a6b3c7; stroke:none;" d="M67 249L68 250L67 249M242 249L243 250L242 249M382 249L383 250L382 249z"/>
<path style="fill:#2e99ca; stroke:none;" d="M452 249L453 250L452 249z"/>
<path style="fill:#a6b3c7; stroke:none;" d="M58 250L58 253L59 253L58 250M107 250L107 258L108 258L107 250M127 250L128 251L127 250M181 250L182 251L181 250M241 250L242 251L241 250M327.333 250.667L327.667 251.333L327.333 250.667M452.333 250.667L452.667 251.333L452.333 250.667M199 251L199 255L200 255L199 251M269 251L270 252L269 251M383.333 251.667L383.667 252.333L383.333 251.667M402 251L402 268L403 268L402 251M126.333 252.667L126.667 253.333L126.333 252.667M182 252L183 253L182 252M270 252L271 253L270 252M308 252L308 268L309 268L308 252z"/>
<path style="fill:#2e99ca; stroke:none;" d="M451 252L452 253L451 252M59 253L60 254L59 253z"/>
<path style="fill:#a6b3c7; stroke:none;" d="M239 253L240 254L239 253M326.333 253.667L326.667 254.333L326.333 253.667M451.333 253.667L451.667 254.333L451.333 253.667M59.3333 254.667L59.6667 255.333L59.3333 254.667M271 254L272 255L271 254z"/>
<path style="fill:#267da7; stroke:none;" d="M272 254L273 255L272 254z"/>
<path style="fill:#a6b3c7; stroke:none;" d="M384.333 254.667L384.667 255.333L384.333 254.667M183 255L183 258L184 258L183 255M238 255L239 256L238 255z"/>
<path style="fill:#2e99ca; stroke:none;" d="M450 255L451 256L450 255M60 256L61 257L60 256z"/>
<path style="fill:#a6b3c7; stroke:none;" d="M125 256L125 259L126 259L125 256M272.333 256.667L272.667 257.333L272.333 256.667M450.333 256.667L450.667 257.333L450.333 256.667M60.3333 257.667L60.6667 258.333L60.3333 257.667M200 258L200 269L201 269L200 258M237 258L238 259L237 258M325 258L325 266L326 266L325 258M449.333 258.667L449.667 259.333L449.333 258.667z"/>
<path style="fill:#2e99ca; stroke:none;" d="M61 259L62 260L61 259z"/>
<path style="fill:#a6b3c7; stroke:none;" d="M273.333 259.667L273.667 260.333L273.333 259.667M385 259L385 265L386 265L385 259M61 260L62 261L61 260M107 260L107 267L108 267L107 260z"/>
<path style="fill:#2e99ca; stroke:none;" d="M448 260L449 261L448 260M62 261L63 262L62 261z"/>
<path style="fill:#a6b3c7; stroke:none;" d="M448 261L449 262L448 261M62 262L63 263L62 262M236.333 262.667L236.667 263.333L236.333 262.667z"/>
<path style="fill:#2e99ca; stroke:none;" d="M447 262L448 263L447 262M63 263L64 264L63 263z"/>
<path style="fill:#a6b3c7; stroke:none;" d="M274.333 263.667L274.667 264.333L274.333 263.667M447 263L448 264L447 263M63 264L64 265L63 264M446 264L447 265L446 264M64 265L65 266L64 265M125 265L125 269L126 269L125 265z"/>
<path style="fill:#2e99ca; stroke:none;" d="M445 265L446 266L445 265M65 266L67 268L65 266z"/>
<path style="fill:#a6b3c7; stroke:none;" d="M235.333 266.667L235.667 267.333L235.333 266.667M445 266L446 267L445 266M65 267L66 268L65 267z"/>
<path style="fill:#267da7; stroke:none;" d="M234 267L235 268L234 267z"/>
<path style="fill:#a6b3c7; stroke:none;" d="M275.333 267.667L275.667 268.333L275.333 267.667M444 267L445 268L444 267M66 268L67 269L66 268M108 268L108 271L109 271L108 268M183.333 268.667L183.667 269.333L183.333 268.667M384.333 268.667L384.667 269.333L384.333 268.667M443 268L444 269L443 268z"/>
<path style="fill:#2e99ca; stroke:none;" d="M67 269L68 270L67 269z"/>
<path style="fill:#a6b3c7; stroke:none;" d="M234 269L235 270L234 269M326.333 269.667L326.667 270.333L326.333 269.667M401.333 269.667L401.667 270.333L401.333 269.667z"/>
<path style="fill:#2e99ca; stroke:none;" d="M442 269L443 270L442 269z"/>
<path style="fill:#a6b3c7; stroke:none;" d="M67 270L67 275L68 275L67 270M126.333 270.667L126.667 271.333L126.333 270.667M199 270L199 273L200 273L199 270M276 270L277 271L276 270M309 270L309 273L310 273L309 270M442 270L442 307L443 307C443 296.351 446.111 279.798 442 270z"/>
<path style="fill:#267da7; stroke:none;" d="M232 271L233 272L232 271z"/>
<path style="fill:#a6b3c7; stroke:none;" d="M233 271L234 272L233 271M383.333 271.667L383.667 272.333L383.333 271.667M109.333 272.667L109.667 273.333L109.333 272.667M182.333 272.667L182.667 273.333L182.333 272.667M277 272L278 273L277 272M327.333 272.667L327.667 273.333L327.333 272.667M400 272L400 275L401 275L400 272M127 273L128 274L127 273M232 273L233 274L232 273z"/>
<path style="fill:#2e99ca; stroke:none;" d="M68 274L68 289L69 289L68 274z"/>
<path style="fill:#a6b3c7; stroke:none;" d="M110.333 274.667L110.667 275.333L110.333 274.667M198.333 274.667L198.667 275.333L198.333 274.667M310.333 274.667L310.667 275.333L310.333 274.667M382 274L383 275L382 274M128 275L129 276L128 275M181 275L182 276L181 275M231 275L232 276L231 275M279 275L280 276L279 275M328 275L329 276L328 275M399.333 275.667L399.667 276.333L399.333 275.667z"/>
<path style="fill:#267da7; stroke:none;" d="M84.3333 276.667L84.6667 277.333L84.3333 276.667z"/>
<path style="fill:#a6b3c7; stroke:none;" d="M311.333 276.667L311.667 277.333L311.333 276.667M381 276L382 277L381 276M111 277L112 278L111 277M129 277L130 278L129 277M180 277L181 278L180 277M197.333 277.667L197.667 278.333L197.333 277.667M230 277L231 278L230 277M280 277L281 278L280 277M329 277L330 278L329 277M398.333 277.667L398.667 278.333L398.333 277.667M380 278L381 279L380 278M112 279L113 280L112 279M130 279L131 280L130 279M179 279L180 280L179 279M196.333 279.667L196.667 280.333L196.333 279.667M312 279L313 280L312 279M330 279L331 280L330 279M379 279L380 280L379 279M397.333 279.667L397.667 280.333L397.333 279.667M113.333 280.667L113.667 281.333L113.333 280.667M131 280L132 281L131 280z"/>
<path style="fill:#267da7; stroke:none;" d="M228 280L229 281L228 280z"/>
<path style="fill:#a6b3c7; stroke:none;" d="M229.333 280.667L229.667 281.333L229.333 280.667M281 280L281 284L282 284L281 280M331 280L332 281L331 280M195.333 281.667L195.667 282.333L195.333 281.667z"/>
<path style="fill:#267da7; stroke:none;" d="M282 281L282 285L283 285L282 281z"/>
<path style="fill:#a6b3c7; stroke:none;" d="M313 281L314 282L313 281M396 281L397 282L396 281M114 282L115 283L114 282M177 282L178 283L177 282M332 282L333 283L332 282M176 283L177 284L176 283M194.333 283.667L194.667 284.333L194.333 283.667M314 283L315 284L314 283M333 283L334 284L333 283M376 283L377 284L376 283M395 283L396 284L395 283M115 284L116 285L115 284M175 284L176 285L175 284M315 284L316 285L315 284M334 284L335 285L334 284M375 284L376 285L375 284M394 284L395 285L394 284M116 285L117 286L116 285M174 285L175 286L174 285M193 285L194 286L193 285z"/>
<path style="fill:#267da7; stroke:none;" d="M229 285L230 286L229 285z"/>
<path style="fill:#a6b3c7; stroke:none;" d="M335 285L336 286L335 285M117 286L118 287L117 286M137 286L138 287L137 286M173 286L174 287L173 286M192.333 286.667L192.667 287.333L192.333 286.667M230.333 286.667L230.667 287.333L230.333 286.667M316 286L317 287L316 286M372 286L373 287L372 286M393 286L394 287L393 286M118 287L119 288L118 287M138 287L139 288L138 287M280.333 287.667L280.667 288.333L280.333 287.667M317 287L318 288L317 287M338 287L339 288L338 287M371 287L372 288L371 287M392 287L393 288L392 287M119 288L120 289L119 288M140 288L141 289L140 288M170 288L171 289L170 288M191 288L192 289L191 288M318 288L319 289L318 288M339 288L340 289L339 288M369 288L370 289L369 288M391 288L392 289L391 288M68 289L68 307L69 307L68 289M142 289L143 290L142 289M168 289L169 290L168 289M190 289L191 290L190 289z"/>
<path style="fill:#267da7; stroke:none;" d="M230 289L231 290L230 289z"/>
<path style="fill:#a6b3c7; stroke:none;" d="M231.333 289.667L231.667 290.333L231.333 289.667M319 289L320 290L319 289M341 289L342 290L341 289M368 289L369 290L368 289M390 289L391 290L390 289M144.667 290.333L145.333 290.667L144.667 290.333M166 290L167 291L166 290M189 290L190 291L189 290M279 290L280 291L279 290z"/>
<path style="fill:#267da7; stroke:none;" d="M280 290L281 291L280 290z"/>
<path style="fill:#a6b3c7; stroke:none;" d="M320 290L321 291L320 290M344 290L345 291L344 290M365.667 290.333L366.333 290.667L365.667 290.333M389 290L390 291L389 290M122 291L123 292L122 291M147.667 291.333L148.333 291.667L147.667 291.333M162.667 291.333L163.333 291.667L162.667 291.333M188 291L189 292L188 291z"/>
<path style="fill:#267da7; stroke:none;" d="M229 291L230 292L229 291z"/>
<path style="fill:#a6b3c7; stroke:none;" d="M321 291L322 292L321 291M347.667 291.333L348.333 291.667L347.667 291.333M362.667 291.333L363.333 291.667L362.667 291.333M388 291L389 292L388 291M123 292L124 293L123 292M151 292L151 293L160 293L151 292M187 292L188 293L187 292M232 292L233 293L232 292M278 292L279 293L278 292M322 292L323 293L322 292M351 292L351 293L359 293L351 292M387 292L388 293L387 292M124 293L125 294L124 293M186 293L187 294L186 293M323 293L324 294L323 293M386 293L387 294L386 293M126 294L127 295L126 294M185 294L186 295L185 294M233 294L234 295L233 294M277 294L278 295L277 294M324 294L325 295L324 294M385 294L386 295L385 294M127 295L128 296L127 295M184 295L185 296L184 295M234 295L235 296L234 295M325.667 295.333L326.333 295.667L325.667 295.333M383.667 295.333L384.333 295.667L383.667 295.333M128.667 296.333L129.333 296.667L128.667 296.333M182 296L183 297L182 296M327 296L328 297L327 296M382 296L383 297L382 296M130 297L131 298L130 297M181 297L182 298L181 297M236 297L237 298L236 297M274 297L275 298L274 297M329 297L330 298L329 297M381 297L382 298L381 297M132 298L133 299L132 298M179 298L180 299L179 298M237 298L238 299L237 298M273 298L274 299L273 298M330 298L331 299L330 298M379 298L380 299L379 298M133.667 299.333L134.333 299.667L133.667 299.333M178 299L179 300L178 299M239 299L240 300L239 299M271 299L272 300L271 299M332 299L333 300L332 299M377 299L378 300L377 299M135.667 300.333L136.333 300.667L135.667 300.333M176 300L177 301L176 300M241 300L242 301L241 300M269 300L270 301L269 300M334 300L335 301L334 300M375.667 300.333L376.333 300.667L375.667 300.333M137.667 301.333L138.333 301.667L137.667 301.333M173.667 301.333L174.333 301.667L173.667 301.333M243.667 301.333L244.333 301.667L243.667 301.333M266.667 301.333L267.333 301.667L266.667 301.333M336.667 301.333L337.333 301.667L336.667 301.333M373.667 301.333L374.333 301.667L373.667 301.333M140 302L141 303L140 302M171.667 302.333L172.333 302.667L171.667 302.333M247 302L247 303L250 303L247 302M262.667 302.333L263.333 302.667L262.667 302.333M338.667 302.333L339.333 302.667L338.667 302.333M370.667 302.333L371.333 302.667L370.667 302.333M142.667 303.333L143.333 303.667L142.667 303.333M168.667 303.333L169.333 303.667L168.667 303.333M341.667 303.333L342.333 303.667L341.667 303.333M368.667 303.333L369.333 303.667L368.667 303.333M145 304L145 305L148 305L145 304M165.667 304.333L166.333 304.667L165.667 304.333M344.667 304.333L345.333 304.667L344.667 304.333M364 304L364 305L367 305L364 304M149 305L149 306L152 306L149 305M160 305L160 306L164 306L160 305M347 305L347 306L351 306L347 305M357 305L357 306L363 306L357 305z"/>
<path style="fill:#2e99ca; stroke:none;" d="M68.3333 307.667L68.6667 308.333L68.3333 307.667M442.333 307.667L442.667 308.333L442.333 307.667z"/>
<path style="fill:#a6b3c7; stroke:none;" d="M443.333 308.667L443.667 309.333L443.333 308.667M67.3333 309.667L67.6667 310.333L67.3333 309.667z"/>
<path style="fill:#2e99ca; stroke:none;" d="M443 310L444 311L443 310M67 311L68 312L67 311z"/>
<path style="fill:#a6b3c7; stroke:none;" d="M444 311L446 316L447 316L444 311M66 312L67 313L66 312z"/>
<path style="fill:#2e99ca; stroke:none;" d="M66 313L67 314L66 313M444 313L445 314L444 313z"/>
<path style="fill:#a6b3c7; stroke:none;" d="M65 314L66 315L65 314z"/>
<path style="fill:#2e99ca; stroke:none;" d="M65 315L66 316L65 315M445 315L446 316L445 315z"/>
<path style="fill:#a6b3c7; stroke:none;" d="M64 316L65 317L64 316z"/>
<path style="fill:#2e99ca; stroke:none;" d="M446 316L447 317L446 316M64 317L65 318L64 317z"/>
<path style="fill:#a6b3c7; stroke:none;" d="M447 317L449 319L447 317M63 318L64 319L63 318z"/>
<path style="fill:#2e99ca; stroke:none;" d="M447 318L448 319L447 318z"/>
<path style="fill:#a6b3c7; stroke:none;" d="M62 319L63 320L62 319z"/>
<path style="fill:#2e99ca; stroke:none;" d="M448 319L449 320L448 319M62 320L63 321L62 320M429 320L430 321L429 320z"/>
<path style="fill:#a6b3c7; stroke:none;" d="M449 320L451 324L452 324L449 320M61 321L62 322L61 321z"/>
<path style="fill:#2e99ca; stroke:none;" d="M449 321L450 322L449 321z"/>
<path style="fill:#a6b3c7; stroke:none;" d="M60 322L59 325L60 325L60 322z"/>
<path style="fill:#2e99ca; stroke:none;" d="M450 322L451 323L450 322M60 323L61 324L60 323M446 323L445 327L449 326L448 323L446 323z"/>
<path style="fill:#267da7; stroke:none;" d="M446 324L447 325L446 324z"/>
<path style="fill:#a6b3c7; stroke:none;" d="M452 324L454 328L455 328L452 324M58 325L59 326L58 325z"/>
<path style="fill:#2e99ca; stroke:none;" d="M429.333 325.667L429.667 326.333L429.333 325.667M440 325L441 326L440 325M450 325L451 326L450 325M452 325L453 326L452 325M58 326L59 327L58 326M453 326L454 327L453 326z"/>
<path style="fill:#a6b3c7; stroke:none;" d="M57 327L58 328L57 327z"/>
<path style="fill:#2e99ca; stroke:none;" d="M449 327L442 329L448 333L447 330L452 330L452 329L449 327z"/>
<path style="fill:#a6b3c7; stroke:none;" d="M56 328L55 330L56 328z"/>
<path style="fill:#2e99ca; stroke:none;" d="M436 328L437 329L436 328z"/>
<path style="fill:#a6b3c7; stroke:none;" d="M455 328L459 334L460 334L455 328z"/>
<path style="fill:#2e99ca; stroke:none;" d="M56 329L56 332L53 333L53 334L61 333L61 332L56 329z"/>
<path style="fill:#267da7; stroke:none;" d="M418 329L419 330L418 329z"/>
<path style="fill:#2e99ca; stroke:none;" d="M440 329L441 330L440 329M455 329L456 330L455 329M78 330L78 331L82 331L78 330z"/>
<path style="fill:#a6b3c7; stroke:none;" d="M82 330L82 331L91 331L82 330z"/>
<path style="fill:#267da7; stroke:none;" d="M408 330L408 331L411 331L408 330z"/>
<path style="fill:#a6b3c7; stroke:none;" d="M417 330L417 331L429 331L417 330z"/>
<path style="fill:#2e99ca; stroke:none;" d="M429 330L429 331L432 331L429 330z"/>
<path style="fill:#267da7; stroke:none;" d="M444 330L445 331L444 330z"/>
<path style="fill:#2e99ca; stroke:none;" d="M456 330L457 331L456 330z"/>
<path style="fill:#a6b3c7; stroke:none;" d="M54 331L55 332L54 331z"/>
<path style="fill:#267da7; stroke:none;" d="M55 331L56 332L55 331z"/>
<path style="fill:#2e99ca; stroke:none;" d="M73.6667 331.333L74.3333 331.667L73.6667 331.333z"/>
<path style="fill:#a6b3c7; stroke:none;" d="M75 331L75 332L79 332L75 331M95 331L95 332L101 332L95 331z"/>
<path style="fill:#267da7; stroke:none;" d="M401.667 331.333L402.333 331.667L401.667 331.333z"/>
<path style="fill:#a6b3c7; stroke:none;" d="M407 331L407 332L413 332L407 331M432 331L432 332L435 332L432 331z"/>
<path style="fill:#2e99ca; stroke:none;" d="M435.667 331.333L436.333 331.667L435.667 331.333M440 331L440 333L442 331L440 331M449 331L449 332L454 332L454 331L449 331M457.333 331.667L457.667 332.333L457.333 331.667z"/>
<path style="fill:#a6b3c7; stroke:none;" d="M53 332L54 333L53 332z"/>
<path style="fill:#2e99ca; stroke:none;" d="M63.6667 332.333L64.3333 332.667L63.6667 332.333M69.6667 332.333L70.3333 332.667L69.6667 332.333z"/>
<path style="fill:#a6b3c7; stroke:none;" d="M71.6667 332.333L72.3333 332.667L71.6667 332.333M104 332L104 333L107 333L104 332M400 332L400 333L404 333L400 332M437 332L437 333L440 333L437 332z"/>
<path style="fill:#2e99ca; stroke:none;" d="M443.333 332.667L443.667 333.333L443.333 332.667M65.6667 333.333L66.3333 333.667L65.6667 333.333z"/>
<path style="fill:#a6b3c7; stroke:none;" d="M67.6667 333.333L68.3333 333.667L67.6667 333.333M109 333L109 334L112 334L109 333M396.667 333.333L397.333 333.667L396.667 333.333M441.667 333.333L442.333 333.667L441.667 333.333z"/>
<path style="fill:#2e99ca; stroke:none;" d="M458 333L459 334L458 333z"/>
<path style="fill:#a6b3c7; stroke:none;" d="M54 334L54 335L65 335L54 334M114.667 334.333L115.333 334.667L114.667 334.333M392.667 334.333L393.333 334.667L392.667 334.333M444 334L444 335L447 335L444 334z"/>
<path style="fill:#2e99ca; stroke:none;" d="M447 334L447 335L453 335L447 334z"/>
<path style="fill:#a6b3c7; stroke:none;" d="M453 334L453 335L458 335L453 334M117 335L118 336L117 335M389 335L390 336L389 335M120 336L121 337L120 336M386.667 336.333L387.333 336.667L386.667 336.333M122 337L123 338L122 337M384 337L385 338L384 337M124.667 338.333L125.333 338.667L124.667 338.333M382 338L383 339L382 338M126 339L127 340L126 339M380 339L381 340L380 339M128 340L129 341L128 340M378 340L379 341L378 340M130 341L131 342L130 341M377 341L378 342L377 341M131 342L132 343L131 342z"/>
<path style="fill:#267da7; stroke:none;" d="M374 342L375 343L374 342z"/>
<path style="fill:#a6b3c7; stroke:none;" d="M375 342L376 343L375 342z"/>
<path style="fill:#267da7; stroke:none;" d="M372 343L373 344L372 343z"/>
<path style="fill:#a6b3c7; stroke:none;" d="M374 343L375 344L374 343M134 344L135 345L134 344M135 345L136 346L135 345z"/>
<path style="fill:#267da7; stroke:none;" d="M370 345L368 348L370 345z"/>
<path style="fill:#a6b3c7; stroke:none;" d="M136 346L137 347L136 346M137 347L138 348L137 347z"/>
<path style="fill:#267da7; stroke:none;" d="M241 347L241 348L266 348L241 347M230 348L231 349L230 348z"/>
<path style="fill:#a6b3c7; stroke:none;" d="M242 348L242 349L268 349L242 348M229 349L229 350L233 350L229 349M276 349L276 350L280 350L276 349M368 349L369 350L368 349M139 350L140 351L139 350M225.667 350.333L226.333 350.667L225.667 350.333M282.667 350.333L283.333 350.667L282.667 350.333M367 350L368 351L367 350M222.667 351.333L223.333 351.667L222.667 351.333M285.667 351.333L286.333 351.667L285.667 351.333M140 352L141 353L140 352M220 352L221 353L220 352M288 352L289 353L288 352z"/>
<path style="fill:#267da7; stroke:none;" d="M365 352L366 353L365 352z"/>
<path style="fill:#a6b3c7; stroke:none;" d="M366 352L367 353L366 352M63 353L64 364L65 364C64.6058 358.772 63.864 354.979 70 354L63 353M219 353L220 354L219 353M289 353L290 354L289 353M442 353L442 354L447 357L448 357L448 353L442 353z"/>
<path style="fill:#2e99ca; stroke:none;" d="M226 470L226 471L223 471L223 472L286 472L286 471L284 471L284 470L297 469C312.019 472.566 331.223 464.064 346 461.003C367.524 456.545 396.538 455.497 415 442.779C435.106 428.929 436.378 403.767 440.801 382C442.676 372.77 446.185 363.352 447 354C432.593 354.04 408.883 352.905 396 359.674C380.887 367.614 387.244 388.215 375.907 399.96C354.184 422.465 283.108 419.114 283 380L227 380C223.96 418.462 156.115 423.81 133.093 399.96C122.007 388.474 127.268 367.218 112.999 359.417C102.978 353.939 88.0898 355.724 77 354.911C73.7877 354.676 68.4345 352.753 65.6073 355.028C62.4041 357.605 65.4594 364.842 66.2685 368C69.2343 379.577 71.6848 391.32 74.2099 403C76.4526 413.374 79.253 423.285 85.5949 431.996C101.624 454.014 134.577 454.946 159 460.003C181.91 464.747 202.61 470.065 226 470z"/>
<path style="fill:#a6b3c7; stroke:none;" d="M73 354L73 355L80 355L73 354M141 354L142 355L141 354M217 354L218 355L217 354M291 354L292 355L291 354M365.333 354.667L365.667 355.333L365.333 354.667M433 354L433 355L439 355L433 354M84 355L84 356L98 356L84 355M216 355L217 356L216 355M292 355L293 356L292 355M415 355L415 356L430 356L415 355M102 356L102 357L106 357L102 356z"/>
<path style="fill:#267da7; stroke:none;" d="M143 356L144 357L143 356z"/>
<path style="fill:#a6b3c7; stroke:none;" d="M215 356L216 357L215 356M293 356L294 357L293 356M404 356L404 357L408 357L404 356M108.667 357.333L109.333 357.667L108.667 357.333M142 357L142 360L143 360L142 357M214 357L215 358L214 357M294 357L295 358L294 357M400.667 357.333L401.333 357.667L400.667 357.333M111.667 358.333L112.333 358.667L111.667 358.333M213 358L214 359L213 358M295 358L296 359L295 358M397.667 358.333L398.333 358.667L397.667 358.333M446 358L446 361L447 361L446 358M113 359L114 360L113 359M212.333 359.667L212.667 360.333L212.333 359.667M364 359L364 380L365 380L364 359M395 359L396 360L395 359M115 360L116 361L115 360M296 360L297 361L296 360M394 360L395 361L394 360M116 361L117 362L116 361M211.333 361.667L211.667 362.333L211.333 361.667M392 361L393 362L392 361M445 361L445 365L446 365L445 361M117 362L118 363L117 362M297 362L298 363L297 362M391 362L392 363L391 362M118 363L119 364L118 363M390 363L391 364L390 363M119 364L120 365L119 364M210 364L210 367L211 367L210 364M298 364L298 368L299 368L298 364M389 364L390 365L389 364M65 365L65 368L66 368L65 365M388 365L389 366L388 365M444 365L444 369L445 369L444 365M120 366L121 367L120 366M387 367L388 368L387 367M66 368L66 372L67 372L66 368M121 368L122 369L121 368M209 369L209 374L210 374L209 369M386 369L387 370L386 369M443 369L443 373L444 373L443 369M122.333 370.667L122.667 371.333L122.333 370.667M299 370L299 379L300 379L299 370z"/>
<path style="fill:#267da7; stroke:none;" d="M145 372L146 373L145 372z"/>
<path style="fill:#a6b3c7; stroke:none;" d="M385 372L385 375L386 375L385 372M67 373L67 377L68 377L67 373M123 373L123 380L124 380L123 373M442 374L442 378L443 378L442 374z"/>
<path style="fill:#267da7; stroke:none;" d="M145 375L146 376L145 375z"/>
<path style="fill:#a6b3c7; stroke:none;" d="M68 377L68 381L69 381L68 377M441 378L441 382L442 382L441 378z"/>
<path style="fill:#267da7; stroke:none;" d="M146 379L146 380L176 380L146 379z"/>
<path style="fill:#a6b3c7; stroke:none;" d="M208 379C189.121 384.58 162.726 380 143 380L143 381L193 381L208 379z"/>
<path style="fill:#267da7; stroke:none;" d="M329 379L329 380L354 380L329 379z"/>
<path style="fill:#a6b3c7; stroke:none;" d="M384 379L384 385L385 385L384 379M226 380L226 385L227 385L226 380M300 380L300 381L363 381L343 380L300 380M69 381L69 385L70 385L69 381M283 382L283 389L284 389L283 382M124 383L124 386L125 386L124 383M440 383L440 388L441 388L440 383M70 386L70 390L71 390L70 386M383.333 386.667L383.667 387.333L383.333 386.667M125.333 387.667L125.667 388.333L125.333 387.667M225 388L225 391L226 391L225 388M439 388L439 393L440 393L439 388M382.333 389.667L382.667 390.333L382.333 389.667M71 390L71 395L72 395L71 390M126 390L127 391L126 390M284.333 390.667L284.667 391.333L284.333 390.667M127 392L128 393L127 392M224.333 392.667L224.667 393.333L224.333 392.667M381 392L382 393L381 392M285.333 393.667L285.667 394.333L285.333 393.667M128 394L129 395L128 394M380 394L381 395L380 394M438 394L438 398L439 398L438 394M72 395L72 399L73 399L72 395M129 395L130 396L129 395M223 395L224 396L223 395M379 395L380 396L379 395M286 396L287 397L286 396M130 397L131 398L130 397M287 397L288 398L287 397M378 397L379 398L378 397M131 398L132 399L131 398M221 398L222 399L221 398M377 398L378 399L377 398M73 399L73 403L74 403L73 399M132 399L133 400L132 399M220 399L221 400L220 399M376 399L377 400L376 399M437 399L437 404L438 404L437 399M133 400L134 401L133 400M219 400L220 401L219 400z"/>
<path style="fill:#267da7; stroke:none;" d="M222.667 400.333L223.333 400.667L222.667 400.333z"/>
<path style="fill:#a6b3c7; stroke:none;" d="M290 400L291 401L290 400M375 400L376 401L375 400M134 401L135 402L134 401M218 401L219 402L218 401M291 401L292 402L291 401M374 401L375 402L374 401M135 402L136 403L135 402M292 402L293 403L292 402M373 402L374 403L373 402M136 403L137 404L136 403M215 403L216 404L215 403M294 403L295 404L294 403M372 403L373 404L372 403M74 404L74 408L75 408L74 404M138 404L139 405L138 404M213 404L214 405L213 404M295 404L296 405L295 404M370 404L371 405L370 404M139 405L140 406L139 405M211 405L212 406L211 405M297 405L298 406L297 405M369 405L370 406L369 405M436 405L436 409L437 409L436 405z"/>
<path style="fill:#267da7; stroke:none;" d="M137 406L138 407L137 406z"/>
<path style="fill:#a6b3c7; stroke:none;" d="M141 406L142 407L141 406M209 406L210 407L209 406M299 406L300 407L299 406M367 406L368 407L367 406M143 407L144 408L143 407M207 407L208 408L207 407M302 407L303 408L302 407M365 407L366 408L365 407M75 408L75 412L76 412L75 408M145 408L146 409L145 408M204.667 408.333L205.333 408.667L204.667 408.333M304.667 408.333L305.333 408.667L304.667 408.333M362.667 408.333L363.333 408.667L362.667 408.333z"/>
<path style="fill:#267da7; stroke:none;" d="M140 409L141 410L140 409z"/>
<path style="fill:#a6b3c7; stroke:none;" d="M148 409L149 410L148 409M201.667 409.333L202.333 409.667L201.667 409.333M308.667 409.333L309.333 409.667L308.667 409.333M359.667 409.333L360.333 409.667L359.667 409.333z"/>
<path style="fill:#267da7; stroke:none;" d="M362 409L363 410L362 409z"/>
<path style="fill:#a6b3c7; stroke:none;" d="M435 409L435 413L436 413L435 409M151.667 410.333L152.333 410.667L151.667 410.333M196.667 410.333L197.333 410.667L196.667 410.333M312.667 410.333L313.333 410.667L312.667 410.333M355.667 410.333L356.333 410.667L355.667 410.333M155 411L155 412L158 412L155 411M190 411L190 412L193 412L190 411M317 411L317 412L321 412L317 411M349 411L349 412L352 412L349 411M76 412L76 415L77 415L76 412M165 412L165 413L185 413L165 412M326 412L326 413L341 413L326 412M434 413L434 416L435 416L434 413M77.3333 416.667L77.6667 417.333L77.3333 416.667M433.333 417.667L433.667 418.333L433.333 417.667M78.3333 419.667L78.6667 420.333L78.3333 419.667M432.333 419.667L432.667 420.333L432.333 419.667M79.3333 421.667L79.6667 422.333L79.3333 421.667M431.333 422.667L431.667 423.333L431.333 422.667M80.3333 423.667L80.6667 424.333L80.3333 423.667M430.333 424.667L430.667 425.333L430.333 424.667M81.3333 425.667L81.6667 426.333L81.3333 425.667M429 426L430 427L429 426M82 427L83 428L82 427M83.3333 428.667L83.6667 429.333L83.3333 428.667M428 428L429 429L428 428M427 429L428 430L427 429M84 430L85 431L84 430M426 431L427 432L426 431M85 432L86 433L85 432M425 432L426 433L425 432M86 433L87 434L86 433M424.333 433.667L424.667 434.333L424.333 433.667M87 434L88 435L87 434M88 435L89 436L88 435M423 435L424 436L423 435M89.3333 436.667L89.6667 437.333L89.3333 436.667M422 436L423 437L422 436M421 437L422 438L421 437M90 438L93 440L90 438M420 438L421 439L420 438M419 439L420 440L419 439M93 440L94 441L93 440M418 440L419 441L418 440M94 441L95 442L94 441M415 443L418 441L415 443M95.6667 442.333L96.3333 442.667L95.6667 442.333M97 443L98 444L97 443M414 443L415 444L414 443M98.6667 444.333L99.3333 444.667L98.6667 444.333M412 444L413 445L412 444M100.667 445.333L101.333 445.667L100.667 445.333M410.667 445.333L411.333 445.667L410.667 445.333M102.667 446.333L103.333 446.667L102.667 446.333M408.667 446.333L409.333 446.667L408.667 446.333M104.667 447.333L105.333 447.667L104.667 447.333M406 447L407 448L406 447M106 448L106 449L109 449L106 448M403.667 448.333L404.333 448.667L403.667 448.333M109.667 449.333L110.333 449.667L109.667 449.333M399 449L399 450L402 450L399 449M112.667 450.333L113.333 450.667L112.667 450.333M396 450L396 451L399 451L396 450M115 451L115 452L118 452L115 451M392 451L392 452L396 452L392 451M118 452L118 453L122 453L118 452M388 452L388 453L392 453L388 452M122 453L122 454L126 454L122 453M383 453L383 454L388 454L383 453M128 454L128 455L132 455L128 454M377 454L377 455L383 455L377 454M133 455L133 456L137 456L133 455M372 455L372 456L377 456L372 455M138 456L138 457L142 457L138 456M366 456L366 457L371 457L366 456M143 457L143 458L147 458L143 457M362 457L362 458L366 458L362 457M148 458L148 459L152 459L148 458M357 458L357 459L361 459L357 458M153 459L153 460L157 460L153 459M353 459L353 460L357 460L353 459M158 460L158 461L162 461L158 460M348 460L348 461L352 461L348 460M162 461L162 462L166 462L162 461M343 461L343 462L347 462L343 461M167 462L167 463L171 463L167 462M339 462L339 463L343 463L339 462M171 463L171 464L175 464L171 463M335 463L335 464L338 464L335 463M176 464L176 465L179 465L176 464M330 464L330 465L334 465L330 464M180 465L180 466L183 466L180 465M326 465L326 466L329 466L326 465M184 466L184 467L188 467L184 466M321 466L321 467L325 467L321 466M189 467L189 468L192 468L189 467M317 467L317 468L320 468L317 467M193 468L193 469L197 469L193 468M312 468L312 469L315 469L312 468M198 469L198 470L202 470L198 469z"/>
<path style="fill:#267da7; stroke:none;" d="M207 469L208 470L207 469M209.667 469.333L210.333 469.667L209.667 469.333M297.667 469.333L298.333 469.667L297.667 469.333z"/>
<path style="fill:#a6b3c7; stroke:none;" d="M306 469L306 470L310 470L306 469M205 470L205 471L212 471L205 470z"/>
<path style="fill:#267da7; stroke:none;" d="M217 470L217 471L226 471L217 470M284 470L284 471L291 471L284 470z"/>
<path style="fill:#a6b3c7; stroke:none;" d="M297 470L297 471L303 471L297 470M215 471L215 472L223 472L215 471z"/>
<path style="fill:#267da7; stroke:none;" d="M233 471L233 472L277 472C265.537 467.19 245.48 471 233 471z"/>
<path style="fill:#a6b3c7; stroke:none;" d="M286 471L286 472L295 472L286 471M232 472L232 473L277 473C265.299 468.09 244.742 472 232 472z"/>
</svg>
