<?xml version="1.0" encoding="UTF-8"?>
<svg xmlns="http://www.w3.org/2000/svg" xmlns:xlink="http://www.w3.org/1999/xlink" width="32px" height="32px" viewBox="0 0 32 32" version="1.1">
<g id="surface1">
<path style=" stroke:none;fill-rule:nonzero;fill:rgb(65.098039%,70.196078%,78.039216%);fill-opacity:1;" d="M 12.6875 2 C 11.578125 3.132812 10.34375 4.386719 9.4375 5.6875 L 11.871094 3.0625 L 12.75 2.1875 L 12.75 2.5 L 12.8125 2.5 L 12.6875 2 M 19.25 2.0625 L 19.1875 2.4375 L 19.25 2.4375 L 19.25 2.1875 L 21.1875 4.3125 Z M 19.25 2.0625 "/>
<path style=" stroke:none;fill-rule:nonzero;fill:rgb(18.039216%,60%,79.215686%);fill-opacity:1;" d="M 6.1875 10.25 L 6.125 10.25 L 4.765625 8 L 3.625 5.6875 C 3.25 6.285156 3.148438 7.125 3.054688 7.8125 C 2.777344 9.800781 3.0625 12.183594 3.59375 14.125 C 3.738281 14.660156 4.152344 15.074219 4.25 15.625 C 4.53125 15.695312 4.964844 15.847656 5.085938 16.136719 C 5.234375 16.484375 5.125 17.0625 5.125 17.4375 C 5.125 18.425781 5.351562 19.601562 5.125 20.5625 C 6.378906 20.9375 8.414062 20.664062 8.886719 22.3125 C 9.015625 22.753906 8.9375 23.292969 8.9375 23.75 C 9.902344 23.628906 10.847656 23.75 11.8125 23.75 C 12.117188 23.75 12.636719 23.851562 12.917969 23.710938 C 13.179688 23.582031 13.105469 22.828125 13.253906 22.5625 C 13.65625 21.867188 14.417969 21.8125 15.125 21.8125 L 15.0625 21.6875 C 16.722656 21.6875 18.75 21.597656 18.75 23.75 L 22.75 23.75 L 22.8125 22 C 23.125 21.820312 23.316406 21.496094 23.628906 21.308594 C 24.5625 20.75 25.683594 20.625 26.75 20.625 L 26.75 17.5 C 26.75 17.097656 26.640625 16.503906 26.796875 16.128906 C 26.949219 15.761719 27.457031 15.640625 27.8125 15.625 L 27.8125 15.5625 C 27.6875 15.347656 27.929688 15.011719 28.035156 14.8125 C 28.359375 14.226562 28.46875 13.652344 28.585938 13 C 28.910156 11.210938 29.058594 9.363281 28.765625 7.5625 C 28.664062 6.929688 28.535156 6.074219 28.125 5.5625 L 26.730469 8.4375 L 25.75 10.1875 L 25.5625 10.1875 C 25.207031 9.253906 24.386719 8.363281 23.796875 7.5625 C 22.832031 6.253906 21.785156 5.019531 20.699219 3.8125 C 20.222656 3.285156 19.804688 2.632812 19.25 2.1875 L 18.8125 5.0625 L 14.6875 5.0625 C 14.351562 5.0625 13.484375 5.21875 13.234375 4.960938 C 13.070312 4.792969 13.082031 4.40625 13.046875 4.1875 C 12.9375 3.527344 12.800781 2.855469 12.75 2.1875 C 12.039062 2.402344 11.28125 3.632812 10.792969 4.1875 C 9.121094 6.089844 7.421875 8.019531 6.1875 10.25 Z M 6.1875 10.25 "/>
<path style=" stroke:none;fill-rule:nonzero;fill:rgb(65.098039%,70.196078%,78.039216%);fill-opacity:1;" d="M 19.125 2.5 L 19.125 2.875 L 19.1875 2.875 L 19.125 2.5 M 12.8125 2.5625 L 12.8125 2.9375 L 12.875 2.9375 L 12.8125 2.5625 M 19.0625 2.9375 L 19.0625 3.3125 L 19.125 3.3125 L 19.0625 2.9375 M 12.875 3 L 12.875 3.3125 L 12.9375 3.3125 L 12.875 3 M 12.9375 3.375 L 12.9375 3.75 L 13 3.75 L 12.9375 3.375 M 19 3.375 L 19 3.6875 L 19.0625 3.6875 L 19 3.375 M 13 3.8125 L 13 4.125 L 13.0625 4.125 L 13 3.8125 M 18.9375 3.8125 L 18.9375 4.0625 L 19 4.0625 L 18.9375 3.8125 M 13.0625 4.1875 L 13.0625 4.5 L 13.125 4.5 L 13.0625 4.1875 M 18.875 4.1875 L 18.875 4.4375 L 18.9375 4.4375 L 18.875 4.1875 M 21.1875 4.375 L 21.25 4.4375 L 21.1875 4.375 M 21.25 4.4375 L 21.3125 4.5 L 21.25 4.4375 M 18.8125 4.5 L 18.8125 4.875 L 18.875 4.875 L 18.8125 4.5 M 21.3125 4.5 L 21.375 4.5625 L 21.3125 4.5 M 13.125 4.5625 L 13.125 4.9375 L 13.1875 4.9375 L 13.125 4.5625 M 21.375 4.5625 L 21.4375 4.625 L 21.375 4.5625 M 21.4375 4.625 L 21.5 4.6875 L 21.4375 4.625 M 21.5 4.6875 L 21.5625 4.75 L 21.5 4.6875 M 21.582031 4.792969 L 21.605469 4.832031 L 21.582031 4.792969 M 21.625 4.875 L 21.6875 4.9375 L 21.625 4.875 M 13.1875 4.9375 C 13.402344 5.179688 14.007812 5.0625 14.3125 5.0625 L 17.5625 5.0625 C 17.886719 5.0625 18.585938 5.195312 18.8125 4.9375 C 17.871094 5.160156 16.769531 4.980469 15.8125 4.941406 C 14.933594 4.902344 14.070312 5 13.1875 4.9375 M 21.6875 4.9375 L 21.75 5 L 21.6875 4.9375 M 21.75 5 L 21.8125 5.0625 L 21.75 5 M 21.8125 5.0625 L 21.875 5.125 L 21.8125 5.0625 M 21.875 5.125 L 21.9375 5.1875 L 21.875 5.125 M 21.9375 5.1875 L 22 5.25 L 21.9375 5.1875 M 22.019531 5.292969 L 22.042969 5.332031 L 22.019531 5.292969 M 22.0625 5.375 L 22.125 5.4375 L 22.0625 5.375 M 22.125 5.4375 L 22.1875 5.5 L 22.125 5.4375 M 28.0625 5.4375 L 28.0625 5.625 L 28.1875 5.4375 L 28.0625 5.4375 M 22.1875 5.5 L 22.25 5.5625 L 22.1875 5.5 M 3.5625 5.5625 L 3.5625 5.6875 L 3.6875 5.6875 L 3.6875 5.5625 L 3.5625 5.5625 M 22.25 5.5625 L 22.3125 5.625 L 22.25 5.5625 M 28.207031 5.605469 L 28.230469 5.644531 L 28.207031 5.605469 M 22.332031 5.667969 L 22.355469 5.707031 L 22.332031 5.667969 M 28 5.625 L 28 5.8125 L 28.0625 5.8125 L 28 5.625 M 3.6875 5.6875 L 3.6875 5.875 L 3.75 5.875 L 3.6875 5.6875 M 28.269531 5.730469 L 28.292969 5.769531 L 28.269531 5.730469 M 3.519531 5.792969 L 3.542969 5.832031 L 3.519531 5.792969 M 9.375 5.75 L 9.4375 5.8125 L 9.375 5.75 M 22.375 5.75 L 22.4375 5.8125 L 22.375 5.75 M 9.3125 5.8125 L 9.375 5.875 L 9.3125 5.8125 M 22.4375 5.8125 L 22.5 5.875 L 22.4375 5.8125 M 27.957031 5.855469 L 27.980469 5.894531 L 27.957031 5.855469 M 28.3125 5.8125 L 28.3125 6 L 28.375 6 L 28.3125 5.8125 M 3.4375 5.875 L 3.4375 6.0625 L 3.5 6.0625 L 3.4375 5.875 M 3.769531 5.917969 L 3.792969 5.957031 L 3.769531 5.917969 M 9.25 5.875 L 9.3125 5.9375 L 9.25 5.875 M 22.5 5.875 L 22.5625 5.9375 L 22.5 5.875 M 9.1875 5.9375 L 9.25 6 L 9.1875 5.9375 M 22.582031 5.980469 L 22.605469 6.019531 L 22.582031 5.980469 M 9.125 6 L 9.1875 6.0625 L 9.125 6 M 27.894531 6.042969 L 27.917969 6.082031 L 27.894531 6.042969 M 28.394531 6.042969 L 28.417969 6.082031 L 28.394531 6.042969 M 3.375 6.0625 L 3.375 6.25 L 3.4375 6.25 L 3.375 6.0625 M 3.832031 6.105469 L 3.855469 6.144531 L 3.832031 6.105469 M 22.625 6.0625 L 22.6875 6.125 L 22.625 6.0625 M 9.0625 6.125 L 9.125 6.1875 L 9.0625 6.125 M 22.6875 6.125 L 22.75 6.1875 L 22.6875 6.125 M 27.832031 6.167969 L 27.855469 6.207031 L 27.832031 6.167969 M 3.894531 6.230469 L 3.917969 6.269531 L 3.894531 6.230469 M 9 6.1875 L 9.0625 6.25 L 9 6.1875 M 22.75 6.1875 L 22.8125 6.25 L 22.75 6.1875 M 28.4375 6.1875 L 28.4375 6.375 L 28.5 6.375 L 28.4375 6.1875 M 3.3125 6.25 L 3.3125 6.4375 L 3.375 6.4375 L 3.3125 6.25 M 8.9375 6.25 L 9 6.3125 L 8.9375 6.25 M 22.832031 6.292969 L 22.855469 6.332031 L 22.832031 6.292969 M 27.769531 6.292969 L 27.792969 6.332031 L 27.769531 6.292969 M 3.957031 6.355469 L 3.980469 6.394531 L 3.957031 6.355469 M 8.875 6.3125 L 8.9375 6.375 L 8.875 6.3125 M 8.832031 6.417969 L 8.855469 6.457031 L 8.832031 6.417969 M 22.875 6.375 L 22.9375 6.4375 L 22.875 6.375 M 27.707031 6.417969 L 27.730469 6.457031 L 27.707031 6.417969 M 28.5 6.375 L 28.5 6.5625 L 28.5625 6.5625 L 28.5 6.375 M 4.019531 6.480469 L 4.042969 6.519531 L 4.019531 6.480469 M 22.9375 6.4375 L 23 6.5 L 22.9375 6.4375 M 3.269531 6.542969 L 3.292969 6.582031 L 3.269531 6.542969 M 8.75 6.5 L 8.8125 6.5625 L 8.75 6.5 M 23 6.5 L 23.0625 6.5625 L 23 6.5 M 27.644531 6.542969 L 27.667969 6.582031 L 27.644531 6.542969 M 4.082031 6.605469 L 4.105469 6.644531 L 4.082031 6.605469 M 8.6875 6.5625 L 8.75 6.625 L 8.6875 6.5625 M 23.082031 6.605469 L 23.105469 6.644531 L 23.082031 6.605469 M 28.5625 6.5625 L 28.5625 6.75 L 28.625 6.75 L 28.5625 6.5625 M 8.625 6.625 L 8.6875 6.6875 L 8.625 6.625 M 27.5625 6.625 L 27.5625 6.8125 L 27.625 6.8125 L 27.5625 6.625 M 3.1875 6.6875 L 3.1875 6.875 L 3.25 6.875 L 3.1875 6.6875 M 8.5625 6.6875 L 8.625 6.75 L 8.5625 6.6875 M 23.125 6.6875 L 23.1875 6.75 L 23.125 6.6875 M 4.125 6.75 L 4.1875 6.8125 L 4.125 6.75 M 8.519531 6.792969 L 8.542969 6.832031 L 8.519531 6.792969 M 23.1875 6.75 L 23.25 6.8125 L 23.1875 6.75 M 23.25 6.8125 L 23.3125 6.875 L 23.25 6.8125 M 27.519531 6.855469 L 27.542969 6.894531 L 27.519531 6.855469 M 28.625 6.8125 L 28.625 7 L 28.6875 7 L 28.625 6.8125 M 4.1875 6.875 L 4.25 6.9375 L 4.1875 6.875 M 8.4375 6.875 L 8.5 6.9375 L 8.4375 6.875 M 23.332031 6.917969 L 23.355469 6.957031 L 23.332031 6.917969 M 3.125 6.9375 L 3.125 7.1875 L 3.1875 7.1875 L 3.125 6.9375 M 4.269531 6.980469 L 4.292969 7.019531 L 4.269531 6.980469 M 8.375 6.9375 L 8.4375 7 L 8.375 6.9375 M 27.4375 6.9375 L 27.5 7 L 27.4375 6.9375 M 8.332031 7.042969 L 8.355469 7.082031 L 8.332031 7.042969 M 23.375 7 L 23.4375 7.0625 L 23.375 7 M 27.394531 7.042969 L 27.417969 7.082031 L 27.394531 7.042969 M 23.4375 7.0625 L 23.5 7.125 L 23.4375 7.0625 M 28.6875 7.0625 L 28.6875 7.3125 L 28.75 7.3125 L 28.6875 7.0625 M 4.3125 7.125 L 4.375 7.1875 L 4.3125 7.125 M 8.25 7.125 L 8.3125 7.1875 L 8.25 7.125 M 23.519531 7.167969 L 23.542969 7.207031 L 23.519531 7.167969 M 27.332031 7.167969 L 27.355469 7.207031 L 27.332031 7.167969 M 8.1875 7.1875 L 8.25 7.25 L 8.1875 7.1875 M 3.0625 7.25 L 3.0625 7.5625 L 3.125 7.5625 L 3.0625 7.25 M 4.375 7.25 L 4.4375 7.3125 L 4.375 7.25 M 8.125 7.25 L 8.1875 7.3125 L 8.125 7.25 M 23.5625 7.25 L 23.625 7.3125 L 23.5625 7.25 M 27.269531 7.292969 L 27.292969 7.332031 L 27.269531 7.292969 M 23.625 7.3125 L 23.6875 7.375 L 23.625 7.3125 M 4.4375 7.375 L 4.5 7.4375 L 4.4375 7.375 M 8.0625 7.375 L 8.125 7.4375 L 8.0625 7.375 M 23.707031 7.417969 L 23.730469 7.457031 L 23.707031 7.417969 M 27.207031 7.417969 L 27.230469 7.457031 L 27.207031 7.417969 M 28.75 7.375 L 28.75 7.6875 L 28.8125 7.6875 L 28.75 7.375 M 4.519531 7.480469 L 4.542969 7.519531 L 4.519531 7.480469 M 8 7.4375 L 8.0625 7.5 L 8 7.4375 M 7.9375 7.5 L 8 7.5625 L 7.9375 7.5 M 23.75 7.5 L 23.8125 7.5625 L 23.75 7.5 M 27.144531 7.542969 L 27.167969 7.582031 L 27.144531 7.542969 M 4.582031 7.605469 L 4.605469 7.644531 L 4.582031 7.605469 M 23.832031 7.605469 L 23.855469 7.644531 L 23.832031 7.605469 M 3 7.625 L 3 8 L 3.0625 8 L 3 7.625 M 7.875 7.625 L 7.9375 7.6875 L 7.875 7.625 M 27.082031 7.667969 L 27.105469 7.707031 L 27.082031 7.667969 M 4.644531 7.730469 L 4.667969 7.769531 L 4.644531 7.730469 M 7.8125 7.6875 L 7.875 7.75 L 7.8125 7.6875 M 23.875 7.6875 L 23.9375 7.75 L 23.875 7.6875 M 7.769531 7.792969 L 7.792969 7.832031 L 7.769531 7.792969 M 23.9375 7.75 L 24 7.8125 L 23.9375 7.75 M 27.019531 7.792969 L 27.042969 7.832031 L 27.019531 7.792969 M 4.707031 7.855469 L 4.730469 7.894531 L 4.707031 7.855469 M 24 7.8125 L 24.0625 7.875 L 24 7.8125 M 28.8125 7.8125 L 28.8125 8.1875 L 28.875 8.1875 L 28.8125 7.8125 M 7.6875 7.875 L 7.75 7.9375 L 7.6875 7.875 M 26.957031 7.917969 L 26.980469 7.957031 L 26.957031 7.917969 M 4.769531 7.980469 L 4.792969 8.019531 L 4.769531 7.980469 M 7.644531 7.980469 L 7.667969 8.019531 L 7.644531 7.980469 M 24.0625 7.9375 L 24.125 8 L 24.0625 7.9375 M 24.125 8 L 24.1875 8.0625 L 24.125 8 M 26.894531 8.042969 L 26.917969 8.082031 L 26.894531 8.042969 M 4.832031 8.105469 L 4.855469 8.144531 L 4.832031 8.105469 M 7.5625 8.0625 L 7.625 8.125 L 7.5625 8.0625 M 24.207031 8.105469 L 24.230469 8.144531 L 24.207031 8.105469 M 2.9375 8.125 L 2.9375 8.75 L 3 8.75 L 2.9375 8.125 M 7.5 8.125 L 7.5625 8.1875 L 7.5 8.125 M 26.832031 8.167969 L 26.855469 8.207031 L 26.832031 8.167969 M 4.894531 8.230469 L 4.917969 8.269531 L 4.894531 8.230469 M 7.457031 8.230469 L 7.480469 8.269531 L 7.457031 8.230469 M 24.25 8.1875 L 24.3125 8.25 L 24.25 8.1875 M 24.332031 8.292969 L 24.355469 8.332031 L 24.332031 8.292969 M 26.769531 8.292969 L 26.792969 8.332031 L 26.769531 8.292969 M 28.875 8.25 L 28.875 8.8125 L 28.9375 8.8125 L 28.875 8.25 M 4.9375 8.3125 L 5 8.375 L 4.9375 8.3125 M 7.375 8.3125 L 7.4375 8.375 L 7.375 8.3125 M 5.019531 8.417969 L 5.042969 8.457031 L 5.019531 8.417969 M 7.332031 8.417969 L 7.355469 8.457031 L 7.332031 8.417969 M 24.375 8.375 L 24.4375 8.4375 L 24.375 8.375 M 26.707031 8.417969 L 26.730469 8.457031 L 26.707031 8.417969 M 24.4375 8.4375 L 24.5 8.5 L 24.4375 8.4375 M 5.082031 8.542969 L 5.105469 8.582031 L 5.082031 8.542969 M 7.25 8.5 L 7.3125 8.5625 L 7.25 8.5 M 24.519531 8.542969 L 24.542969 8.582031 L 24.519531 8.542969 M 26.644531 8.542969 L 26.667969 8.582031 L 26.644531 8.542969 M 7.207031 8.605469 L 7.230469 8.644531 L 7.207031 8.605469 M 5.144531 8.667969 L 5.167969 8.707031 L 5.144531 8.667969 M 24.5625 8.625 L 24.625 8.6875 L 24.5625 8.625 M 26.5625 8.625 L 26.625 8.6875 L 26.5625 8.625 M 7.125 8.6875 L 7.1875 8.75 L 7.125 8.6875 M 24.644531 8.730469 L 24.667969 8.769531 L 24.644531 8.730469 M 26.519531 8.730469 L 26.542969 8.769531 L 26.519531 8.730469 M 5.1875 8.75 L 5.25 8.8125 L 5.1875 8.75 M 7.082031 8.792969 L 7.105469 8.832031 L 7.082031 8.792969 M 5.269531 8.855469 L 5.292969 8.894531 L 5.269531 8.855469 M 24.6875 8.8125 L 24.75 8.875 L 24.6875 8.8125 M 26.457031 8.855469 L 26.480469 8.894531 L 26.457031 8.855469 M 7 8.875 L 7.0625 8.9375 L 7 8.875 M 24.769531 8.917969 L 24.792969 8.957031 L 24.769531 8.917969 M 5.332031 8.980469 L 5.355469 9.019531 L 5.332031 8.980469 M 6.957031 8.980469 L 6.980469 9.019531 L 6.957031 8.980469 M 26.394531 8.980469 L 26.417969 9.019531 L 26.394531 8.980469 M 28.9375 8.9375 L 28.9375 9.875 L 29 9.875 L 28.9375 8.9375 M 24.8125 9 L 24.875 9.0625 L 24.8125 9 M 5.375 9.0625 L 5.4375 9.125 L 5.375 9.0625 M 6.875 9.0625 L 6.9375 9.125 L 6.875 9.0625 M 24.875 9.0625 L 24.9375 9.125 L 24.875 9.0625 M 26.3125 9.0625 L 26.375 9.125 L 26.3125 9.0625 M 5.457031 9.167969 L 5.480469 9.207031 L 5.457031 9.167969 M 6.832031 9.167969 L 6.855469 9.207031 L 6.832031 9.167969 M 24.957031 9.167969 L 24.980469 9.207031 L 24.957031 9.167969 M 26.269531 9.167969 L 26.292969 9.207031 L 26.269531 9.167969 M 5.519531 9.292969 L 5.542969 9.332031 L 5.519531 9.292969 M 6.75 9.25 L 6.8125 9.3125 L 6.75 9.25 M 25 9.25 L 25.0625 9.3125 L 25 9.25 M 26.207031 9.292969 L 26.230469 9.332031 L 26.207031 9.292969 M 25.082031 9.355469 L 25.105469 9.394531 L 25.082031 9.355469 M 2.9375 9.375 L 2.9375 10.3125 L 3 10.3125 L 2.9375 9.375 M 5.5625 9.375 L 5.625 9.4375 L 5.5625 9.375 M 6.6875 9.375 L 6.75 9.4375 L 6.6875 9.375 M 26.125 9.375 L 26.1875 9.4375 L 26.125 9.375 M 5.644531 9.480469 L 5.667969 9.519531 L 5.644531 9.480469 M 6.625 9.4375 L 6.6875 9.5 L 6.625 9.4375 M 25.125 9.4375 L 25.1875 9.5 L 25.125 9.4375 M 26.082031 9.480469 L 26.105469 9.519531 L 26.082031 9.480469 M 6.582031 9.542969 L 6.605469 9.582031 L 6.582031 9.542969 M 25.207031 9.542969 L 25.230469 9.582031 L 25.207031 9.542969 M 5.6875 9.5625 L 5.75 9.625 L 5.6875 9.5625 M 26 9.5625 L 26.0625 9.625 L 26 9.5625 M 5.769531 9.667969 L 5.792969 9.707031 L 5.769531 9.667969 M 6.5 9.625 L 6.5625 9.6875 L 6.5 9.625 M 25.25 9.625 L 25.3125 9.6875 L 25.25 9.625 M 25.9375 9.6875 L 26 9.75 L 25.9375 9.6875 M 5.8125 9.75 L 5.875 9.8125 L 5.8125 9.75 M 6.4375 9.75 L 6.5 9.8125 L 6.4375 9.75 M 25.3125 9.75 L 25.375 9.8125 L 25.3125 9.75 M 25.894531 9.792969 L 25.917969 9.832031 L 25.894531 9.792969 M 5.894531 9.855469 L 5.917969 9.894531 L 5.894531 9.855469 M 6.394531 9.855469 L 6.417969 9.894531 L 6.394531 9.855469 M 25.375 9.8125 L 25.4375 9.875 L 25.375 9.8125 M 25.457031 9.917969 L 25.480469 9.957031 L 25.457031 9.917969 M 25.8125 9.875 L 25.875 9.9375 L 25.8125 9.875 M 5.9375 9.9375 L 6.0625 10.125 L 5.9375 9.9375 M 6.3125 9.9375 L 6.375 10 L 6.3125 9.9375 M 25.769531 9.980469 L 25.792969 10.019531 L 25.769531 9.980469 M 6.269531 10.042969 L 6.292969 10.082031 L 6.269531 10.042969 M 25.5 10 L 25.5625 10.0625 L 25.5 10 M 25.5625 10.0625 C 25.632812 10.1875 25.679688 10.1875 25.75 10.0625 L 25.5625 10.0625 M 6.0625 10.125 L 6.125 10.1875 L 6.0625 10.125 M 6.1875 10.125 L 6.25 10.1875 L 6.1875 10.125 M 28.875 10.125 L 28.875 10.8125 L 28.9375 10.8125 L 28.875 10.125 M 6.125 10.1875 L 6.1875 10.25 L 6.125 10.1875 M 3 10.4375 L 3 10.875 L 3.0625 10.875 L 3 10.4375 M 28.8125 10.9375 L 28.8125 11.375 L 28.875 11.375 L 28.8125 10.9375 M 3.0625 11 L 3.0625 11.375 L 3.125 11.375 L 3.0625 11 M 3.125 11.4375 L 3.125 11.8125 L 3.1875 11.8125 L 3.125 11.4375 M 28.75 11.5625 L 28.75 11.9375 L 28.8125 11.9375 L 28.75 11.5625 M 3.1875 11.875 L 3.1875 12.1875 L 3.25 12.1875 L 3.1875 11.875 M 28.6875 12 L 28.6875 12.375 L 28.75 12.375 L 28.6875 12 M 3.25 12.25 L 3.25 12.625 L 3.3125 12.625 L 3.25 12.25 M 28.625 12.5 L 28.625 12.875 L 28.6875 12.875 Z M 28.625 12.5 "/>
<path style=" stroke:none;fill-rule:nonzero;fill:rgb(14.901961%,49.019608%,65.490196%);fill-opacity:1;" d="M 7.125 12.5625 L 7.1875 12.625 L 7.125 12.5625 M 7.5 12.625 L 7.4375 12.75 Z M 7.5 12.625 "/>
<path style=" stroke:none;fill-rule:nonzero;fill:rgb(65.098039%,70.196078%,78.039216%);fill-opacity:1;" d="M 3.3125 12.6875 L 3.3125 12.9375 L 3.375 12.9375 Z M 3.3125 12.6875 "/>
<path style=" stroke:none;fill-rule:nonzero;fill:rgb(14.901961%,49.019608%,65.490196%);fill-opacity:1;" d="M 6.5625 12.8125 L 6.625 12.875 L 6.5625 12.8125 M 6.375 12.9375 L 6.4375 13 Z M 6.375 12.9375 "/>
<path style=" stroke:none;fill-rule:nonzero;fill:rgb(65.098039%,70.196078%,78.039216%);fill-opacity:1;" d="M 28.5625 12.9375 L 28.5625 13.1875 L 28.625 13.1875 L 28.5625 12.9375 M 3.375 13 L 3.375 13.3125 L 3.4375 13.3125 Z M 3.375 13 "/>
<path style=" stroke:none;fill-rule:nonzero;fill:rgb(14.901961%,49.019608%,65.490196%);fill-opacity:1;" d="M 6 13.3125 L 6.3125 13.125 L 6 13.3125 M 6.625 13.125 L 6.6875 13.1875 L 6.625 13.125 M 8.75 13.25 L 8.8125 13.3125 L 8.75 13.25 M 22.9375 13.25 L 23 13.3125 Z M 22.9375 13.25 "/>
<path style=" stroke:none;fill-rule:nonzero;fill:rgb(65.098039%,70.196078%,78.039216%);fill-opacity:1;" d="M 28.5 13.25 L 28.5 13.5625 L 28.5625 13.5625 Z M 28.5 13.25 "/>
<path style=" stroke:none;fill-rule:nonzero;fill:rgb(14.901961%,49.019608%,65.490196%);fill-opacity:1;" d="M 5.894531 13.355469 L 5.917969 13.394531 L 5.894531 13.355469 M 23.25 13.3125 L 23.3125 13.375 Z M 23.25 13.3125 "/>
<path style=" stroke:none;fill-rule:nonzero;fill:rgb(65.098039%,70.196078%,78.039216%);fill-opacity:1;" d="M 3.4375 13.375 L 3.4375 13.75 L 3.5 13.75 L 3.4375 13.375 M 9 13.375 L 9 13.4375 L 9.1875 13.4375 Z M 9 13.375 "/>
<path style=" stroke:none;fill-rule:nonzero;fill:rgb(99.607843%,99.607843%,100%);fill-opacity:1;" d="M 9.1875 13.402344 C 8.738281 13.472656 8.359375 13.695312 8 13.96875 C 7.484375 14.363281 6.933594 14.90625 6.78125 15.5625 C 6.375 17.335938 8.136719 19.386719 10 19.097656 C 10.507812 19.019531 11.023438 18.820312 11.4375 18.515625 C 13.71875 16.820312 11.914062 12.972656 9.1875 13.402344 Z M 9.1875 13.402344 "/>
<path style=" stroke:none;fill-rule:nonzero;fill:rgb(65.098039%,70.196078%,78.039216%);fill-opacity:1;" d="M 9.875 13.375 L 9.875 13.4375 L 10.0625 13.4375 Z M 9.875 13.375 "/>
<path style=" stroke:none;fill-rule:nonzero;fill:rgb(14.901961%,49.019608%,65.490196%);fill-opacity:1;" d="M 10.9375 13.375 L 11 13.4375 Z M 10.9375 13.375 "/>
<path style=" stroke:none;fill-rule:nonzero;fill:rgb(65.098039%,70.196078%,78.039216%);fill-opacity:1;" d="M 21.6875 13.375 L 21.6875 13.4375 L 21.875 13.4375 Z M 21.6875 13.375 "/>
<path style=" stroke:none;fill-rule:nonzero;fill:rgb(99.607843%,99.607843%,100%);fill-opacity:1;" d="M 21.875 13.402344 C 21.4375 13.464844 21.058594 13.617188 20.6875 13.855469 C 18.105469 15.527344 19.566406 19.519531 22.625 19.054688 C 23.039062 18.992188 23.460938 18.820312 23.8125 18.589844 C 26.304688 16.976562 24.804688 12.980469 21.875 13.402344 Z M 21.875 13.402344 "/>
<path style=" stroke:none;fill-rule:nonzero;fill:rgb(65.098039%,70.196078%,78.039216%);fill-opacity:1;" d="M 22.625 13.375 L 22.625 13.4375 L 22.8125 13.4375 Z M 22.625 13.375 "/>
<path style=" stroke:none;fill-rule:nonzero;fill:rgb(14.901961%,49.019608%,65.490196%);fill-opacity:1;" d="M 23.375 13.375 L 23.4375 13.4375 L 23.375 13.375 M 5.75 13.4375 L 5.8125 13.5 Z M 5.75 13.4375 "/>
<path style=" stroke:none;fill-rule:nonzero;fill:rgb(65.098039%,70.196078%,78.039216%);fill-opacity:1;" d="M 8.792969 13.457031 L 8.832031 13.480469 L 8.792969 13.457031 M 10.25 13.4375 L 10.3125 13.5 Z M 10.25 13.4375 "/>
<path style=" stroke:none;fill-rule:nonzero;fill:rgb(14.901961%,49.019608%,65.490196%);fill-opacity:1;" d="M 10.625 13.4375 L 10.6875 13.5 L 10.625 13.4375 M 10.8125 13.4375 L 10.875 13.5 Z M 10.8125 13.4375 "/>
<path style=" stroke:none;fill-rule:nonzero;fill:rgb(65.098039%,70.196078%,78.039216%);fill-opacity:1;" d="M 21.4375 13.4375 L 21.5 13.5 L 21.4375 13.4375 M 22.9375 13.4375 L 23 13.5 L 22.9375 13.4375 M 8.625 13.5 L 8.6875 13.5625 L 8.625 13.5 M 10.4375 13.5 L 10.5 13.5625 L 10.4375 13.5 M 21.25 13.5 L 21.3125 13.5625 L 21.25 13.5 M 23.125 13.5 L 23.1875 13.5625 L 23.125 13.5 M 8.542969 13.582031 L 8.582031 13.605469 L 8.542969 13.582031 M 10.605469 13.582031 L 10.644531 13.605469 Z M 10.605469 13.582031 "/>
<path style=" stroke:none;fill-rule:nonzero;fill:rgb(14.901961%,49.019608%,65.490196%);fill-opacity:1;" d="M 11.042969 13.582031 L 11.082031 13.605469 Z M 11.042969 13.582031 "/>
<path style=" stroke:none;fill-rule:nonzero;fill:rgb(65.098039%,70.196078%,78.039216%);fill-opacity:1;" d="M 21.125 13.5625 L 21.1875 13.625 L 21.125 13.5625 M 23.25 13.5625 L 23.3125 13.625 L 23.25 13.5625 M 8.4375 13.625 L 8.5 13.6875 L 8.4375 13.625 M 10.75 13.625 L 10.8125 13.6875 Z M 10.75 13.625 "/>
<path style=" stroke:none;fill-rule:nonzero;fill:rgb(14.901961%,49.019608%,65.490196%);fill-opacity:1;" d="M 20.875 13.625 L 20.9375 13.6875 Z M 20.875 13.625 "/>
<path style=" stroke:none;fill-rule:nonzero;fill:rgb(65.098039%,70.196078%,78.039216%);fill-opacity:1;" d="M 21 13.625 L 21.0625 13.6875 L 21 13.625 M 23.375 13.625 L 23.4375 13.6875 L 23.375 13.625 M 28.4375 13.625 L 28.4375 13.875 L 28.5 13.875 L 28.4375 13.625 M 8.3125 13.6875 L 8.375 13.75 L 8.3125 13.6875 M 10.8125 13.6875 L 10.875 13.75 L 10.8125 13.6875 M 20.875 13.6875 L 20.9375 13.75 L 20.875 13.6875 M 23.480469 13.707031 L 23.519531 13.730469 Z M 23.480469 13.707031 "/>
<path style=" stroke:none;fill-rule:nonzero;fill:rgb(14.901961%,49.019608%,65.490196%);fill-opacity:1;" d="M 25.8125 13.6875 L 25.875 13.75 Z M 25.8125 13.6875 "/>
<path style=" stroke:none;fill-rule:nonzero;fill:rgb(65.098039%,70.196078%,78.039216%);fill-opacity:1;" d="M 8.230469 13.769531 L 8.269531 13.792969 L 8.230469 13.769531 M 10.9375 13.75 L 11 13.8125 Z M 10.9375 13.75 "/>
<path style=" stroke:none;fill-rule:nonzero;fill:rgb(14.901961%,49.019608%,65.490196%);fill-opacity:1;" d="M 11.25 13.75 L 11.3125 13.8125 L 11.25 13.75 M 20.4375 13.75 L 20.5 13.8125 Z M 20.4375 13.75 "/>
<path style=" stroke:none;fill-rule:nonzero;fill:rgb(65.098039%,70.196078%,78.039216%);fill-opacity:1;" d="M 20.75 13.75 L 20.8125 13.8125 L 20.75 13.75 M 23.5625 13.75 L 23.625 13.8125 L 23.5625 13.75 M 3.5 13.8125 L 3.5 14.0625 L 3.5625 14.0625 L 3.5 13.8125 M 8.125 13.8125 L 8.1875 13.875 L 8.125 13.8125 M 11 13.8125 L 11.0625 13.875 Z M 11 13.8125 "/>
<path style=" stroke:none;fill-rule:nonzero;fill:rgb(14.901961%,49.019608%,65.490196%);fill-opacity:1;" d="M 11.417969 13.832031 L 11.457031 13.855469 L 11.417969 13.832031 M 20.3125 13.8125 L 20.375 13.875 Z M 20.3125 13.8125 "/>
<path style=" stroke:none;fill-rule:nonzero;fill:rgb(65.098039%,70.196078%,78.039216%);fill-opacity:1;" d="M 20.6875 13.8125 L 20.75 13.875 L 20.6875 13.8125 M 23.667969 13.832031 L 23.707031 13.855469 L 23.667969 13.832031 M 8.0625 13.875 L 8.125 13.9375 L 8.0625 13.875 M 11.125 13.875 L 11.1875 13.9375 L 11.125 13.875 M 20.5625 13.875 L 20.625 13.9375 L 20.5625 13.875 M 23.75 13.875 L 23.8125 13.9375 L 23.75 13.875 M 7.9375 13.9375 L 8 14 L 7.9375 13.9375 M 11.1875 13.9375 L 11.25 14 L 11.1875 13.9375 M 20.480469 13.957031 L 20.519531 13.980469 L 20.480469 13.957031 M 23.8125 13.9375 L 23.875 14 L 23.8125 13.9375 M 28.375 13.9375 L 28.375 14.125 L 28.4375 14.125 L 28.375 13.9375 M 7.875 14 L 7.9375 14.0625 L 7.875 14 M 11.292969 14.019531 L 11.332031 14.042969 L 11.292969 14.019531 M 20.375 14 L 20.4375 14.0625 L 20.375 14 M 23.9375 14 L 24 14.0625 L 23.9375 14 M 7.8125 14.0625 L 7.875 14.125 L 7.8125 14.0625 M 11.375 14.0625 L 11.4375 14.125 L 11.375 14.0625 M 20.3125 14.0625 L 20.375 14.125 L 20.3125 14.0625 M 24 14.0625 L 24.0625 14.125 L 24 14.0625 M 3.582031 14.167969 L 3.605469 14.207031 L 3.582031 14.167969 M 7.625 14.25 L 7.8125 14.125 L 7.625 14.25 M 11.4375 14.125 L 11.5 14.1875 L 11.4375 14.125 M 20.25 14.125 L 20.3125 14.1875 L 20.25 14.125 M 24.0625 14.125 L 24.125 14.1875 L 24.0625 14.125 M 11.5 14.1875 L 11.5625 14.25 L 11.5 14.1875 M 20.1875 14.1875 L 20.25 14.25 L 20.1875 14.1875 M 24.1875 14.1875 L 24.25 14.25 L 24.1875 14.1875 M 28.332031 14.230469 L 28.355469 14.269531 L 28.332031 14.230469 M 7.5625 14.25 L 7.625 14.3125 L 7.5625 14.25 M 11.5625 14.25 L 11.625 14.3125 L 11.5625 14.25 M 20.125 14.25 L 20.1875 14.3125 L 20.125 14.25 M 24.25 14.25 L 24.3125 14.3125 L 24.25 14.25 M 3.644531 14.355469 L 3.667969 14.394531 L 3.644531 14.355469 M 7.5 14.3125 L 7.5625 14.375 L 7.5 14.3125 M 11.625 14.3125 L 11.6875 14.375 L 11.625 14.3125 M 20.0625 14.3125 L 20.125 14.375 L 20.0625 14.3125 M 24.3125 14.3125 L 24.375 14.375 L 24.3125 14.3125 M 28.269531 14.355469 L 28.292969 14.394531 L 28.269531 14.355469 M 7.4375 14.375 L 7.5 14.4375 L 7.4375 14.375 M 11.6875 14.375 L 11.75 14.4375 L 11.6875 14.375 M 20 14.375 L 20.0625 14.4375 L 20 14.375 M 24.375 14.375 L 24.4375 14.4375 L 24.375 14.375 M 3.707031 14.480469 L 3.730469 14.519531 L 3.707031 14.480469 M 7.375 14.4375 L 7.4375 14.5 L 7.375 14.4375 M 11.75 14.4375 L 11.8125 14.5 L 11.75 14.4375 M 19.9375 14.4375 L 20 14.5 L 19.9375 14.4375 M 24.4375 14.4375 L 24.5 14.5 L 24.4375 14.4375 M 28.207031 14.480469 L 28.230469 14.519531 L 28.207031 14.480469 M 7.3125 14.5 L 7.25 14.6875 L 7.3125 14.5 M 9.3125 14.5 L 9.3125 14.5625 L 9.9375 14.5625 L 9.3125 14.5 M 11.8125 14.5 L 11.875 14.5625 L 11.8125 14.5 M 19.875 14.5 L 19.9375 14.5625 L 19.875 14.5 M 21.8125 14.5 L 21.8125 14.5625 L 22.0625 14.5625 Z M 21.8125 14.5 "/>
<path style=" stroke:none;fill-rule:nonzero;fill:rgb(80.392157%,2.745098%,17.254902%);fill-opacity:1;" d="M 22.0625 14.527344 C 19.585938 14.777344 20.019531 18.539062 22.5 18.238281 C 24.796875 17.960938 24.355469 14.300781 22.0625 14.527344 Z M 22.0625 14.527344 "/>
<path style=" stroke:none;fill-rule:nonzero;fill:rgb(65.098039%,70.196078%,78.039216%);fill-opacity:1;" d="M 22.3125 14.5 L 22.3125 14.5625 L 22.625 14.5625 L 22.3125 14.5 M 24.5 14.5 L 24.5625 14.5625 L 24.5 14.5 M 3.75 14.5625 L 3.8125 14.625 L 3.75 14.5625 M 9.105469 14.582031 L 9.144531 14.605469 Z M 9.105469 14.582031 "/>
<path style=" stroke:none;fill-rule:nonzero;fill:rgb(80.392157%,2.745098%,17.254902%);fill-opacity:1;" d="M 9.1875 14.59375 C 6.839844 15.105469 7.867188 18.738281 10.1875 18.207031 C 12.480469 17.679688 11.464844 14.101562 9.1875 14.59375 Z M 9.1875 14.59375 "/>
<path style=" stroke:none;fill-rule:nonzero;fill:rgb(65.098039%,70.196078%,78.039216%);fill-opacity:1;" d="M 10.105469 14.582031 L 10.144531 14.605469 L 10.105469 14.582031 M 19.8125 14.5625 L 19.875 14.625 L 19.8125 14.5625 M 21.605469 14.582031 L 21.644531 14.605469 L 21.605469 14.582031 M 22.75 14.5625 L 22.8125 14.625 L 22.75 14.5625 M 28.125 14.5625 L 28.1875 14.625 L 28.125 14.5625 M 8.917969 14.644531 L 8.957031 14.667969 L 8.917969 14.644531 M 10.3125 14.625 L 10.375 14.6875 L 10.3125 14.625 M 21.4375 14.625 L 21.5 14.6875 L 21.4375 14.625 M 22.9375 14.625 L 23 14.6875 L 22.9375 14.625 M 3.8125 14.6875 L 3.875 14.75 L 3.8125 14.6875 M 7.1875 14.6875 L 7.25 14.75 L 7.1875 14.6875 M 8.75 14.6875 L 8.8125 14.75 L 8.75 14.6875 M 10.4375 14.6875 L 10.5 14.75 L 10.4375 14.6875 M 11.9375 14.6875 L 12 14.75 L 11.9375 14.6875 M 19.75 14.6875 L 19.8125 14.75 L 19.75 14.6875 M 21.3125 14.6875 L 21.375 14.75 L 21.3125 14.6875 M 23.0625 14.6875 L 23.125 14.75 L 23.0625 14.6875 M 24.625 14.6875 L 24.6875 14.75 L 24.625 14.6875 M 28.0625 14.6875 L 28.125 14.75 L 28.0625 14.6875 M 3.894531 14.792969 L 3.917969 14.832031 L 3.894531 14.792969 M 7.125 14.75 L 7.1875 14.8125 L 7.125 14.75 M 8.6875 14.75 L 8.75 14.8125 L 8.6875 14.75 M 10.5625 14.75 L 10.625 14.8125 L 10.5625 14.75 M 12 14.75 L 12.0625 14.8125 L 12 14.75 M 19.6875 14.75 L 19.75 14.8125 L 19.6875 14.75 M 21.1875 14.75 L 21.25 14.8125 L 21.1875 14.75 M 23.125 14.75 L 23.1875 14.8125 L 23.125 14.75 M 24.6875 14.75 L 24.75 14.8125 L 24.6875 14.75 M 7.082031 14.855469 L 7.105469 14.894531 L 7.082031 14.855469 M 8.5625 14.8125 L 8.625 14.875 L 8.5625 14.8125 M 10.625 14.8125 L 10.6875 14.875 L 10.625 14.8125 M 12.082031 14.855469 L 12.105469 14.894531 L 12.082031 14.855469 M 19.644531 14.855469 L 19.667969 14.894531 L 19.644531 14.855469 M 21.125 14.8125 L 21.1875 14.875 L 21.125 14.8125 M 23.25 14.8125 L 23.3125 14.875 L 23.25 14.8125 M 24.769531 14.855469 L 24.792969 14.894531 L 24.769531 14.855469 M 28 14.8125 L 28.0625 14.875 L 28 14.8125 M 3.957031 14.917969 L 3.980469 14.957031 L 3.957031 14.917969 M 8.5 14.875 L 8.5625 14.9375 L 8.5 14.875 M 10.75 14.875 L 10.8125 14.9375 L 10.75 14.875 M 23.3125 14.875 L 23.375 14.9375 L 23.3125 14.875 M 27.957031 14.917969 L 27.980469 14.957031 L 27.957031 14.917969 M 7 14.9375 L 7.0625 15 L 7 14.9375 M 8.4375 14.9375 L 8.5 15 L 8.4375 14.9375 M 10.8125 14.9375 L 10.875 15 L 10.8125 14.9375 M 12.125 14.9375 L 12.1875 15 L 12.125 14.9375 M 19.5625 14.9375 L 19.625 15 L 19.5625 14.9375 M 20.9375 14.9375 L 21 15 L 20.9375 14.9375 M 23.375 14.9375 L 23.4375 15 L 23.375 14.9375 M 24.8125 14.9375 L 24.875 15 L 24.8125 14.9375 M 4 15 L 4.0625 15.0625 L 4 15 M 6.957031 15.042969 L 6.980469 15.082031 L 6.957031 15.042969 M 8.375 15 L 8.4375 15.0625 L 8.375 15 M 10.875 15 L 10.9375 15.0625 L 10.875 15 M 20.875 15 L 20.9375 15.0625 L 20.875 15 M 24.894531 15.042969 L 24.917969 15.082031 L 24.894531 15.042969 M 27.894531 15.042969 L 27.917969 15.082031 L 27.894531 15.042969 M 8.3125 15.0625 L 8.375 15.125 L 8.3125 15.0625 M 10.9375 15.0625 L 11 15.125 L 10.9375 15.0625 M 12.1875 15.0625 L 12.25 15.125 L 12.1875 15.0625 M 19.5 15.0625 L 19.5625 15.125 L 19.5 15.0625 M 20.8125 15.0625 L 20.875 15.125 L 20.8125 15.0625 M 23.5 15.0625 L 23.5625 15.125 L 23.5 15.0625 M 4.0625 15.125 L 4.125 15.1875 L 4.0625 15.125 M 6.894531 15.167969 L 6.917969 15.207031 L 6.894531 15.167969 M 8.25 15.125 L 8.3125 15.1875 L 8.25 15.125 M 11 15.125 L 11.0625 15.1875 L 11 15.125 M 12.269531 15.167969 L 12.292969 15.207031 L 12.269531 15.167969 M 20.75 15.125 L 20.8125 15.1875 L 20.75 15.125 M 23.5625 15.125 L 23.625 15.1875 L 23.5625 15.125 M 24.957031 15.167969 L 24.980469 15.207031 L 24.957031 15.167969 M 8.1875 15.1875 L 8.25 15.25 L 8.1875 15.1875 M 11.0625 15.1875 L 11.125 15.25 Z M 11.0625 15.1875 "/>
<path style=" stroke:none;fill-rule:nonzero;fill:rgb(14.901961%,49.019608%,65.490196%);fill-opacity:1;" d="M 15.855469 15.207031 L 15.894531 15.230469 Z M 15.855469 15.207031 "/>
<path style=" stroke:none;fill-rule:nonzero;fill:rgb(65.098039%,70.196078%,78.039216%);fill-opacity:1;" d="M 19.4375 15.1875 L 19.5 15.25 L 19.4375 15.1875 M 20.6875 15.1875 L 20.75 15.25 L 20.6875 15.1875 M 23.625 15.1875 L 23.6875 15.25 L 23.625 15.1875 M 27.8125 15.1875 L 27.875 15.25 L 27.8125 15.1875 M 3.519531 15.292969 L 3.542969 15.332031 L 3.519531 15.292969 M 4.125 15.25 L 4.1875 15.3125 L 4.125 15.25 M 6.832031 15.292969 L 6.855469 15.332031 L 6.832031 15.292969 M 8.125 15.25 L 8.1875 15.3125 L 8.125 15.25 M 23.6875 15.25 L 23.75 15.3125 L 23.6875 15.25 M 28.25 15.3125 L 28.25 15.375 L 28.4375 15.375 L 28.4375 15.3125 Z M 28.25 15.3125 "/>
<path style=" stroke:none;fill-rule:nonzero;fill:rgb(14.901961%,49.019608%,65.490196%);fill-opacity:1;" d="M 3.5625 15.3125 C 3.691406 15.894531 4.003906 16.335938 4.210938 16.875 C 4.519531 17.660156 4.433594 19.167969 3.996094 19.875 C 3.851562 20.109375 3.355469 20.621094 3.8125 20.75 L 3.8125 20.8125 L 3.375 20.8125 L 3.375 20.875 L 5.1875 20.625 C 5.117188 19.550781 5.125 18.453125 5.125 17.375 C 5.125 17.023438 5.257812 16.335938 5.0625 16.03125 C 4.804688 15.640625 3.972656 15.503906 3.5625 15.3125 Z M 3.5625 15.3125 "/>
<path style=" stroke:none;fill-rule:nonzero;fill:rgb(65.098039%,70.196078%,78.039216%);fill-opacity:1;" d="M 3.667969 15.332031 L 3.707031 15.355469 L 3.667969 15.332031 M 11.125 15.3125 L 11.1875 15.375 L 11.125 15.3125 M 12.332031 15.355469 L 12.355469 15.394531 Z M 12.332031 15.355469 "/>
<path style=" stroke:none;fill-rule:nonzero;fill:rgb(14.901961%,49.019608%,65.490196%);fill-opacity:1;" d="M 15.375 15.3125 L 15.4375 15.375 Z M 15.375 15.3125 "/>
<path style=" stroke:none;fill-rule:nonzero;fill:rgb(65.098039%,70.196078%,78.039216%);fill-opacity:1;" d="M 15.542969 15.332031 L 15.582031 15.355469 Z M 15.542969 15.332031 "/>
<path style=" stroke:none;fill-rule:nonzero;fill:rgb(99.607843%,99.607843%,100%);fill-opacity:1;" d="M 15.625 15.347656 C 14.945312 15.511719 14.910156 16.140625 14.714844 16.6875 C 14.605469 17.003906 14.382812 17.28125 14.378906 17.625 C 14.371094 18.734375 15.585938 19.105469 16.5 18.882812 C 17.742188 18.578125 17.566406 17.671875 17.222656 16.75 C 16.929688 15.964844 16.707031 15.082031 15.625 15.347656 Z M 15.625 15.347656 "/>
<path style=" stroke:none;fill-rule:nonzero;fill:rgb(65.098039%,70.196078%,78.039216%);fill-opacity:1;" d="M 16.25 15.3125 L 16.3125 15.375 L 16.25 15.3125 M 19.394531 15.355469 L 19.417969 15.394531 L 19.394531 15.355469 M 20.625 15.3125 L 20.6875 15.375 L 20.625 15.3125 M 25.019531 15.355469 L 25.042969 15.394531 L 25.019531 15.355469 M 27.75 15.3125 L 27.6875 15.5625 L 27.9375 15.5625 L 27.9375 15.5 Z M 27.75 15.3125 "/>
<path style=" stroke:none;fill-rule:nonzero;fill:rgb(14.901961%,49.019608%,65.490196%);fill-opacity:1;" d="M 28.3125 15.3125 L 26.859375 15.96875 L 26.75 17.25 L 26.75 20.625 L 27.625 20.6875 L 27.5625 20.8125 L 27.75 20.75 L 28.625 20.875 C 28.390625 20.382812 27.972656 20.003906 27.753906 19.5 C 27.492188 18.898438 27.5 17.640625 27.644531 17 C 27.773438 16.425781 28.371094 15.953125 28.3125 15.3125 Z M 28.3125 15.3125 "/>
<path style=" stroke:none;fill-rule:nonzero;fill:rgb(65.098039%,70.196078%,78.039216%);fill-opacity:1;" d="M 3.75 15.375 L 3.8125 15.4375 L 3.75 15.375 M 4.207031 15.417969 L 4.230469 15.457031 L 4.207031 15.417969 M 8.0625 15.375 L 8.125 15.4375 L 8.0625 15.375 M 11.1875 15.375 L 11.25 15.4375 Z M 11.1875 15.375 "/>
<path style=" stroke:none;fill-rule:nonzero;fill:rgb(14.901961%,49.019608%,65.490196%);fill-opacity:1;" d="M 15.25 15.375 L 15.3125 15.4375 Z M 15.25 15.375 "/>
<path style=" stroke:none;fill-rule:nonzero;fill:rgb(65.098039%,70.196078%,78.039216%);fill-opacity:1;" d="M 15.375 15.375 L 15.4375 15.4375 L 15.375 15.375 M 16.4375 15.375 L 16.5 15.4375 L 16.4375 15.375 M 20.5625 15.375 L 20.625 15.4375 L 20.5625 15.375 M 23.75 15.375 L 23.8125 15.4375 L 23.75 15.375 M 28.125 15.375 L 28.1875 15.4375 Z M 28.125 15.375 "/>
<path style=" stroke:none;fill-rule:nonzero;fill:rgb(18.039216%,60%,79.215686%);fill-opacity:1;" d="M 28.1875 15.375 L 28.25 15.4375 L 28.1875 15.375 M 28.3125 15.375 L 28.375 15.4375 Z M 28.3125 15.375 "/>
<path style=" stroke:none;fill-rule:nonzero;fill:rgb(65.098039%,70.196078%,78.039216%);fill-opacity:1;" d="M 3.582031 15.480469 L 3.605469 15.519531 L 3.582031 15.480469 M 3.855469 15.457031 L 3.894531 15.480469 L 3.855469 15.457031 M 6.769531 15.480469 L 6.792969 15.519531 L 6.769531 15.480469 M 12.375 15.4375 L 12.375 15.625 L 12.4375 15.625 L 12.375 15.4375 M 16.5625 15.4375 L 16.625 15.5 L 16.5625 15.4375 M 23.8125 15.4375 L 23.875 15.5 L 23.8125 15.4375 M 25.0625 15.4375 L 25.0625 15.625 L 25.125 15.625 L 25.0625 15.4375 M 28.042969 15.457031 L 28.082031 15.480469 L 28.042969 15.457031 M 28.3125 15.4375 L 28.375 15.5 L 28.3125 15.4375 M 3.980469 15.519531 L 4.019531 15.542969 L 3.980469 15.519531 M 8 15.5 L 8.0625 15.5625 L 8 15.5 M 11.25 15.5 L 11.3125 15.5625 Z M 11.25 15.5 "/>
<path style=" stroke:none;fill-rule:nonzero;fill:rgb(14.901961%,49.019608%,65.490196%);fill-opacity:1;" d="M 15.125 15.5 L 15.1875 15.5625 Z M 15.125 15.5 "/>
<path style=" stroke:none;fill-rule:nonzero;fill:rgb(65.098039%,70.196078%,78.039216%);fill-opacity:1;" d="M 15.1875 15.5 L 15.25 15.5625 L 15.1875 15.5 M 19.332031 15.542969 L 19.355469 15.582031 L 19.332031 15.542969 M 20.5 15.5 L 20.5625 15.5625 Z M 20.5 15.5 "/>
<path style=" stroke:none;fill-rule:nonzero;fill:rgb(18.039216%,60%,79.215686%);fill-opacity:1;" d="M 27.9375 15.5 L 28 15.5625 L 27.9375 15.5 M 4.105469 15.582031 L 4.144531 15.605469 Z M 4.105469 15.582031 "/>
<path style=" stroke:none;fill-rule:nonzero;fill:rgb(65.098039%,70.196078%,78.039216%);fill-opacity:1;" d="M 4.1875 15.5625 L 4.25 15.625 L 4.1875 15.5625 M 15.125 15.5625 L 15.1875 15.625 L 15.125 15.5625 M 23.875 15.5625 L 23.9375 15.625 Z M 23.875 15.5625 "/>
<path style=" stroke:none;fill-rule:nonzero;fill:rgb(18.039216%,60%,79.215686%);fill-opacity:1;" d="M 28.25 15.5625 L 28.3125 15.625 Z M 28.25 15.5625 "/>
<path style=" stroke:none;fill-rule:nonzero;fill:rgb(65.098039%,70.196078%,78.039216%);fill-opacity:1;" d="M 3.625 15.625 L 3.625 15.8125 L 3.6875 15.8125 L 3.625 15.625 M 6.6875 15.625 L 6.6875 16.125 L 6.75 16.125 L 6.6875 15.625 M 7.9375 15.625 L 8 15.6875 L 7.9375 15.625 M 11.3125 15.625 L 11.375 15.6875 L 11.3125 15.625 M 15.0625 15.625 L 15.125 15.6875 L 15.0625 15.625 M 20.457031 15.667969 L 20.480469 15.707031 L 20.457031 15.667969 M 28.269531 15.667969 L 28.292969 15.707031 L 28.269531 15.667969 M 12.4375 15.6875 L 12.4375 15.9375 L 12.5 15.9375 L 12.4375 15.6875 M 16.8125 15.6875 L 16.875 15.75 L 16.8125 15.6875 M 23.957031 15.730469 L 23.980469 15.769531 L 23.957031 15.730469 M 25.125 15.6875 L 25.125 16.75 L 25.1875 16.75 L 25.125 15.6875 M 7.894531 15.792969 L 7.917969 15.832031 L 7.894531 15.792969 M 11.375 15.75 L 11.4375 15.8125 L 11.375 15.75 M 16.875 15.75 L 16.9375 15.8125 L 16.875 15.75 M 19.25 15.75 L 19.25 16.75 L 19.3125 16.75 Z M 19.25 15.75 "/>
<path style=" stroke:none;fill-rule:nonzero;fill:rgb(18.039216%,60%,79.215686%);fill-opacity:1;" d="M 28.1875 15.75 L 28.25 15.8125 L 28.1875 15.75 M 3.6875 15.8125 L 3.75 15.875 Z M 3.6875 15.8125 "/>
<path style=" stroke:none;fill-rule:nonzero;fill:rgb(65.098039%,70.196078%,78.039216%);fill-opacity:1;" d="M 14.9375 15.8125 L 15 15.875 L 14.9375 15.8125 M 20.394531 15.855469 L 20.417969 15.894531 L 20.394531 15.855469 M 28.207031 15.855469 L 28.230469 15.894531 L 28.207031 15.855469 M 3.707031 15.917969 L 3.730469 15.957031 L 3.707031 15.917969 M 16.9375 15.875 L 17 15.9375 Z M 16.9375 15.875 "/>
<path style=" stroke:none;fill-rule:nonzero;fill:rgb(14.901961%,49.019608%,65.490196%);fill-opacity:1;" d="M 17 15.875 L 17.0625 15.9375 Z M 17 15.875 "/>
<path style=" stroke:none;fill-rule:nonzero;fill:rgb(65.098039%,70.196078%,78.039216%);fill-opacity:1;" d="M 24.019531 15.917969 L 24.042969 15.957031 L 24.019531 15.917969 M 11.4375 15.9375 L 11.4375 16.125 L 11.5 16.125 L 11.4375 15.9375 M 14.875 15.9375 L 14.9375 16 Z M 14.875 15.9375 "/>
<path style=" stroke:none;fill-rule:nonzero;fill:rgb(18.039216%,60%,79.215686%);fill-opacity:1;" d="M 28.125 15.9375 L 28.1875 16 L 28.125 15.9375 M 3.75 16 L 3.8125 16.0625 Z M 3.75 16 "/>
<path style=" stroke:none;fill-rule:nonzero;fill:rgb(65.098039%,70.196078%,78.039216%);fill-opacity:1;" d="M 7.8125 16 L 7.8125 16.1875 L 7.875 16.1875 L 7.8125 16 M 17.019531 16.042969 L 17.042969 16.082031 L 17.019531 16.042969 M 28.144531 16.042969 L 28.167969 16.082031 L 28.144531 16.042969 M 3.769531 16.105469 L 3.792969 16.144531 L 3.769531 16.105469 M 12.5 16.125 L 12.5 16.8125 L 12.5625 16.8125 L 12.5 16.125 M 14.8125 16.125 L 14.875 16.1875 L 14.8125 16.125 M 20.3125 16.125 L 20.3125 16.625 L 20.375 16.625 L 20.3125 16.125 M 28.082031 16.167969 L 28.105469 16.207031 Z M 28.082031 16.167969 "/>
<path style=" stroke:none;fill-rule:nonzero;fill:rgb(18.039216%,60%,79.215686%);fill-opacity:1;" d="M 3.8125 16.1875 L 3.875 16.25 Z M 3.8125 16.1875 "/>
<path style=" stroke:none;fill-rule:nonzero;fill:rgb(65.098039%,70.196078%,78.039216%);fill-opacity:1;" d="M 17.082031 16.230469 L 17.105469 16.269531 L 17.082031 16.230469 M 24.0625 16.1875 L 24.0625 16.5625 L 24.125 16.5625 L 24.0625 16.1875 M 3.8125 16.25 L 3.875 16.3125 L 3.8125 16.25 M 6.6875 16.25 L 6.6875 16.6875 L 6.75 16.6875 Z M 6.6875 16.25 "/>
<path style=" stroke:none;fill-rule:nonzero;fill:rgb(18.039216%,60%,79.215686%);fill-opacity:1;" d="M 28 16.25 L 28.0625 16.3125 L 28 16.25 M 3.875 16.3125 L 3.9375 16.375 Z M 3.875 16.3125 "/>
<path style=" stroke:none;fill-rule:nonzero;fill:rgb(65.098039%,70.196078%,78.039216%);fill-opacity:1;" d="M 28 16.3125 L 28.0625 16.375 L 28 16.3125 M 3.875 16.375 L 3.9375 16.4375 L 3.875 16.375 M 14.769531 16.417969 L 14.792969 16.457031 Z M 14.769531 16.417969 "/>
<path style=" stroke:none;fill-rule:nonzero;fill:rgb(18.039216%,60%,79.215686%);fill-opacity:1;" d="M 27.9375 16.375 L 28 16.4375 L 27.9375 16.375 M 3.9375 16.4375 L 4 16.5 Z M 3.9375 16.4375 "/>
<path style=" stroke:none;fill-rule:nonzero;fill:rgb(65.098039%,70.196078%,78.039216%);fill-opacity:1;" d="M 17.144531 16.480469 L 17.167969 16.519531 L 17.144531 16.480469 M 27.9375 16.4375 L 28 16.5 L 27.9375 16.4375 M 3.9375 16.5 L 4 16.5625 L 3.9375 16.5 M 27.875 16.5 L 27.9375 16.5625 L 27.875 16.5 M 4 16.5625 L 4.0625 16.625 L 4 16.5625 M 7.8125 16.5625 L 7.8125 16.8125 L 7.875 16.8125 Z M 7.8125 16.5625 "/>
<path style=" stroke:none;fill-rule:nonzero;fill:rgb(18.039216%,60%,79.215686%);fill-opacity:1;" d="M 27.8125 16.5625 L 27.875 16.625 L 27.8125 16.5625 M 4.0625 16.625 L 4.1875 16.75 Z M 4.0625 16.625 "/>
<path style=" stroke:none;fill-rule:nonzero;fill:rgb(65.098039%,70.196078%,78.039216%);fill-opacity:1;" d="M 14.707031 16.667969 L 14.730469 16.707031 L 14.707031 16.667969 M 27.8125 16.625 L 27.875 16.6875 L 27.8125 16.625 M 4.0625 16.6875 L 4.125 16.75 Z M 4.0625 16.6875 "/>
<path style=" stroke:none;fill-rule:nonzero;fill:rgb(14.901961%,49.019608%,65.490196%);fill-opacity:1;" d="M 14.625 16.6875 L 14.6875 16.75 Z M 14.625 16.6875 "/>
<path style=" stroke:none;fill-rule:nonzero;fill:rgb(65.098039%,70.196078%,78.039216%);fill-opacity:1;" d="M 17.207031 16.730469 L 17.230469 16.769531 L 17.207031 16.730469 M 27.75 16.6875 L 27.8125 16.75 L 27.75 16.6875 M 4.125 16.75 L 4.1875 16.8125 L 4.125 16.75 M 6.75 16.75 L 6.75 16.9375 L 6.8125 16.9375 L 6.75 16.75 M 11.457031 16.792969 L 11.480469 16.832031 L 11.457031 16.792969 M 24.019531 16.792969 L 24.042969 16.832031 L 24.019531 16.792969 M 27.6875 16.75 L 27.75 16.8125 Z M 27.6875 16.75 "/>
<path style=" stroke:none;fill-rule:nonzero;fill:rgb(18.039216%,60%,79.215686%);fill-opacity:1;" d="M 4.1875 16.8125 L 4.25 16.875 Z M 4.1875 16.8125 "/>
<path style=" stroke:none;fill-rule:nonzero;fill:rgb(65.098039%,70.196078%,78.039216%);fill-opacity:1;" d="M 14.625 16.8125 L 14.6875 16.875 L 14.625 16.8125 M 20.394531 16.855469 L 20.417969 16.894531 L 20.394531 16.855469 M 25.082031 16.855469 L 25.105469 16.894531 Z M 25.082031 16.855469 "/>
<path style=" stroke:none;fill-rule:nonzero;fill:rgb(18.039216%,60%,79.215686%);fill-opacity:1;" d="M 27.625 16.8125 L 27.6875 16.875 Z M 27.625 16.8125 "/>
<path style=" stroke:none;fill-rule:nonzero;fill:rgb(65.098039%,70.196078%,78.039216%);fill-opacity:1;" d="M 4.1875 16.875 L 4.1875 17.1875 L 4.25 17.1875 L 4.1875 16.875 M 7.894531 16.917969 L 7.917969 16.957031 L 7.894531 16.917969 M 12.4375 16.875 L 12.4375 17.0625 L 12.5 17.0625 L 12.4375 16.875 M 17.25 16.875 L 17.3125 16.9375 L 17.25 16.875 M 19.3125 16.875 L 19.3125 17.0625 L 19.375 17.0625 L 19.3125 16.875 M 27.625 16.875 L 27.625 19.1875 L 27.6875 19.1875 C 27.6875 18.523438 27.882812 17.488281 27.625 16.875 Z M 27.625 16.875 "/>
<path style=" stroke:none;fill-rule:nonzero;fill:rgb(14.901961%,49.019608%,65.490196%);fill-opacity:1;" d="M 14.5 16.9375 L 14.5625 17 Z M 14.5 16.9375 "/>
<path style=" stroke:none;fill-rule:nonzero;fill:rgb(65.098039%,70.196078%,78.039216%);fill-opacity:1;" d="M 14.5625 16.9375 L 14.625 17 L 14.5625 16.9375 M 23.957031 16.980469 L 23.980469 17.019531 L 23.957031 16.980469 M 6.832031 17.042969 L 6.855469 17.082031 L 6.832031 17.042969 M 11.394531 17.042969 L 11.417969 17.082031 L 11.394531 17.042969 M 17.3125 17 L 17.375 17.0625 L 17.3125 17 M 20.457031 17.042969 L 20.480469 17.082031 L 20.457031 17.042969 M 25 17 L 25 17.1875 L 25.0625 17.1875 L 25 17 M 7.9375 17.0625 L 8 17.125 L 7.9375 17.0625 M 14.5 17.0625 L 14.5625 17.125 Z M 14.5 17.0625 "/>
<path style=" stroke:none;fill-rule:nonzero;fill:rgb(18.039216%,60%,79.215686%);fill-opacity:1;" d="M 4.25 17.125 L 4.25 18.0625 L 4.3125 18.0625 Z M 4.25 17.125 "/>
<path style=" stroke:none;fill-rule:nonzero;fill:rgb(65.098039%,70.196078%,78.039216%);fill-opacity:1;" d="M 6.894531 17.167969 L 6.917969 17.207031 L 6.894531 17.167969 M 12.394531 17.167969 L 12.417969 17.207031 L 12.394531 17.167969 M 19.394531 17.167969 L 19.417969 17.207031 L 19.394531 17.167969 M 23.875 17.125 L 23.9375 17.1875 L 23.875 17.125 M 8 17.1875 L 8.0625 17.25 L 8 17.1875 M 11.3125 17.1875 L 11.375 17.25 L 11.3125 17.1875 M 14.4375 17.1875 L 14.5 17.25 L 14.4375 17.1875 M 17.4375 17.1875 L 17.5 17.25 L 17.4375 17.1875 M 20.5 17.1875 L 20.5625 17.25 L 20.5 17.1875 M 24.957031 17.230469 L 24.980469 17.269531 Z M 24.957031 17.230469 "/>
<path style=" stroke:none;fill-rule:nonzero;fill:rgb(14.901961%,49.019608%,65.490196%);fill-opacity:1;" d="M 5.269531 17.292969 L 5.292969 17.332031 Z M 5.269531 17.292969 "/>
<path style=" stroke:none;fill-rule:nonzero;fill:rgb(65.098039%,70.196078%,78.039216%);fill-opacity:1;" d="M 19.457031 17.292969 L 19.480469 17.332031 L 19.457031 17.292969 M 23.8125 17.25 L 23.875 17.3125 L 23.8125 17.25 M 6.9375 17.3125 L 7 17.375 L 6.9375 17.3125 M 8.0625 17.3125 L 8.125 17.375 L 8.0625 17.3125 M 11.25 17.3125 L 11.3125 17.375 L 11.25 17.3125 M 12.332031 17.355469 L 12.355469 17.394531 L 12.332031 17.355469 M 14.375 17.3125 L 14.4375 17.375 L 14.375 17.3125 M 17.5 17.3125 L 17.5625 17.375 L 17.5 17.3125 M 20.5625 17.3125 L 20.625 17.375 L 20.5625 17.3125 M 24.894531 17.355469 L 24.917969 17.394531 L 24.894531 17.355469 M 23.75 17.375 L 23.8125 17.4375 L 23.75 17.375 M 7 17.4375 L 7.0625 17.5 L 7 17.4375 M 8.125 17.4375 L 8.1875 17.5 L 8.125 17.4375 M 11.1875 17.4375 L 11.25 17.5 L 11.1875 17.4375 M 12.269531 17.480469 L 12.292969 17.519531 L 12.269531 17.480469 M 19.5 17.4375 L 19.5625 17.5 L 19.5 17.4375 M 20.625 17.4375 L 20.6875 17.5 L 20.625 17.4375 M 23.6875 17.4375 L 23.75 17.5 L 23.6875 17.4375 M 24.832031 17.480469 L 24.855469 17.519531 L 24.832031 17.480469 M 7.082031 17.542969 L 7.105469 17.582031 L 7.082031 17.542969 M 8.1875 17.5 L 8.25 17.5625 Z M 8.1875 17.5 "/>
<path style=" stroke:none;fill-rule:nonzero;fill:rgb(14.901961%,49.019608%,65.490196%);fill-opacity:1;" d="M 14.25 17.5 L 14.3125 17.5625 Z M 14.25 17.5 "/>
<path style=" stroke:none;fill-rule:nonzero;fill:rgb(65.098039%,70.196078%,78.039216%);fill-opacity:1;" d="M 14.332031 17.542969 L 14.355469 17.582031 L 14.332031 17.542969 M 17.5625 17.5 L 17.5625 17.75 L 17.625 17.75 L 17.5625 17.5 M 20.6875 17.5 L 20.75 17.5625 L 20.6875 17.5 M 12.207031 17.605469 L 12.230469 17.644531 Z M 12.207031 17.605469 "/>
<path style=" stroke:none;fill-rule:nonzero;fill:rgb(14.901961%,49.019608%,65.490196%);fill-opacity:1;" d="M 17.625 17.5625 L 17.625 17.8125 L 17.6875 17.8125 Z M 17.625 17.5625 "/>
<path style=" stroke:none;fill-rule:nonzero;fill:rgb(65.098039%,70.196078%,78.039216%);fill-opacity:1;" d="M 19.5625 17.5625 L 19.625 17.625 L 19.5625 17.5625 M 24.75 17.5625 L 24.8125 17.625 L 24.75 17.5625 M 7.125 17.625 L 7.1875 17.6875 L 7.125 17.625 M 11.0625 17.625 L 11.125 17.6875 L 11.0625 17.625 M 20.75 17.625 L 20.8125 17.6875 L 20.75 17.625 M 11 17.6875 L 11.0625 17.75 L 11 17.6875 M 12.144531 17.730469 L 12.167969 17.769531 L 12.144531 17.730469 M 19.625 17.6875 L 19.6875 17.75 L 19.625 17.6875 M 20.8125 17.6875 L 20.875 17.75 L 20.8125 17.6875 M 23.5 17.6875 L 23.5625 17.75 L 23.5 17.6875 M 24.6875 17.6875 L 24.75 17.75 L 24.6875 17.6875 M 7.1875 17.75 L 7.25 17.8125 L 7.1875 17.75 M 10.9375 17.75 L 11 17.8125 L 10.9375 17.75 M 19.6875 17.75 L 19.75 17.8125 L 19.6875 17.75 M 20.875 17.75 L 20.9375 17.8125 L 20.875 17.75 M 23.4375 17.75 L 23.5 17.8125 L 23.4375 17.75 M 24.625 17.75 L 24.6875 17.8125 L 24.625 17.75 M 7.25 17.8125 L 7.3125 17.875 L 7.25 17.8125 M 10.875 17.8125 L 10.9375 17.875 L 10.875 17.8125 M 12.0625 17.8125 L 12.125 17.875 Z M 12.0625 17.8125 "/>
<path style=" stroke:none;fill-rule:nonzero;fill:rgb(14.901961%,49.019608%,65.490196%);fill-opacity:1;" d="M 14.3125 17.8125 L 14.375 17.875 Z M 14.3125 17.8125 "/>
<path style=" stroke:none;fill-rule:nonzero;fill:rgb(65.098039%,70.196078%,78.039216%);fill-opacity:1;" d="M 20.9375 17.8125 L 21 17.875 L 20.9375 17.8125 M 7.3125 17.875 L 7.375 17.9375 L 7.3125 17.875 M 8.5625 17.875 L 8.625 17.9375 L 8.5625 17.875 M 10.8125 17.875 L 10.875 17.9375 L 10.8125 17.875 M 12.019531 17.917969 L 12.042969 17.957031 L 12.019531 17.917969 M 14.394531 17.917969 L 14.417969 17.957031 L 14.394531 17.917969 M 19.75 17.875 L 19.8125 17.9375 L 19.75 17.875 M 23.25 17.875 L 23.3125 17.9375 L 23.25 17.875 M 24.5625 17.875 L 24.625 17.9375 L 24.5625 17.875 M 7.375 17.9375 L 7.4375 18 L 7.375 17.9375 M 8.625 17.9375 L 8.6875 18 L 8.625 17.9375 M 17.519531 17.980469 L 17.542969 18.019531 L 17.519531 17.980469 M 19.8125 17.9375 L 19.875 18 L 19.8125 17.9375 M 21.125 17.9375 L 21.1875 18 L 21.125 17.9375 M 23.1875 17.9375 L 23.25 18 L 23.1875 17.9375 M 24.5 17.9375 L 24.5625 18 L 24.5 17.9375 M 7.4375 18 L 7.5 18.0625 L 7.4375 18 M 8.75 18 L 8.8125 18.0625 L 8.75 18 M 10.625 18 L 10.6875 18.0625 L 10.625 18 M 11.9375 18 L 12 18.0625 L 11.9375 18 M 19.875 18 L 19.9375 18.0625 L 19.875 18 M 21.1875 18 L 21.25 18.0625 L 21.1875 18 M 23.0625 18 L 23.125 18.0625 L 23.0625 18 M 24.4375 18 L 24.5 18.0625 L 24.4375 18 M 4.25 18.0625 L 4.25 19.1875 L 4.3125 19.1875 L 4.25 18.0625 M 8.875 18.0625 L 8.9375 18.125 L 8.875 18.0625 M 10.5 18.0625 L 10.5625 18.125 L 10.5 18.0625 M 11.875 18.0625 L 11.9375 18.125 Z M 11.875 18.0625 "/>
<path style=" stroke:none;fill-rule:nonzero;fill:rgb(14.901961%,49.019608%,65.490196%);fill-opacity:1;" d="M 14.375 18.0625 L 14.4375 18.125 Z M 14.375 18.0625 "/>
<path style=" stroke:none;fill-rule:nonzero;fill:rgb(65.098039%,70.196078%,78.039216%);fill-opacity:1;" d="M 14.457031 18.105469 L 14.480469 18.144531 L 14.457031 18.105469 M 19.9375 18.0625 L 20 18.125 L 19.9375 18.0625 M 21.3125 18.0625 L 21.375 18.125 L 21.3125 18.0625 M 23 18.0625 L 23.0625 18.125 L 23 18.0625 M 24.375 18.0625 L 24.4375 18.125 L 24.375 18.0625 M 9.042969 18.144531 L 9.082031 18.167969 L 9.042969 18.144531 M 10.375 18.125 L 10.4375 18.1875 L 10.375 18.125 M 11.8125 18.125 L 11.875 18.1875 L 11.8125 18.125 M 17.4375 18.125 L 17.5 18.1875 Z M 17.4375 18.125 "/>
<path style=" stroke:none;fill-rule:nonzero;fill:rgb(14.901961%,49.019608%,65.490196%);fill-opacity:1;" d="M 17.5 18.125 L 17.5625 18.1875 Z M 17.5 18.125 "/>
<path style=" stroke:none;fill-rule:nonzero;fill:rgb(65.098039%,70.196078%,78.039216%);fill-opacity:1;" d="M 20 18.125 L 20.0625 18.1875 L 20 18.125 M 21.5 18.125 L 21.5625 18.1875 L 21.5 18.125 M 22.855469 18.144531 L 22.894531 18.167969 L 22.855469 18.144531 M 24.3125 18.125 L 24.375 18.1875 L 24.3125 18.125 M 7.625 18.1875 L 7.6875 18.25 L 7.625 18.1875 M 9.230469 18.207031 L 9.269531 18.230469 L 9.230469 18.207031 M 10.167969 18.207031 L 10.207031 18.230469 L 10.167969 18.207031 M 11.75 18.1875 L 11.8125 18.25 Z M 11.75 18.1875 "/>
<path style=" stroke:none;fill-rule:nonzero;fill:rgb(14.901961%,49.019608%,65.490196%);fill-opacity:1;" d="M 14.3125 18.1875 L 14.375 18.25 Z M 14.3125 18.1875 "/>
<path style=" stroke:none;fill-rule:nonzero;fill:rgb(65.098039%,70.196078%,78.039216%);fill-opacity:1;" d="M 20.0625 18.1875 L 20.125 18.25 L 20.0625 18.1875 M 21.730469 18.207031 L 21.769531 18.230469 L 21.730469 18.207031 M 22.667969 18.207031 L 22.707031 18.230469 L 22.667969 18.207031 M 24.25 18.1875 L 24.3125 18.25 L 24.25 18.1875 M 7.6875 18.25 L 7.75 18.3125 L 7.6875 18.25 M 9.4375 18.25 L 9.4375 18.3125 L 10 18.3125 L 9.4375 18.25 M 11.6875 18.25 L 11.75 18.3125 L 11.6875 18.25 M 14.5 18.25 L 14.5625 18.3125 L 14.5 18.25 M 17.375 18.25 L 17.4375 18.3125 L 17.375 18.25 M 20.125 18.25 L 20.1875 18.3125 L 20.125 18.25 M 21.9375 18.25 L 21.9375 18.3125 L 22.4375 18.3125 L 21.9375 18.25 M 24.1875 18.25 L 24.25 18.3125 L 24.1875 18.25 M 7.75 18.3125 L 7.8125 18.375 L 7.75 18.3125 M 11.625 18.3125 L 11.6875 18.375 L 11.625 18.3125 M 20.1875 18.3125 L 20.25 18.375 L 20.1875 18.3125 M 24.125 18.3125 L 24.1875 18.375 L 24.125 18.3125 M 7.875 18.375 L 7.9375 18.4375 L 7.875 18.375 M 11.5625 18.375 L 11.625 18.4375 L 11.5625 18.375 M 14.5625 18.375 L 14.625 18.4375 L 14.5625 18.375 M 17.3125 18.375 L 17.375 18.4375 L 17.3125 18.375 M 20.25 18.375 L 20.3125 18.4375 L 20.25 18.375 M 24.0625 18.375 L 24.125 18.4375 L 24.0625 18.375 M 7.9375 18.4375 L 8 18.5 L 7.9375 18.4375 M 11.5 18.4375 L 11.5625 18.5 L 11.5 18.4375 M 14.625 18.4375 L 14.6875 18.5 L 14.625 18.4375 M 20.355469 18.457031 L 20.394531 18.480469 L 20.355469 18.457031 M 23.980469 18.457031 L 24.019531 18.480469 L 23.980469 18.457031 M 8.042969 18.519531 L 8.082031 18.542969 L 8.042969 18.519531 M 11.375 18.5 L 11.4375 18.5625 L 11.375 18.5 M 20.4375 18.5 L 20.5 18.5625 L 20.4375 18.5 M 23.875 18.5 L 23.9375 18.5625 L 23.875 18.5 M 8.125 18.5625 L 8.1875 18.625 L 8.125 18.5625 M 11.3125 18.5625 L 11.375 18.625 L 11.3125 18.5625 M 14.75 18.5625 L 14.8125 18.625 L 14.75 18.5625 M 17.125 18.5625 L 17.1875 18.625 L 17.125 18.5625 M 20.5625 18.5625 L 20.625 18.625 L 20.5625 18.5625 M 23.8125 18.5625 L 23.875 18.625 L 23.8125 18.5625 M 8.25 18.625 L 8.3125 18.6875 L 8.25 18.625 M 11.1875 18.625 L 11.25 18.6875 L 11.1875 18.625 M 14.8125 18.625 L 14.875 18.6875 L 14.8125 18.625 M 17.0625 18.625 L 17.125 18.6875 L 17.0625 18.625 M 20.625 18.625 L 20.6875 18.6875 L 20.625 18.625 M 23.6875 18.625 L 23.75 18.6875 L 23.6875 18.625 M 8.355469 18.707031 L 8.394531 18.730469 L 8.355469 18.707031 M 11.125 18.6875 L 11.1875 18.75 L 11.125 18.6875 M 14.9375 18.6875 L 15 18.75 L 14.9375 18.6875 M 16.9375 18.6875 L 17 18.75 L 16.9375 18.6875 M 20.75 18.6875 L 20.8125 18.75 L 20.75 18.6875 M 23.5625 18.6875 L 23.625 18.75 L 23.5625 18.6875 M 8.480469 18.769531 L 8.519531 18.792969 L 8.480469 18.769531 M 11 18.75 L 11.0625 18.8125 L 11 18.75 M 15.0625 18.75 L 15.125 18.8125 L 15.0625 18.75 M 16.8125 18.75 L 16.875 18.8125 L 16.8125 18.75 M 20.875 18.75 L 20.9375 18.8125 L 20.875 18.75 M 23.480469 18.769531 L 23.519531 18.792969 L 23.480469 18.769531 M 8.605469 18.832031 L 8.644531 18.855469 L 8.605469 18.832031 M 10.855469 18.832031 L 10.894531 18.855469 L 10.855469 18.832031 M 15.230469 18.832031 L 15.269531 18.855469 L 15.230469 18.832031 M 16.667969 18.832031 L 16.707031 18.855469 L 16.667969 18.832031 M 21.042969 18.832031 L 21.082031 18.855469 L 21.042969 18.832031 M 23.355469 18.832031 L 23.394531 18.855469 L 23.355469 18.832031 M 8.75 18.875 L 8.8125 18.9375 L 8.75 18.875 M 10.730469 18.894531 L 10.769531 18.917969 L 10.730469 18.894531 M 15.4375 18.875 L 15.4375 18.9375 L 15.625 18.9375 L 15.4375 18.875 M 16.417969 18.894531 L 16.457031 18.917969 L 16.417969 18.894531 M 21.167969 18.894531 L 21.207031 18.917969 L 21.167969 18.894531 M 23.167969 18.894531 L 23.207031 18.917969 L 23.167969 18.894531 M 8.917969 18.957031 L 8.957031 18.980469 L 8.917969 18.957031 M 10.542969 18.957031 L 10.582031 18.980469 L 10.542969 18.957031 M 21.355469 18.957031 L 21.394531 18.980469 L 21.355469 18.957031 M 23.042969 18.957031 L 23.082031 18.980469 L 23.042969 18.957031 M 9.0625 19 L 9.0625 19.0625 L 9.25 19.0625 L 9.0625 19 M 10.355469 19.019531 L 10.394531 19.042969 L 10.355469 19.019531 M 21.542969 19.019531 L 21.582031 19.042969 L 21.542969 19.019531 M 22.75 19 L 22.75 19.0625 L 22.9375 19.0625 L 22.75 19 M 9.3125 19.0625 L 9.3125 19.125 L 9.5 19.125 L 9.3125 19.0625 M 10 19.0625 L 10 19.125 L 10.25 19.125 L 10 19.0625 M 21.6875 19.0625 L 21.6875 19.125 L 21.9375 19.125 L 21.6875 19.0625 M 22.3125 19.0625 L 22.3125 19.125 L 22.6875 19.125 Z M 22.3125 19.0625 "/>
<path style=" stroke:none;fill-rule:nonzero;fill:rgb(18.039216%,60%,79.215686%);fill-opacity:1;" d="M 4.269531 19.230469 L 4.292969 19.269531 L 4.269531 19.230469 M 27.644531 19.230469 L 27.667969 19.269531 Z M 27.644531 19.230469 "/>
<path style=" stroke:none;fill-rule:nonzero;fill:rgb(65.098039%,70.196078%,78.039216%);fill-opacity:1;" d="M 27.707031 19.292969 L 27.730469 19.332031 L 27.707031 19.292969 M 4.207031 19.355469 L 4.230469 19.394531 Z M 4.207031 19.355469 "/>
<path style=" stroke:none;fill-rule:nonzero;fill:rgb(18.039216%,60%,79.215686%);fill-opacity:1;" d="M 27.6875 19.375 L 27.75 19.4375 L 27.6875 19.375 M 4.1875 19.4375 L 4.25 19.5 Z M 4.1875 19.4375 "/>
<path style=" stroke:none;fill-rule:nonzero;fill:rgb(65.098039%,70.196078%,78.039216%);fill-opacity:1;" d="M 27.75 19.4375 L 27.875 19.75 L 27.9375 19.75 L 27.75 19.4375 M 4.125 19.5 L 4.1875 19.5625 Z M 4.125 19.5 "/>
<path style=" stroke:none;fill-rule:nonzero;fill:rgb(18.039216%,60%,79.215686%);fill-opacity:1;" d="M 4.125 19.5625 L 4.1875 19.625 L 4.125 19.5625 M 27.75 19.5625 L 27.8125 19.625 Z M 27.75 19.5625 "/>
<path style=" stroke:none;fill-rule:nonzero;fill:rgb(65.098039%,70.196078%,78.039216%);fill-opacity:1;" d="M 4.0625 19.625 L 4.125 19.6875 Z M 4.0625 19.625 "/>
<path style=" stroke:none;fill-rule:nonzero;fill:rgb(18.039216%,60%,79.215686%);fill-opacity:1;" d="M 4.0625 19.6875 L 4.125 19.75 L 4.0625 19.6875 M 27.8125 19.6875 L 27.875 19.75 Z M 27.8125 19.6875 "/>
<path style=" stroke:none;fill-rule:nonzero;fill:rgb(65.098039%,70.196078%,78.039216%);fill-opacity:1;" d="M 4 19.75 L 4.0625 19.8125 Z M 4 19.75 "/>
<path style=" stroke:none;fill-rule:nonzero;fill:rgb(18.039216%,60%,79.215686%);fill-opacity:1;" d="M 27.875 19.75 L 27.9375 19.8125 L 27.875 19.75 M 4 19.8125 L 4.0625 19.875 Z M 4 19.8125 "/>
<path style=" stroke:none;fill-rule:nonzero;fill:rgb(65.098039%,70.196078%,78.039216%);fill-opacity:1;" d="M 27.9375 19.8125 L 28.0625 19.9375 L 27.9375 19.8125 M 3.9375 19.875 L 4 19.9375 Z M 3.9375 19.875 "/>
<path style=" stroke:none;fill-rule:nonzero;fill:rgb(18.039216%,60%,79.215686%);fill-opacity:1;" d="M 27.9375 19.875 L 28 19.9375 Z M 27.9375 19.875 "/>
<path style=" stroke:none;fill-rule:nonzero;fill:rgb(65.098039%,70.196078%,78.039216%);fill-opacity:1;" d="M 3.875 19.9375 L 3.9375 20 Z M 3.875 19.9375 "/>
<path style=" stroke:none;fill-rule:nonzero;fill:rgb(18.039216%,60%,79.215686%);fill-opacity:1;" d="M 28 19.9375 L 28.0625 20 L 28 19.9375 M 3.875 20 L 3.9375 20.0625 L 3.875 20 M 26.8125 20 L 26.875 20.0625 Z M 26.8125 20 "/>
<path style=" stroke:none;fill-rule:nonzero;fill:rgb(65.098039%,70.196078%,78.039216%);fill-opacity:1;" d="M 28.0625 20 L 28.1875 20.25 L 28.25 20.25 L 28.0625 20 M 3.8125 20.0625 L 3.875 20.125 Z M 3.8125 20.0625 "/>
<path style=" stroke:none;fill-rule:nonzero;fill:rgb(18.039216%,60%,79.215686%);fill-opacity:1;" d="M 28.0625 20.0625 L 28.125 20.125 Z M 28.0625 20.0625 "/>
<path style=" stroke:none;fill-rule:nonzero;fill:rgb(65.098039%,70.196078%,78.039216%);fill-opacity:1;" d="M 3.75 20.125 L 3.6875 20.3125 L 3.75 20.3125 Z M 3.75 20.125 "/>
<path style=" stroke:none;fill-rule:nonzero;fill:rgb(18.039216%,60%,79.215686%);fill-opacity:1;" d="M 28.125 20.125 L 28.1875 20.1875 L 28.125 20.125 M 3.75 20.1875 L 3.8125 20.25 L 3.75 20.1875 M 27.875 20.1875 L 27.8125 20.4375 L 28.0625 20.375 L 28 20.1875 Z M 27.875 20.1875 "/>
<path style=" stroke:none;fill-rule:nonzero;fill:rgb(14.901961%,49.019608%,65.490196%);fill-opacity:1;" d="M 27.875 20.25 L 27.9375 20.3125 Z M 27.875 20.25 "/>
<path style=" stroke:none;fill-rule:nonzero;fill:rgb(65.098039%,70.196078%,78.039216%);fill-opacity:1;" d="M 28.25 20.25 L 28.375 20.5 L 28.4375 20.5 L 28.25 20.25 M 3.625 20.3125 L 3.6875 20.375 Z M 3.625 20.3125 "/>
<path style=" stroke:none;fill-rule:nonzero;fill:rgb(18.039216%,60%,79.215686%);fill-opacity:1;" d="M 26.832031 20.355469 L 26.855469 20.394531 L 26.832031 20.355469 M 27.5 20.3125 L 27.5625 20.375 L 27.5 20.3125 M 28.125 20.3125 L 28.1875 20.375 L 28.125 20.3125 M 28.25 20.3125 L 28.3125 20.375 L 28.25 20.3125 M 3.625 20.375 L 3.6875 20.4375 L 3.625 20.375 M 28.3125 20.375 L 28.375 20.4375 Z M 28.3125 20.375 "/>
<path style=" stroke:none;fill-rule:nonzero;fill:rgb(65.098039%,70.196078%,78.039216%);fill-opacity:1;" d="M 3.5625 20.4375 L 3.625 20.5 Z M 3.5625 20.4375 "/>
<path style=" stroke:none;fill-rule:nonzero;fill:rgb(18.039216%,60%,79.215686%);fill-opacity:1;" d="M 28.0625 20.4375 L 27.625 20.5625 L 28 20.8125 L 27.9375 20.625 L 28.25 20.625 L 28.25 20.5625 Z M 28.0625 20.4375 "/>
<path style=" stroke:none;fill-rule:nonzero;fill:rgb(65.098039%,70.196078%,78.039216%);fill-opacity:1;" d="M 3.5 20.5 L 3.4375 20.625 Z M 3.5 20.5 "/>
<path style=" stroke:none;fill-rule:nonzero;fill:rgb(18.039216%,60%,79.215686%);fill-opacity:1;" d="M 27.25 20.5 L 27.3125 20.5625 Z M 27.25 20.5 "/>
<path style=" stroke:none;fill-rule:nonzero;fill:rgb(65.098039%,70.196078%,78.039216%);fill-opacity:1;" d="M 28.4375 20.5 L 28.6875 20.875 L 28.75 20.875 Z M 28.4375 20.5 "/>
<path style=" stroke:none;fill-rule:nonzero;fill:rgb(18.039216%,60%,79.215686%);fill-opacity:1;" d="M 3.5 20.5625 L 3.5 20.75 L 3.3125 20.8125 L 3.3125 20.875 L 3.8125 20.8125 L 3.8125 20.75 Z M 3.5 20.5625 "/>
<path style=" stroke:none;fill-rule:nonzero;fill:rgb(14.901961%,49.019608%,65.490196%);fill-opacity:1;" d="M 26.125 20.5625 L 26.1875 20.625 Z M 26.125 20.5625 "/>
<path style=" stroke:none;fill-rule:nonzero;fill:rgb(18.039216%,60%,79.215686%);fill-opacity:1;" d="M 27.5 20.5625 L 27.5625 20.625 L 27.5 20.5625 M 28.4375 20.5625 L 28.5 20.625 L 28.4375 20.5625 M 4.875 20.625 L 4.875 20.6875 L 5.125 20.6875 Z M 4.875 20.625 "/>
<path style=" stroke:none;fill-rule:nonzero;fill:rgb(65.098039%,70.196078%,78.039216%);fill-opacity:1;" d="M 5.125 20.625 L 5.125 20.6875 L 5.6875 20.6875 Z M 5.125 20.625 "/>
<path style=" stroke:none;fill-rule:nonzero;fill:rgb(14.901961%,49.019608%,65.490196%);fill-opacity:1;" d="M 25.5 20.625 L 25.5 20.6875 L 25.6875 20.6875 Z M 25.5 20.625 "/>
<path style=" stroke:none;fill-rule:nonzero;fill:rgb(65.098039%,70.196078%,78.039216%);fill-opacity:1;" d="M 26.0625 20.625 L 26.0625 20.6875 L 26.8125 20.6875 Z M 26.0625 20.625 "/>
<path style=" stroke:none;fill-rule:nonzero;fill:rgb(18.039216%,60%,79.215686%);fill-opacity:1;" d="M 26.8125 20.625 L 26.8125 20.6875 L 27 20.6875 Z M 26.8125 20.625 "/>
<path style=" stroke:none;fill-rule:nonzero;fill:rgb(14.901961%,49.019608%,65.490196%);fill-opacity:1;" d="M 27.75 20.625 L 27.8125 20.6875 Z M 27.75 20.625 "/>
<path style=" stroke:none;fill-rule:nonzero;fill:rgb(18.039216%,60%,79.215686%);fill-opacity:1;" d="M 28.5 20.625 L 28.5625 20.6875 Z M 28.5 20.625 "/>
<path style=" stroke:none;fill-rule:nonzero;fill:rgb(65.098039%,70.196078%,78.039216%);fill-opacity:1;" d="M 3.375 20.6875 L 3.4375 20.75 Z M 3.375 20.6875 "/>
<path style=" stroke:none;fill-rule:nonzero;fill:rgb(14.901961%,49.019608%,65.490196%);fill-opacity:1;" d="M 3.4375 20.6875 L 3.5 20.75 Z M 3.4375 20.6875 "/>
<path style=" stroke:none;fill-rule:nonzero;fill:rgb(18.039216%,60%,79.215686%);fill-opacity:1;" d="M 4.605469 20.707031 L 4.644531 20.730469 Z M 4.605469 20.707031 "/>
<path style=" stroke:none;fill-rule:nonzero;fill:rgb(65.098039%,70.196078%,78.039216%);fill-opacity:1;" d="M 4.6875 20.6875 L 4.6875 20.75 L 4.9375 20.75 L 4.6875 20.6875 M 5.9375 20.6875 L 5.9375 20.75 L 6.3125 20.75 Z M 5.9375 20.6875 "/>
<path style=" stroke:none;fill-rule:nonzero;fill:rgb(14.901961%,49.019608%,65.490196%);fill-opacity:1;" d="M 25.105469 20.707031 L 25.144531 20.730469 Z M 25.105469 20.707031 "/>
<path style=" stroke:none;fill-rule:nonzero;fill:rgb(65.098039%,70.196078%,78.039216%);fill-opacity:1;" d="M 25.4375 20.6875 L 25.4375 20.75 L 25.8125 20.75 L 25.4375 20.6875 M 27 20.6875 L 27 20.75 L 27.1875 20.75 Z M 27 20.6875 "/>
<path style=" stroke:none;fill-rule:nonzero;fill:rgb(18.039216%,60%,79.215686%);fill-opacity:1;" d="M 27.230469 20.707031 L 27.269531 20.730469 L 27.230469 20.707031 M 27.5 20.6875 L 27.5 20.8125 L 27.625 20.6875 L 27.5 20.6875 M 28.0625 20.6875 L 28.0625 20.75 L 28.375 20.75 L 28.375 20.6875 L 28.0625 20.6875 M 28.582031 20.730469 L 28.605469 20.769531 Z M 28.582031 20.730469 "/>
<path style=" stroke:none;fill-rule:nonzero;fill:rgb(65.098039%,70.196078%,78.039216%);fill-opacity:1;" d="M 3.3125 20.75 L 3.375 20.8125 Z M 3.3125 20.75 "/>
<path style=" stroke:none;fill-rule:nonzero;fill:rgb(18.039216%,60%,79.215686%);fill-opacity:1;" d="M 3.980469 20.769531 L 4.019531 20.792969 L 3.980469 20.769531 M 4.355469 20.769531 L 4.394531 20.792969 Z M 4.355469 20.769531 "/>
<path style=" stroke:none;fill-rule:nonzero;fill:rgb(65.098039%,70.196078%,78.039216%);fill-opacity:1;" d="M 4.480469 20.769531 L 4.519531 20.792969 L 4.480469 20.769531 M 6.5 20.75 L 6.5 20.8125 L 6.6875 20.8125 L 6.5 20.75 M 25 20.75 L 25 20.8125 L 25.25 20.8125 L 25 20.75 M 27.3125 20.75 L 27.3125 20.8125 L 27.5 20.8125 Z M 27.3125 20.75 "/>
<path style=" stroke:none;fill-rule:nonzero;fill:rgb(18.039216%,60%,79.215686%);fill-opacity:1;" d="M 27.707031 20.792969 L 27.730469 20.832031 L 27.707031 20.792969 M 4.105469 20.832031 L 4.144531 20.855469 Z M 4.105469 20.832031 "/>
<path style=" stroke:none;fill-rule:nonzero;fill:rgb(65.098039%,70.196078%,78.039216%);fill-opacity:1;" d="M 4.230469 20.832031 L 4.269531 20.855469 L 4.230469 20.832031 M 6.8125 20.8125 L 6.8125 20.875 L 7 20.875 L 6.8125 20.8125 M 24.792969 20.832031 L 24.832031 20.855469 L 24.792969 20.832031 M 27.605469 20.832031 L 27.644531 20.855469 Z M 27.605469 20.832031 "/>
<path style=" stroke:none;fill-rule:nonzero;fill:rgb(18.039216%,60%,79.215686%);fill-opacity:1;" d="M 28.625 20.8125 L 28.6875 20.875 Z M 28.625 20.8125 "/>
<path style=" stroke:none;fill-rule:nonzero;fill:rgb(65.098039%,70.196078%,78.039216%);fill-opacity:1;" d="M 3.375 20.875 L 3.375 20.9375 L 4.0625 20.9375 L 3.375 20.875 M 7.167969 20.894531 L 7.207031 20.917969 L 7.167969 20.894531 M 24.542969 20.894531 L 24.582031 20.917969 L 24.542969 20.894531 M 27.75 20.875 L 27.75 20.9375 L 27.9375 20.9375 Z M 27.75 20.875 "/>
<path style=" stroke:none;fill-rule:nonzero;fill:rgb(18.039216%,60%,79.215686%);fill-opacity:1;" d="M 27.9375 20.875 L 27.9375 20.9375 L 28.3125 20.9375 Z M 27.9375 20.875 "/>
<path style=" stroke:none;fill-rule:nonzero;fill:rgb(65.098039%,70.196078%,78.039216%);fill-opacity:1;" d="M 28.3125 20.875 L 28.3125 20.9375 L 28.625 20.9375 L 28.3125 20.875 M 7.3125 20.9375 L 7.375 21 L 7.3125 20.9375 M 24.3125 20.9375 L 24.375 21 L 24.3125 20.9375 M 7.5 21 L 7.5625 21.0625 L 7.5 21 M 24.167969 21.019531 L 24.207031 21.042969 L 24.167969 21.019531 M 7.625 21.0625 L 7.6875 21.125 L 7.625 21.0625 M 24 21.0625 L 24.0625 21.125 L 24 21.0625 M 7.792969 21.144531 L 7.832031 21.167969 L 7.792969 21.144531 M 23.875 21.125 L 23.9375 21.1875 L 23.875 21.125 M 7.875 21.1875 L 7.9375 21.25 L 7.875 21.1875 M 23.75 21.1875 L 23.8125 21.25 L 23.75 21.1875 M 8 21.25 L 8.0625 21.3125 L 8 21.25 M 23.625 21.25 L 23.6875 21.3125 L 23.625 21.25 M 8.125 21.3125 L 8.1875 21.375 L 8.125 21.3125 M 23.5625 21.3125 L 23.625 21.375 L 23.5625 21.3125 M 8.1875 21.375 L 8.25 21.4375 Z M 8.1875 21.375 "/>
<path style=" stroke:none;fill-rule:nonzero;fill:rgb(14.901961%,49.019608%,65.490196%);fill-opacity:1;" d="M 23.375 21.375 L 23.4375 21.4375 Z M 23.375 21.375 "/>
<path style=" stroke:none;fill-rule:nonzero;fill:rgb(65.098039%,70.196078%,78.039216%);fill-opacity:1;" d="M 23.4375 21.375 L 23.5 21.4375 Z M 23.4375 21.375 "/>
<path style=" stroke:none;fill-rule:nonzero;fill:rgb(14.901961%,49.019608%,65.490196%);fill-opacity:1;" d="M 23.25 21.4375 L 23.3125 21.5 Z M 23.25 21.4375 "/>
<path style=" stroke:none;fill-rule:nonzero;fill:rgb(65.098039%,70.196078%,78.039216%);fill-opacity:1;" d="M 23.375 21.4375 L 23.4375 21.5 L 23.375 21.4375 M 8.375 21.5 L 8.4375 21.5625 L 8.375 21.5 M 8.4375 21.5625 L 8.5 21.625 Z M 8.4375 21.5625 "/>
<path style=" stroke:none;fill-rule:nonzero;fill:rgb(14.901961%,49.019608%,65.490196%);fill-opacity:1;" d="M 23.125 21.5625 L 23 21.75 Z M 23.125 21.5625 "/>
<path style=" stroke:none;fill-rule:nonzero;fill:rgb(65.098039%,70.196078%,78.039216%);fill-opacity:1;" d="M 8.5 21.625 L 8.5625 21.6875 L 8.5 21.625 M 8.5625 21.6875 L 8.625 21.75 Z M 8.5625 21.6875 "/>
<path style=" stroke:none;fill-rule:nonzero;fill:rgb(14.901961%,49.019608%,65.490196%);fill-opacity:1;" d="M 15.0625 21.6875 L 15.0625 21.75 L 16.625 21.75 L 15.0625 21.6875 M 14.375 21.75 L 14.4375 21.8125 Z M 14.375 21.75 "/>
<path style=" stroke:none;fill-rule:nonzero;fill:rgb(65.098039%,70.196078%,78.039216%);fill-opacity:1;" d="M 15.125 21.75 L 15.125 21.8125 L 16.75 21.8125 L 15.125 21.75 M 14.3125 21.8125 L 14.3125 21.875 L 14.5625 21.875 L 14.3125 21.8125 M 17.25 21.8125 L 17.25 21.875 L 17.5 21.875 L 17.25 21.8125 M 23 21.8125 L 23.0625 21.875 L 23 21.8125 M 8.6875 21.875 L 8.75 21.9375 L 8.6875 21.875 M 14.105469 21.894531 L 14.144531 21.917969 L 14.105469 21.894531 M 17.667969 21.894531 L 17.707031 21.917969 L 17.667969 21.894531 M 22.9375 21.875 L 23 21.9375 L 22.9375 21.875 M 13.917969 21.957031 L 13.957031 21.980469 L 13.917969 21.957031 M 17.855469 21.957031 L 17.894531 21.980469 L 17.855469 21.957031 M 8.75 22 L 8.8125 22.0625 L 8.75 22 M 13.75 22 L 13.8125 22.0625 L 13.75 22 M 18 22 L 18.0625 22.0625 Z M 18 22 "/>
<path style=" stroke:none;fill-rule:nonzero;fill:rgb(14.901961%,49.019608%,65.490196%);fill-opacity:1;" d="M 22.8125 22 L 22.875 22.0625 Z M 22.8125 22 "/>
<path style=" stroke:none;fill-rule:nonzero;fill:rgb(65.098039%,70.196078%,78.039216%);fill-opacity:1;" d="M 22.875 22 L 22.9375 22.0625 L 22.875 22 M 3.9375 22.0625 L 4 22.75 L 4.0625 22.75 C 4.039062 22.421875 3.992188 22.1875 4.375 22.125 L 3.9375 22.0625 M 13.6875 22.0625 L 13.75 22.125 L 13.6875 22.0625 M 18.0625 22.0625 L 18.125 22.125 L 18.0625 22.0625 M 27.625 22.0625 L 27.625 22.125 L 27.9375 22.3125 L 28 22.3125 L 28 22.0625 Z M 27.625 22.0625 "/>
<path style=" stroke:none;fill-rule:nonzero;fill:rgb(18.039216%,60%,79.215686%);fill-opacity:1;" d="M 14.125 29.375 L 14.125 29.4375 L 13.9375 29.4375 L 13.9375 29.5 L 17.875 29.5 L 17.875 29.4375 L 17.75 29.4375 L 17.75 29.375 L 18.5625 29.3125 C 19.5 29.535156 20.703125 29.003906 21.625 28.8125 C 22.96875 28.535156 24.785156 28.46875 25.9375 27.671875 C 27.195312 26.808594 27.273438 25.234375 27.550781 23.875 C 27.667969 23.296875 27.886719 22.710938 27.9375 22.125 C 27.035156 22.128906 25.554688 22.054688 24.75 22.480469 C 23.804688 22.976562 24.203125 24.261719 23.496094 24.996094 C 22.136719 26.402344 17.695312 26.195312 17.6875 23.75 L 14.1875 23.75 C 13.996094 26.152344 9.757812 26.488281 8.316406 24.996094 C 7.625 24.28125 7.953125 22.949219 7.0625 22.464844 C 6.4375 22.121094 5.503906 22.234375 4.8125 22.183594 C 4.613281 22.167969 4.277344 22.046875 4.101562 22.1875 C 3.898438 22.351562 4.089844 22.800781 4.140625 23 C 4.328125 23.722656 4.480469 24.457031 4.636719 25.1875 C 4.777344 25.835938 4.953125 26.457031 5.351562 27 C 6.351562 28.375 8.410156 28.433594 9.9375 28.75 C 11.371094 29.046875 12.664062 29.378906 14.125 29.375 Z M 14.125 29.375 "/>
<path style=" stroke:none;fill-rule:nonzero;fill:rgb(65.098039%,70.196078%,78.039216%);fill-opacity:1;" d="M 4.5625 22.125 L 4.5625 22.1875 L 5 22.1875 L 4.5625 22.125 M 8.8125 22.125 L 8.875 22.1875 L 8.8125 22.125 M 13.5625 22.125 L 13.625 22.1875 L 13.5625 22.125 M 18.1875 22.125 L 18.25 22.1875 L 18.1875 22.125 M 22.832031 22.167969 L 22.855469 22.207031 L 22.832031 22.167969 M 27.0625 22.125 L 27.0625 22.1875 L 27.4375 22.1875 L 27.0625 22.125 M 5.25 22.1875 L 5.25 22.25 L 6.125 22.25 L 5.25 22.1875 M 13.5 22.1875 L 13.5625 22.25 L 13.5 22.1875 M 18.25 22.1875 L 18.3125 22.25 L 18.25 22.1875 M 25.9375 22.1875 L 25.9375 22.25 L 26.875 22.25 L 25.9375 22.1875 M 6.375 22.25 L 6.375 22.3125 L 6.625 22.3125 Z M 6.375 22.25 "/>
<path style=" stroke:none;fill-rule:nonzero;fill:rgb(14.901961%,49.019608%,65.490196%);fill-opacity:1;" d="M 8.9375 22.25 L 9 22.3125 Z M 8.9375 22.25 "/>
<path style=" stroke:none;fill-rule:nonzero;fill:rgb(65.098039%,70.196078%,78.039216%);fill-opacity:1;" d="M 13.4375 22.25 L 13.5 22.3125 L 13.4375 22.25 M 18.3125 22.25 L 18.375 22.3125 L 18.3125 22.25 M 25.25 22.25 L 25.25 22.3125 L 25.5 22.3125 L 25.25 22.25 M 6.792969 22.332031 L 6.832031 22.355469 L 6.792969 22.332031 M 8.875 22.3125 L 8.875 22.5 L 8.9375 22.5 L 8.875 22.3125 M 13.375 22.3125 L 13.4375 22.375 L 13.375 22.3125 M 18.375 22.3125 L 18.4375 22.375 L 18.375 22.3125 M 25.042969 22.332031 L 25.082031 22.355469 L 25.042969 22.332031 M 6.980469 22.394531 L 7.019531 22.417969 L 6.980469 22.394531 M 13.3125 22.375 L 13.375 22.4375 L 13.3125 22.375 M 18.4375 22.375 L 18.5 22.4375 L 18.4375 22.375 M 24.855469 22.394531 L 24.894531 22.417969 L 24.855469 22.394531 M 27.875 22.375 L 27.875 22.5625 L 27.9375 22.5625 L 27.875 22.375 M 7.0625 22.4375 L 7.125 22.5 L 7.0625 22.4375 M 13.269531 22.480469 L 13.292969 22.519531 L 13.269531 22.480469 M 22.75 22.4375 L 22.75 23.75 L 22.8125 23.75 L 22.75 22.4375 M 24.6875 22.4375 L 24.75 22.5 L 24.6875 22.4375 M 7.1875 22.5 L 7.25 22.5625 L 7.1875 22.5 M 18.5 22.5 L 18.5625 22.5625 L 18.5 22.5 M 24.625 22.5 L 24.6875 22.5625 L 24.625 22.5 M 7.25 22.5625 L 7.3125 22.625 L 7.25 22.5625 M 13.207031 22.605469 L 13.230469 22.644531 L 13.207031 22.605469 M 24.5 22.5625 L 24.5625 22.625 L 24.5 22.5625 M 27.8125 22.5625 L 27.8125 22.8125 L 27.875 22.8125 L 27.8125 22.5625 M 7.3125 22.625 L 7.375 22.6875 L 7.3125 22.625 M 18.5625 22.625 L 18.625 22.6875 L 18.5625 22.625 M 24.4375 22.625 L 24.5 22.6875 L 24.4375 22.625 M 7.375 22.6875 L 7.4375 22.75 L 7.375 22.6875 M 24.375 22.6875 L 24.4375 22.75 L 24.375 22.6875 M 7.4375 22.75 L 7.5 22.8125 L 7.4375 22.75 M 13.125 22.75 L 13.125 22.9375 L 13.1875 22.9375 L 13.125 22.75 M 18.625 22.75 L 18.625 23 L 18.6875 23 L 18.625 22.75 M 24.3125 22.75 L 24.375 22.8125 L 24.3125 22.75 M 4.0625 22.8125 L 4.0625 23 L 4.125 23 L 4.0625 22.8125 M 24.25 22.8125 L 24.3125 22.875 L 24.25 22.8125 M 27.75 22.8125 L 27.75 23.0625 L 27.8125 23.0625 L 27.75 22.8125 M 7.5 22.875 L 7.5625 22.9375 L 7.5 22.875 M 24.1875 22.9375 L 24.25 23 L 24.1875 22.9375 M 4.125 23 L 4.125 23.25 L 4.1875 23.25 L 4.125 23 M 7.5625 23 L 7.625 23.0625 L 7.5625 23 M 13.0625 23.0625 L 13.0625 23.375 L 13.125 23.375 L 13.0625 23.0625 M 24.125 23.0625 L 24.1875 23.125 L 24.125 23.0625 M 27.6875 23.0625 L 27.6875 23.3125 L 27.75 23.3125 L 27.6875 23.0625 M 7.644531 23.167969 L 7.667969 23.207031 L 7.644531 23.167969 M 18.6875 23.125 L 18.6875 23.6875 L 18.75 23.6875 Z M 18.6875 23.125 "/>
<path style=" stroke:none;fill-rule:nonzero;fill:rgb(14.901961%,49.019608%,65.490196%);fill-opacity:1;" d="M 9.0625 23.25 L 9.125 23.3125 Z M 9.0625 23.25 "/>
<path style=" stroke:none;fill-rule:nonzero;fill:rgb(65.098039%,70.196078%,78.039216%);fill-opacity:1;" d="M 24.0625 23.25 L 24.0625 23.4375 L 24.125 23.4375 L 24.0625 23.25 M 4.1875 23.3125 L 4.1875 23.5625 L 4.25 23.5625 L 4.1875 23.3125 M 7.6875 23.3125 L 7.6875 23.75 L 7.75 23.75 L 7.6875 23.3125 M 27.625 23.375 L 27.625 23.625 L 27.6875 23.625 Z M 27.625 23.375 "/>
<path style=" stroke:none;fill-rule:nonzero;fill:rgb(14.901961%,49.019608%,65.490196%);fill-opacity:1;" d="M 9.0625 23.4375 L 9.125 23.5 Z M 9.0625 23.4375 "/>
<path style=" stroke:none;fill-rule:nonzero;fill:rgb(65.098039%,70.196078%,78.039216%);fill-opacity:1;" d="M 4.25 23.5625 L 4.25 23.8125 L 4.3125 23.8125 L 4.25 23.5625 M 27.5625 23.625 L 27.5625 23.875 L 27.625 23.875 Z M 27.5625 23.625 "/>
<path style=" stroke:none;fill-rule:nonzero;fill:rgb(14.901961%,49.019608%,65.490196%);fill-opacity:1;" d="M 9.125 23.6875 L 9.125 23.75 L 11 23.75 Z M 9.125 23.6875 "/>
<path style=" stroke:none;fill-rule:nonzero;fill:rgb(65.098039%,70.196078%,78.039216%);fill-opacity:1;" d="M 13 23.6875 C 11.820312 24.035156 10.171875 23.75 8.9375 23.75 L 8.9375 23.8125 L 12.0625 23.8125 Z M 13 23.6875 "/>
<path style=" stroke:none;fill-rule:nonzero;fill:rgb(14.901961%,49.019608%,65.490196%);fill-opacity:1;" d="M 20.5625 23.6875 L 20.5625 23.75 L 22.125 23.75 Z M 20.5625 23.6875 "/>
<path style=" stroke:none;fill-rule:nonzero;fill:rgb(65.098039%,70.196078%,78.039216%);fill-opacity:1;" d="M 24 23.6875 L 24 24.0625 L 24.0625 24.0625 L 24 23.6875 M 14.125 23.75 L 14.125 24.0625 L 14.1875 24.0625 L 14.125 23.75 M 18.75 23.75 L 18.75 23.8125 L 22.6875 23.8125 L 21.4375 23.75 L 18.75 23.75 M 4.3125 23.8125 L 4.3125 24.0625 L 4.375 24.0625 L 4.3125 23.8125 M 17.6875 23.875 L 17.6875 24.3125 L 17.75 24.3125 L 17.6875 23.875 M 7.75 23.9375 L 7.75 24.125 L 7.8125 24.125 L 7.75 23.9375 M 27.5 23.9375 L 27.5 24.25 L 27.5625 24.25 L 27.5 23.9375 M 4.375 24.125 L 4.375 24.375 L 4.4375 24.375 L 4.375 24.125 M 23.957031 24.167969 L 23.980469 24.207031 L 23.957031 24.167969 M 7.832031 24.230469 L 7.855469 24.269531 L 7.832031 24.230469 M 14.0625 24.25 L 14.0625 24.4375 L 14.125 24.4375 L 14.0625 24.25 M 27.4375 24.25 L 27.4375 24.5625 L 27.5 24.5625 L 27.4375 24.25 M 23.894531 24.355469 L 23.917969 24.394531 L 23.894531 24.355469 M 4.4375 24.375 L 4.4375 24.6875 L 4.5 24.6875 L 4.4375 24.375 M 7.875 24.375 L 7.9375 24.4375 L 7.875 24.375 M 17.769531 24.417969 L 17.792969 24.457031 L 17.769531 24.417969 M 7.9375 24.5 L 8 24.5625 L 7.9375 24.5 M 14.019531 24.542969 L 14.042969 24.582031 L 14.019531 24.542969 M 23.8125 24.5 L 23.875 24.5625 L 23.8125 24.5 M 17.832031 24.605469 L 17.855469 24.644531 L 17.832031 24.605469 M 8 24.625 L 8.0625 24.6875 L 8 24.625 M 23.75 24.625 L 23.8125 24.6875 L 23.75 24.625 M 27.375 24.625 L 27.375 24.875 L 27.4375 24.875 L 27.375 24.625 M 4.5 24.6875 L 4.5 24.9375 L 4.5625 24.9375 L 4.5 24.6875 M 8.0625 24.6875 L 8.125 24.75 L 8.0625 24.6875 M 13.9375 24.6875 L 14 24.75 L 13.9375 24.6875 M 23.6875 24.6875 L 23.75 24.75 L 23.6875 24.6875 M 17.875 24.75 L 17.9375 24.8125 L 17.875 24.75 M 8.125 24.8125 L 8.1875 24.875 L 8.125 24.8125 M 17.9375 24.8125 L 18 24.875 L 17.9375 24.8125 M 23.625 24.8125 L 23.6875 24.875 L 23.625 24.8125 M 8.1875 24.875 L 8.25 24.9375 L 8.1875 24.875 M 13.8125 24.875 L 13.875 24.9375 L 13.8125 24.875 M 23.5625 24.875 L 23.625 24.9375 L 23.5625 24.875 M 4.5625 24.9375 L 4.5625 25.1875 L 4.625 25.1875 L 4.5625 24.9375 M 8.25 24.9375 L 8.3125 25 L 8.25 24.9375 M 13.75 24.9375 L 13.8125 25 L 13.75 24.9375 M 23.5 24.9375 L 23.5625 25 L 23.5 24.9375 M 27.3125 24.9375 L 27.3125 25.25 L 27.375 25.25 L 27.3125 24.9375 M 8.3125 25 L 8.375 25.0625 L 8.3125 25 M 13.6875 25 L 13.75 25.0625 Z M 13.6875 25 "/>
<path style=" stroke:none;fill-rule:nonzero;fill:rgb(14.901961%,49.019608%,65.490196%);fill-opacity:1;" d="M 13.917969 25.019531 L 13.957031 25.042969 Z M 13.917969 25.019531 "/>
<path style=" stroke:none;fill-rule:nonzero;fill:rgb(65.098039%,70.196078%,78.039216%);fill-opacity:1;" d="M 18.125 25 L 18.1875 25.0625 L 18.125 25 M 23.4375 25 L 23.5 25.0625 L 23.4375 25 M 8.375 25.0625 L 8.4375 25.125 L 8.375 25.0625 M 13.625 25.0625 L 13.6875 25.125 L 13.625 25.0625 M 18.1875 25.0625 L 18.25 25.125 L 18.1875 25.0625 M 23.375 25.0625 L 23.4375 25.125 L 23.375 25.0625 M 8.4375 25.125 L 8.5 25.1875 L 8.4375 25.125 M 18.25 25.125 L 18.3125 25.1875 L 18.25 25.125 M 23.3125 25.125 L 23.375 25.1875 L 23.3125 25.125 M 8.5 25.1875 L 8.5625 25.25 L 8.5 25.1875 M 13.4375 25.1875 L 13.5 25.25 L 13.4375 25.1875 M 18.375 25.1875 L 18.4375 25.25 L 18.375 25.1875 M 23.25 25.1875 L 23.3125 25.25 L 23.25 25.1875 M 4.625 25.25 L 4.625 25.5 L 4.6875 25.5 L 4.625 25.25 M 8.625 25.25 L 8.6875 25.3125 L 8.625 25.25 M 13.3125 25.25 L 13.375 25.3125 L 13.3125 25.25 M 18.4375 25.25 L 18.5 25.3125 L 18.4375 25.25 M 23.125 25.25 L 23.1875 25.3125 L 23.125 25.25 M 8.6875 25.3125 L 8.75 25.375 L 8.6875 25.3125 M 13.1875 25.3125 L 13.25 25.375 L 13.1875 25.3125 M 18.5625 25.3125 L 18.625 25.375 L 18.5625 25.3125 M 23.0625 25.3125 L 23.125 25.375 L 23.0625 25.3125 M 27.25 25.3125 L 27.25 25.5625 L 27.3125 25.5625 Z M 27.25 25.3125 "/>
<path style=" stroke:none;fill-rule:nonzero;fill:rgb(14.901961%,49.019608%,65.490196%);fill-opacity:1;" d="M 8.5625 25.375 L 8.625 25.4375 Z M 8.5625 25.375 "/>
<path style=" stroke:none;fill-rule:nonzero;fill:rgb(65.098039%,70.196078%,78.039216%);fill-opacity:1;" d="M 8.8125 25.375 L 8.875 25.4375 L 8.8125 25.375 M 13.0625 25.375 L 13.125 25.4375 L 13.0625 25.375 M 18.6875 25.375 L 18.75 25.4375 L 18.6875 25.375 M 22.9375 25.375 L 23 25.4375 L 22.9375 25.375 M 8.9375 25.4375 L 9 25.5 L 8.9375 25.4375 M 12.9375 25.4375 L 13 25.5 L 12.9375 25.4375 M 18.875 25.4375 L 18.9375 25.5 L 18.875 25.4375 M 22.8125 25.4375 L 22.875 25.5 L 22.8125 25.4375 M 4.6875 25.5 L 4.6875 25.75 L 4.75 25.75 L 4.6875 25.5 M 9.0625 25.5 L 9.125 25.5625 L 9.0625 25.5 M 12.792969 25.519531 L 12.832031 25.542969 L 12.792969 25.519531 M 19.042969 25.519531 L 19.082031 25.542969 L 19.042969 25.519531 M 22.667969 25.519531 L 22.707031 25.542969 Z M 22.667969 25.519531 "/>
<path style=" stroke:none;fill-rule:nonzero;fill:rgb(14.901961%,49.019608%,65.490196%);fill-opacity:1;" d="M 8.75 25.5625 L 8.8125 25.625 Z M 8.75 25.5625 "/>
<path style=" stroke:none;fill-rule:nonzero;fill:rgb(65.098039%,70.196078%,78.039216%);fill-opacity:1;" d="M 9.25 25.5625 L 9.3125 25.625 L 9.25 25.5625 M 12.605469 25.582031 L 12.644531 25.605469 L 12.605469 25.582031 M 19.292969 25.582031 L 19.332031 25.605469 L 19.292969 25.582031 M 22.480469 25.582031 L 22.519531 25.605469 Z M 22.480469 25.582031 "/>
<path style=" stroke:none;fill-rule:nonzero;fill:rgb(14.901961%,49.019608%,65.490196%);fill-opacity:1;" d="M 22.625 25.5625 L 22.6875 25.625 Z M 22.625 25.5625 "/>
<path style=" stroke:none;fill-rule:nonzero;fill:rgb(65.098039%,70.196078%,78.039216%);fill-opacity:1;" d="M 27.1875 25.5625 L 27.1875 25.8125 L 27.25 25.8125 L 27.1875 25.5625 M 9.480469 25.644531 L 9.519531 25.667969 L 9.480469 25.644531 M 12.292969 25.644531 L 12.332031 25.667969 L 12.292969 25.644531 M 19.542969 25.644531 L 19.582031 25.667969 L 19.542969 25.644531 M 22.230469 25.644531 L 22.269531 25.667969 L 22.230469 25.644531 M 9.6875 25.6875 L 9.6875 25.75 L 9.875 25.75 L 9.6875 25.6875 M 11.875 25.6875 L 11.875 25.75 L 12.0625 25.75 L 11.875 25.6875 M 19.8125 25.6875 L 19.8125 25.75 L 20.0625 25.75 L 19.8125 25.6875 M 21.8125 25.6875 L 21.8125 25.75 L 22 25.75 L 21.8125 25.6875 M 4.75 25.75 L 4.75 25.9375 L 4.8125 25.9375 L 4.75 25.75 M 10.3125 25.75 L 10.3125 25.8125 L 11.5625 25.8125 L 10.3125 25.75 M 20.375 25.75 L 20.375 25.8125 L 21.3125 25.8125 L 20.375 25.75 M 27.125 25.8125 L 27.125 26 L 27.1875 26 L 27.125 25.8125 M 4.832031 26.042969 L 4.855469 26.082031 L 4.832031 26.042969 M 27.082031 26.105469 L 27.105469 26.144531 L 27.082031 26.105469 M 4.894531 26.230469 L 4.917969 26.269531 L 4.894531 26.230469 M 27.019531 26.230469 L 27.042969 26.269531 L 27.019531 26.230469 M 4.957031 26.355469 L 4.980469 26.394531 L 4.957031 26.355469 M 26.957031 26.417969 L 26.980469 26.457031 L 26.957031 26.417969 M 5.019531 26.480469 L 5.042969 26.519531 L 5.019531 26.480469 M 26.894531 26.542969 L 26.917969 26.582031 L 26.894531 26.542969 M 5.082031 26.605469 L 5.105469 26.644531 L 5.082031 26.605469 M 26.8125 26.625 L 26.875 26.6875 L 26.8125 26.625 M 5.125 26.6875 L 5.1875 26.75 L 5.125 26.6875 M 5.207031 26.792969 L 5.230469 26.832031 L 5.207031 26.792969 M 26.75 26.75 L 26.8125 26.8125 L 26.75 26.75 M 26.6875 26.8125 L 26.75 26.875 L 26.6875 26.8125 M 5.25 26.875 L 5.3125 26.9375 L 5.25 26.875 M 26.625 26.9375 L 26.6875 27 L 26.625 26.9375 M 5.3125 27 L 5.375 27.0625 L 5.3125 27 M 26.5625 27 L 26.625 27.0625 L 26.5625 27 M 5.375 27.0625 L 5.4375 27.125 L 5.375 27.0625 M 26.519531 27.105469 L 26.542969 27.144531 L 26.519531 27.105469 M 5.4375 27.125 L 5.5 27.1875 L 5.4375 27.125 M 5.5 27.1875 L 5.5625 27.25 L 5.5 27.1875 M 26.4375 27.1875 L 26.5 27.25 L 26.4375 27.1875 M 5.582031 27.292969 L 5.605469 27.332031 L 5.582031 27.292969 M 26.375 27.25 L 26.4375 27.3125 L 26.375 27.25 M 26.3125 27.3125 L 26.375 27.375 L 26.3125 27.3125 M 5.625 27.375 L 5.8125 27.5 L 5.625 27.375 M 26.25 27.375 L 26.3125 27.4375 L 26.25 27.375 M 26.1875 27.4375 L 26.25 27.5 L 26.1875 27.4375 M 5.8125 27.5 L 5.875 27.5625 L 5.8125 27.5 M 26.125 27.5 L 26.1875 27.5625 L 26.125 27.5 M 5.875 27.5625 L 5.9375 27.625 L 5.875 27.5625 M 25.9375 27.6875 L 26.125 27.5625 L 25.9375 27.6875 M 5.980469 27.644531 L 6.019531 27.667969 L 5.980469 27.644531 M 6.0625 27.6875 L 6.125 27.75 L 6.0625 27.6875 M 25.875 27.6875 L 25.9375 27.75 L 25.875 27.6875 M 6.167969 27.769531 L 6.207031 27.792969 L 6.167969 27.769531 M 25.75 27.75 L 25.8125 27.8125 L 25.75 27.75 M 6.292969 27.832031 L 6.332031 27.855469 L 6.292969 27.832031 M 25.667969 27.832031 L 25.707031 27.855469 L 25.667969 27.832031 M 6.417969 27.894531 L 6.457031 27.917969 L 6.417969 27.894531 M 25.542969 27.894531 L 25.582031 27.917969 L 25.542969 27.894531 M 6.542969 27.957031 L 6.582031 27.980469 L 6.542969 27.957031 M 25.375 27.9375 L 25.4375 28 L 25.375 27.9375 M 6.625 28 L 6.625 28.0625 L 6.8125 28.0625 L 6.625 28 M 25.230469 28.019531 L 25.269531 28.042969 L 25.230469 28.019531 M 6.855469 28.082031 L 6.894531 28.105469 L 6.855469 28.082031 M 24.9375 28.0625 L 24.9375 28.125 L 25.125 28.125 L 24.9375 28.0625 M 7.042969 28.144531 L 7.082031 28.167969 L 7.042969 28.144531 M 24.75 28.125 L 24.75 28.1875 L 24.9375 28.1875 L 24.75 28.125 M 7.1875 28.1875 L 7.1875 28.25 L 7.375 28.25 L 7.1875 28.1875 M 24.5 28.1875 L 24.5 28.25 L 24.75 28.25 L 24.5 28.1875 M 7.375 28.25 L 7.375 28.3125 L 7.625 28.3125 L 7.375 28.25 M 24.25 28.25 L 24.25 28.3125 L 24.5 28.3125 L 24.25 28.25 M 7.625 28.3125 L 7.625 28.375 L 7.875 28.375 L 7.625 28.3125 M 23.9375 28.3125 L 23.9375 28.375 L 24.25 28.375 L 23.9375 28.3125 M 8 28.375 L 8 28.4375 L 8.25 28.4375 L 8 28.375 M 23.5625 28.375 L 23.5625 28.4375 L 23.9375 28.4375 L 23.5625 28.375 M 8.3125 28.4375 L 8.3125 28.5 L 8.5625 28.5 L 8.3125 28.4375 M 23.25 28.4375 L 23.25 28.5 L 23.5625 28.5 L 23.25 28.4375 M 8.625 28.5 L 8.625 28.5625 L 8.875 28.5625 L 8.625 28.5 M 22.875 28.5 L 22.875 28.5625 L 23.1875 28.5625 L 22.875 28.5 M 8.9375 28.5625 L 8.9375 28.625 L 9.1875 28.625 L 8.9375 28.5625 M 22.625 28.5625 L 22.625 28.625 L 22.875 28.625 L 22.625 28.5625 M 9.25 28.625 L 9.25 28.6875 L 9.5 28.6875 L 9.25 28.625 M 22.3125 28.625 L 22.3125 28.6875 L 22.5625 28.6875 L 22.3125 28.625 M 9.5625 28.6875 L 9.5625 28.75 L 9.8125 28.75 L 9.5625 28.6875 M 22.0625 28.6875 L 22.0625 28.75 L 22.3125 28.75 L 22.0625 28.6875 M 9.875 28.75 L 9.875 28.8125 L 10.125 28.8125 L 9.875 28.75 M 21.75 28.75 L 21.75 28.8125 L 22 28.8125 L 21.75 28.75 M 10.125 28.8125 L 10.125 28.875 L 10.375 28.875 L 10.125 28.8125 M 21.4375 28.8125 L 21.4375 28.875 L 21.6875 28.875 L 21.4375 28.8125 M 10.4375 28.875 L 10.4375 28.9375 L 10.6875 28.9375 L 10.4375 28.875 M 21.1875 28.875 L 21.1875 28.9375 L 21.4375 28.9375 L 21.1875 28.875 M 10.6875 28.9375 L 10.6875 29 L 10.9375 29 L 10.6875 28.9375 M 20.9375 28.9375 L 20.9375 29 L 21.125 29 L 20.9375 28.9375 M 11 29 L 11 29.0625 L 11.1875 29.0625 L 11 29 M 20.625 29 L 20.625 29.0625 L 20.875 29.0625 L 20.625 29 M 11.25 29.0625 L 11.25 29.125 L 11.4375 29.125 L 11.25 29.0625 M 20.375 29.0625 L 20.375 29.125 L 20.5625 29.125 L 20.375 29.0625 M 11.5 29.125 L 11.5 29.1875 L 11.75 29.1875 L 11.5 29.125 M 20.0625 29.125 L 20.0625 29.1875 L 20.3125 29.1875 L 20.0625 29.125 M 11.8125 29.1875 L 11.8125 29.25 L 12 29.25 L 11.8125 29.1875 M 19.8125 29.1875 L 19.8125 29.25 L 20 29.25 L 19.8125 29.1875 M 12.0625 29.25 L 12.0625 29.3125 L 12.3125 29.3125 L 12.0625 29.25 M 19.5 29.25 L 19.5 29.3125 L 19.6875 29.3125 L 19.5 29.25 M 12.375 29.3125 L 12.375 29.375 L 12.625 29.375 Z M 12.375 29.3125 "/>
<path style=" stroke:none;fill-rule:nonzero;fill:rgb(14.901961%,49.019608%,65.490196%);fill-opacity:1;" d="M 12.9375 29.3125 L 13 29.375 L 12.9375 29.3125 M 13.105469 29.332031 L 13.144531 29.355469 L 13.105469 29.332031 M 18.605469 29.332031 L 18.644531 29.355469 Z M 18.605469 29.332031 "/>
<path style=" stroke:none;fill-rule:nonzero;fill:rgb(65.098039%,70.196078%,78.039216%);fill-opacity:1;" d="M 19.125 29.3125 L 19.125 29.375 L 19.375 29.375 L 19.125 29.3125 M 12.8125 29.375 L 12.8125 29.4375 L 13.25 29.4375 Z M 12.8125 29.375 "/>
<path style=" stroke:none;fill-rule:nonzero;fill:rgb(14.901961%,49.019608%,65.490196%);fill-opacity:1;" d="M 13.5625 29.375 L 13.5625 29.4375 L 14.125 29.4375 L 13.5625 29.375 M 17.75 29.375 L 17.75 29.4375 L 18.1875 29.4375 Z M 17.75 29.375 "/>
<path style=" stroke:none;fill-rule:nonzero;fill:rgb(65.098039%,70.196078%,78.039216%);fill-opacity:1;" d="M 18.5625 29.375 L 18.5625 29.4375 L 18.9375 29.4375 L 18.5625 29.375 M 13.4375 29.4375 L 13.4375 29.5 L 13.9375 29.5 Z M 13.4375 29.4375 "/>
<path style=" stroke:none;fill-rule:nonzero;fill:rgb(14.901961%,49.019608%,65.490196%);fill-opacity:1;" d="M 14.5625 29.4375 L 14.5625 29.5 L 17.3125 29.5 C 16.597656 29.199219 15.34375 29.4375 14.5625 29.4375 Z M 14.5625 29.4375 "/>
<path style=" stroke:none;fill-rule:nonzero;fill:rgb(65.098039%,70.196078%,78.039216%);fill-opacity:1;" d="M 17.875 29.4375 L 17.875 29.5 L 18.4375 29.5 L 17.875 29.4375 M 14.5 29.5 L 14.5 29.5625 L 17.3125 29.5625 C 16.582031 29.253906 15.296875 29.5 14.5 29.5 Z M 14.5 29.5 "/>
</g>
</svg>
