<?xml version="1.0" encoding="UTF-8"?>
<svg xmlns="http://www.w3.org/2000/svg" xmlns:xlink="http://www.w3.org/1999/xlink" width="32px" height="32px" viewBox="0 0 32 32" version="1.1">
<g id="surface1">
<path style=" stroke:none;fill-rule:nonzero;fill:rgb(23.137255%,62.352941%,81.176471%);fill-opacity:1;" d="M 22.019531 7.738281 C 22.019531 4.417969 19.28125 1.6875 15.96875 1.6875 C 12.65625 1.6875 9.917969 4.425781 9.917969 7.738281 C 9.917969 10.761719 12.132812 13.207031 14.980469 13.675781 L 14.980469 29.96875 L 10.96875 29.96875 L 10.96875 32 L 21.09375 32 L 21.09375 29.960938 L 17.082031 29.960938 L 17.082031 13.675781 C 19.867188 13.207031 22.019531 10.761719 22.019531 7.738281 Z M 11.957031 7.738281 C 11.957031 5.523438 13.761719 3.726562 15.96875 3.726562 C 18.175781 3.726562 19.980469 5.53125 19.980469 7.738281 C 19.980469 9.945312 18.179688 11.75 15.96875 11.75 C 13.757812 11.75 11.957031 9.949219 11.957031 7.738281 Z M 7.882812 4.074219 C 7.125 5.007812 6.71875 6.113281 6.71875 7.273438 C 6.71875 8.4375 7.125 9.542969 7.882812 10.476562 L 6.3125 11.75 C 5.261719 10.46875 4.679688 8.898438 4.679688 7.269531 C 4.679688 5.636719 5.261719 4.070312 6.3125 2.789062 Z M 2.820312 7.273438 C 2.820312 9.425781 3.574219 11.523438 5.085938 13.210938 L 3.574219 14.550781 C 1.769531 12.511719 0.835938 9.894531 0.835938 7.273438 C 0.835938 4.65625 1.832031 2.039062 3.582031 0 L 5.09375 1.335938 C 3.636719 3.023438 2.820312 5.0625 2.820312 7.273438 Z M 27.257812 7.273438 C 27.257812 8.90625 26.675781 10.417969 25.625 11.757812 L 24.054688 10.476562 C 24.8125 9.542969 25.21875 8.4375 25.21875 7.273438 C 25.21875 6.113281 24.8125 5.007812 24.054688 4.074219 L 25.625 2.792969 C 26.675781 4.074219 27.257812 5.644531 27.257812 7.273438 Z M 31.15625 7.273438 C 31.15625 9.894531 30.167969 12.511719 28.417969 14.550781 L 26.90625 13.210938 C 28.363281 11.523438 29.175781 9.429688 29.175781 7.273438 C 29.175781 5.117188 28.417969 3.023438 26.90625 1.335938 L 28.417969 0 C 30.167969 2.039062 31.15625 4.65625 31.15625 7.273438 Z M 31.15625 7.273438 "/>
</g>
</svg>
