<?xml version="1.0" encoding="UTF-8"?>
<svg width="32" height="32" xmlns="http://www.w3.org/2000/svg">
  <circle cx="16" cy="16" r="6.67" fill="rgb(23.137255%,62.352941%,81.176471%)" />
  <line x1="6" y1="6" x2="16" y2="16" stroke="rgb(23.137255%,62.352941%,81.176471%)" stroke-width="4" />
  <path transform="rotate(180 7.18282 16)" stroke="null" id="svg_1" fill="rgb(23.137255%,62.352941%,81.176471%)" d="m6.68477,17.66912c-0.10978,0.13838 -0.20571,0.30242 -0.30928,0.482c-0.25726,0.42058 -0.25726,1.02852 0,1.44911c0.26251,0.42836 0.68061,0.42836 0.94311,0c1.15264,-1.87824 1.15264,-5.3222 0,-7.20044c-0.26251,-0.42836 -0.68061,-0.42836 -0.94311,0c-0.25726,0.42058 -0.25726,1.02852 0,1.44911c0.10357,0.17958 0.1995,0.34362 0.30928,0.482"/>
  <path transform="rotate(180 4.57412 16)" stroke="null" id="svg_5" fill="rgb(23.137255%,62.352941%,81.176471%)" d="m4.07607,18.47104c-0.10977,0.20486 -0.20571,0.4477 -0.30928,0.71356c-0.25725,0.62266 -0.25725,1.52268 0,2.14533c0.26251,0.63416 0.68061,0.63416 0.94312,0c1.15264,-2.78063 1.15264,-7.87922 0,-10.65985c-0.26251,-0.63416 -0.68061,-0.63416 -0.94312,0c-0.25725,0.62265 -0.25725,1.52267 0,2.14533c0.10357,0.26586 0.19951,0.50871 0.30928,0.71357"/>
  <path stroke="null" id="svg_6" fill="rgb(23.137255%,62.352941%,81.176471%)" d="m23.78622,17.66912c-0.10977,0.13838 -0.20571,0.30241 -0.30928,0.48199c-0.25725,0.42059 -0.25725,1.02853 0,1.44911c0.26251,0.42836 0.68061,0.42836 0.94312,0c1.15264,-1.87824 1.15264,-5.3222 0,-7.20044c-0.26251,-0.42836 -0.68061,-0.42836 -0.94312,0c-0.25725,0.42058 -0.25725,1.02852 0,1.44911c0.10357,0.17958 0.19951,0.34362 0.30928,0.482"/>
  <path stroke="null" id="svg_7" fill="rgb(23.137255%,62.352941%,81.176471%)" d="m26.39491,18.47104c-0.10977,0.20486 -0.20571,0.4477 -0.30928,0.71356c-0.25725,0.62266 -0.25725,1.52268 0,2.14533c0.26251,0.63416 0.68061,0.63416 0.94312,0c1.15264,-2.78063 1.15264,-7.87923 0,-10.65986c-0.26251,-0.63416 -0.68061,-0.63416 -0.94312,0c-0.25725,0.62265 -0.25725,1.52267 0,2.14533c0.10357,0.26586 0.19951,0.50871 0.30928,0.71358"/>
</svg>