<?xml version="1.0" encoding="UTF-8"?>
<svg width="32" height="32" xmlns="http://www.w3.org/2000/svg">
 <g>
  <path fill="rgb(23.137255%,62.352941%,81.176471%)" d="m412.99636,986.07017c-63.43984,26.11403 -148.02629,40.17544 -234.53516,40.17544c-88.43129,0 -173.01774,-14.0614 -236.45758,-40.17544c-67.28468,-26.11403 -103.81064,-66.28947 -103.81064,-108.47368l0,-731.19297c0,-42.18421 36.52597,-82.35965 103.81064,-108.47368c63.43984,-26.11403 148.02629,-40.17544 236.45758,-40.17544c86.50887,0 171.09532,14.0614 234.53516,40.17544c67.28468,26.11403 103.81064,66.28947 103.81064,108.47368l0,731.19297c0,42.18421 -36.52597,82.35965 -103.81064,108.47368zm-11.53452,-920.01753c-59.595,-24.10526 -138.41419,-36.15789 -223.00064,-36.15789c-86.50887,0 -165.32806,12.05263 -224.92306,36.15789c-53.82774,22.09649 -84.58645,52.22807 -84.58645,80.35088c0,26.11403 30.75871,56.24561 84.58645,78.3421a638.24321,666.91227 0 0 0 317.19919,32.14035c48.06048,-6.02632 94.19855,-18.07895 130.72451,-32.14035c53.82774,-22.09649 84.58645,-52.22807 84.58645,-78.3421c0,-28.12281 -30.75871,-58.25438 -84.58645,-80.35088zm84.58645,142.6228c-21.14661,20.08772 -48.06048,34.14912 -73.05193,44.19298c-42.29322,18.07895 -92.27613,30.13158 -146.10387,36.15789a828.56272,865.78069 0 0 1 -324.88886,-36.15789c-24.99145,-10.04386 -51.90532,-24.10526 -73.05193,-44.19298l0,180.78947c0,28.12281 30.75871,56.24561 84.58645,78.3421a599.79482,626.73683 0 0 0 224.92306,38.16667c92.27613,0 203.77645,-8.03509 280.67322,-70.30702c9.6121,-8.03509 19.22419,-18.07895 24.99145,-30.13158l1.92242,-16.07018l0,-180.78947l-0.00001,0.00001zm0,243.0614l-15.37935,14.0614c-32.68113,24.10526 -73.05193,40.17544 -113.42274,50.2193a822.79546,859.75437 0 0 1 -415.24257,-18.07895c-24.99145,-10.04386 -51.90532,-24.10526 -73.05193,-44.19298l0,-2.00877l0,182.79824c0,28.12281 30.75871,56.24561 84.58645,78.3421a638.24321,666.91227 0 0 0 296.05257,34.14912c57.67258,-6.02632 109.5779,-16.07018 151.87113,-34.14912c23.06903,-10.04386 42.29322,-20.08772 55.75016,-32.14035c11.53452,-8.03509 23.06903,-20.08772 26.91387,-36.15789l1.92242,0l0,-192.8421l-0.00001,0zm0,245.07017l0,2.00877l-15.37935,12.05263c-19.22419,14.0614 -38.44839,22.09649 -57.67258,32.14035a638.24321,666.91227 0 0 1 -234.53516,38.16667c-88.43129,0 -173.01774,-14.0614 -236.45758,-38.16667c-24.99145,-12.05263 -51.90532,-24.10526 -73.05193,-44.19298l0,-2.00877l0,180.78947c0,28.12281 30.75871,58.25438 84.58645,80.35088c59.595,24.10526 138.41419,36.15789 224.92306,36.15789s163.40564,-12.05263 223.00064,-36.15789c53.82774,-22.09649 84.58645,-52.22807 84.58645,-80.35088l0,-180.78947z" transform="translate(10.4531 0) scale(0.03125 0.03125)"/>
 </g>
</svg>