<?xml version="1.0" encoding="UTF-8"?>
<svg xmlns="http://www.w3.org/2000/svg" xmlns:xlink="http://www.w3.org/1999/xlink" width="32px" height="32px" viewBox="0 0 32 32" version="1.1">
<g id="surface1">
<path style=" stroke:none;fill-rule:nonzero;fill:rgb(99.607843%,26.27451%,39.607843%);fill-opacity:1;" d="M 0.195312 15.046875 C 1.101562 13.0625 2.042969 11.273438 3.003906 9.6875 C 6.765625 3.492188 10.984375 0.1875 15.34375 0.0234375 C 19.695312 -0.140625 24.15625 2.828125 28.414062 9.179688 C 29.570312 10.898438 30.703125 12.859375 31.808594 15.058594 C 32.046875 15.53125 32.0625 16.234375 31.859375 16.734375 C 30.625 19.886719 29.234375 22.542969 27.734375 24.710938 C 24.386719 29.546875 20.488281 31.9375 16.535156 31.980469 C 12.59375 32.023438 8.609375 29.734375 5.070312 25.214844 C 3.300781 22.953125 1.640625 20.136719 0.160156 16.773438 C -0.0703125 16.253906 -0.046875 15.515625 0.195312 15.046875 Z M 16 9.429688 C 18.003906 9.429688 19.632812 12.371094 19.632812 16 C 19.632812 19.628906 18.003906 22.570312 16 22.570312 C 13.996094 22.570312 12.367188 19.628906 12.367188 16 C 12.367188 15.324219 12.425781 14.671875 12.53125 14.058594 C 12.796875 15.320312 13.46875 16.214844 14.257812 16.214844 C 15.28125 16.214844 16.109375 14.714844 16.109375 12.867188 C 16.109375 11.433594 15.609375 10.207031 14.910156 9.730469 C 15.253906 9.535156 15.621094 9.429688 16 9.429688 Z M 22.703125 5.640625 C 23.304688 6.914062 23.792969 8.355469 24.144531 9.902344 C 24.578125 11.789062 24.816406 13.847656 24.816406 16 C 24.816406 18.152344 24.578125 20.214844 24.148438 22.097656 C 23.703125 24.035156 23.054688 25.796875 22.234375 27.277344 L 22.113281 27.492188 C 23.765625 26.378906 25.351562 24.769531 26.824219 22.640625 C 28.082031 20.824219 29.261719 18.625 30.324219 16.050781 C 29.386719 14.25 28.4375 12.636719 27.488281 11.21875 C 25.910156 8.867188 24.3125 7.011719 22.703125 5.640625 Z M 9.449219 26.660156 C 8.78125 25.324219 8.238281 23.785156 7.855469 22.101562 C 7.410156 20.167969 7.183594 18.09375 7.183594 16 C 7.183594 13.851562 7.421875 11.792969 7.851562 9.910156 C 8.28125 8.039062 8.898438 6.351562 9.664062 4.921875 C 7.695312 6.429688 5.789062 8.683594 3.988281 11.644531 C 3.195312 12.953125 2.425781 14.390625 1.679688 15.960938 C 2.976562 18.753906 4.402344 21.121094 5.910156 23.050781 C 7.046875 24.503906 8.234375 25.707031 9.449219 26.660156 Z M 18.808594 3.703125 C 17.949219 3.054688 17 2.699219 16 2.699219 C 15.003906 2.699219 14.054688 3.054688 13.191406 3.703125 C 12.296875 4.378906 11.484375 5.371094 10.804688 6.605469 C 10.125 7.835938 9.574219 9.300781 9.203125 10.921875 C 8.847656 12.480469 8.648438 14.199219 8.648438 16 C 8.648438 17.804688 8.847656 19.523438 9.203125 21.085938 C 9.574219 22.703125 10.117188 24.167969 10.804688 25.40625 C 11.480469 26.628906 12.292969 27.621094 13.191406 28.296875 C 14.054688 28.941406 15.003906 29.300781 16 29.300781 C 16.996094 29.300781 17.949219 28.941406 18.8125 28.296875 C 19.707031 27.625 20.519531 26.632812 21.199219 25.40625 C 21.878906 24.175781 22.425781 22.707031 22.796875 21.089844 C 23.152344 19.523438 23.351562 17.804688 23.351562 16 C 23.351562 14.195312 23.152344 12.480469 22.796875 10.917969 C 22.425781 9.292969 21.878906 7.828125 21.199219 6.597656 C 20.519531 5.367188 19.707031 4.378906 18.808594 3.703125 Z M 18.808594 3.703125 "/>
</g>
</svg>
