<svg width="64" height="64" xmlns="http://www.w3.org/2000/svg" xmlns:xlink="http://www.w3.org/1999/xlink">
  <defs/>
  <g>
    <path stroke="none" fill="#FFFFFF" d="M32 8 Q35.3 8 37.65 10.35 40 12.7 40 16 L40 24 48 24 Q51.3 24 53.65 26.35 56 28.7 56 32 56 35.3 53.65 37.65 51.3 40 48 40 L40 40 40 48 Q40 51.3 37.65 53.65 35.3 56 32 56 28.7 56 26.35 53.65 24 51.3 24 48 L24 40 16 40 Q12.7 40 10.35 37.65 8 35.3 8 32 8 28.7 10.35 26.35 12.7 24 16 24 L24 24 24 16 Q24 12.7 26.35 10.35 28.7 8 32 8 M27 48 Q27 50.05 28.5 51.55 29.95 53 32 53 34.05 53 35.55 51.55 37 50.05 37 48 L37 37 48 37 Q50.05 37 51.55 35.55 53 34.05 53 32 53 29.95 51.55 28.5 50.05 27 48 27 L37 27 37 16 Q37 13.95 35.55 12.5 34.05 11 32 11 29.95 11 28.5 12.5 27 13.95 27 16 L27 48"/>
  </g>
</svg>