<svg width="64" height="64" xmlns="http://www.w3.org/2000/svg" xmlns:xlink="http://www.w3.org/1999/xlink">
  <defs/>
  <g>
    <path stroke="none" fill="#FFFFFF" d="M46 50 L40 44 40 42 43.7 42 Q43.25 40.75 42.3 39.75 L42.3 39.8 Q40.5 38 38 38 35.5 38 33.8 39.75 L33.8 39.8 Q32 41.55 32 44 32 46.5 33.8 48.3 35.5 50 38 50 38.85 50 39.45 50.6 40 51.15 40 52 40 52.85 39.45 53.45 38.85 54 38 54 33.8 54 30.95 51.15 28 48.2 28 44 28 39.85 30.95 36.95 33.8 34 38 34 42.2 34 45.15 36.95 47.3 39.15 47.85 42 L52 42 52 44 46 50 M29 15 L41 15 Q45 15 45 19 L45 25 Q45 28.9 41.2 29 L29 29 Q25.45 29 25.05 25.9 L25 25 25 19 Q25 15 29 15 M18 43 Q18 42.15 17.4 41.55 16.85 41 16 41 15.15 41 14.55 41.55 14 42.15 14 43 14 43.85 14.55 44.4 15.15 45 16 45 16.85 45 17.4 44.4 18 43.85 18 43 M22 25 Q22 28.55 23.8 30.3 L19.85 44.1 Q19.4 45.7 17.95 46.5 16.5 47.3 14.9 46.85 13.3 46.4 12.5 44.95 11.7 43.5 12.15 41.9 L18.15 20.9 Q18.6 19.3 20.05 18.5 21 17.95 22.05 18 L22 19 22 25"/>
  </g>
</svg>