<svg width="64" height="64" xmlns="http://www.w3.org/2000/svg" xmlns:xlink="http://www.w3.org/1999/xlink">
  <defs/>
  <g>
    <path stroke="none" fill="#FFFFFF" d="M18 38 Q17.2 38 16.6 38.6 16 39.2 16 40 L16 42 14 42 Q13.2 42 12.6 42.6 12 43.2 12 44 12 44.8 12.6 45.4 13.2 46 14 46 L16 46 16 48 Q16 48.8 16.6 49.4 17.2 50 18 50 18.8 50 19.4 49.4 20 48.8 20 48 L20 46 22 46 Q22.8 46 23.4 45.4 24 44.8 24 44 24 43.2 23.4 42.6 22.8 42 22 42 L20 42 20 40 Q20 39.2 19.4 38.6 18.8 38 18 38 M44 14 L12 14 12 34 44 34 44 14 M42 41 Q42 39.75 41.1 38.85 40.3 38 39 38 37.75 38 36.85 38.85 36 39.75 36 41 36 42.3 36.85 43.1 37.75 44 39 44 40.3 44 41.1 43.1 42 42.3 42 41 M34 41 Q34 39.75 33.1 38.85 32.3 38 31 38 29.75 38 28.85 38.85 28 39.75 28 41 28 42.3 28.85 43.1 29.75 44 31 44 32.3 44 33.1 43.1 34 42.3 34 41 M44.2 10 L45.6 10.2 Q48 10.9 48 14 L48 18 56 18 56 26 52 26 52 34.25 Q51.9 37.15 49.6 37.8 L48.35 38 48 38 48 50 Q48 53.1 45.6 53.8 L44.2 54 12 54 Q8 54 8 50 L8 14 Q8 10 12 10 L44.2 10"/>
  </g>
</svg>