<svg width="64" height="64" xmlns="http://www.w3.org/2000/svg" xmlns:xlink="http://www.w3.org/1999/xlink">
  <defs/>
  <g>
    <path stroke="none" fill="#FFFFFF" d="M29 15 L41 15 Q45 15 45 19 L45 25 Q45 28.9 41.2 29 L29 29 Q25.45 29 25.05 25.9 L25 25 25 19 Q25 15 29 15 M18 43 Q18 42.15 17.4 41.55 16.85 41 16 41 15.15 41 14.55 41.55 14 42.15 14 43 14 43.85 14.55 44.4 15.15 45 16 45 16.85 45 17.4 44.4 18 43.85 18 43 M22 25 Q22 28.55 23.8 30.3 L19.85 44.1 Q19.4 45.7 17.95 46.5 16.5 47.3 14.9 46.85 13.3 46.4 12.5 44.95 11.7 43.5 12.15 41.9 L18.15 20.9 Q18.6 19.3 20.05 18.5 21 17.95 22.05 18 L22 19 22 25"/>
  </g>
</svg>