<svg width="64" height="64" xmlns="http://www.w3.org/2000/svg" xmlns:xlink="http://www.w3.org/1999/xlink">
  <defs/>
  <g>
    <path stroke="none" fill="#FFFFFF" d="M44.2 13 L12 13 Q11 13 11 14 L11 50 Q11 51 12 51 L44.2 51 44.65 50.95 44.75 50.95 45 50 45 13.95 44.8 13.15 44.75 13.1 44.65 13.05 44.2 13 M44.2 10 L45.6 10.2 Q48 10.9 48 14 L48 18 56 18 56 26 52 26 52 34.25 Q51.9 37.15 49.6 37.8 L48.35 38 48 38 48 50 Q48 53.1 45.6 53.8 L44.2 54 12 54 Q8 54 8 50 L8 14 Q8 10 12 10 L44.2 10 M34 41 Q34 42.3 33.1 43.1 32.3 44 31 44 29.75 44 28.85 43.1 28 42.3 28 41 28 39.75 28.85 38.85 29.75 38 31 38 32.3 38 33.1 38.85 34 39.75 34 41 M42 41 Q42 42.3 41.1 43.1 40.3 44 39 44 37.75 44 36.85 43.1 36 42.3 36 41 36 39.75 36.85 38.85 37.75 38 39 38 40.3 38 41.1 38.85 42 39.75 42 41 M42 16 L42 34 14 34 14 16 42 16 M20 36 Q20.8 36 21.4 36.6 22 37.2 22 38 L22 40 24 40 Q24.8 40 25.4 40.6 26 41.2 26 42 26 42.8 25.4 43.4 24.8 44 24 44 L22 44 22 46 Q22 46.8 21.4 47.4 20.8 48 20 48 19.2 48 18.6 47.4 18 46.8 18 46 L18 44 16 44 Q15.2 44 14.6 43.4 14 42.8 14 42 14 41.2 14.6 40.6 15.2 40 16 40 L18 40 18 38 Q18 37.2 18.6 36.6 19.2 36 20 36"/>
  </g>
</svg>