<svg width="64" height="64" xmlns="http://www.w3.org/2000/svg" xmlns:xlink="http://www.w3.org/1999/xlink">
  <defs/>
  <g>
    <path stroke="none" fill="#FFFFFF" d="M40 24 L48 24 Q51.3 24 53.65 26.35 56 28.7 56 32 56 35.3 53.65 37.65 51.35 39.95 48.2 40 L40 40 24 40 16 40 Q12.7 40 10.35 37.65 8 35.3 8 32 8 28.7 10.35 26.35 12.7 24 16 24 L24 24 40 24"/>
    <path stroke="none" fill="#E73246" d="M40 24 L24 24 24 16 Q24 12.7 26.35 10.35 28.7 8 32 8 35.3 8 37.65 10.35 40 12.7 40 16 L40 24 M40 40 L40 48 Q40 51.3 37.65 53.65 35.3 56 32 56 28.7 56 26.35 53.65 24 51.3 24 48 L24 40 40 40"/>
  </g>
</svg>